<?xml version="1.0" encoding="UTF-8" standalone="no"?>
<!DOCTYPE svg PUBLIC "-//W3C//DTD SVG 1.1//EN"
 "http://www.w3.org/Graphics/SVG/1.1/DTD/svg11.dtd">
<!-- Generated by graphviz version 2.30.1 (20200304.1809)
 -->
<!-- Title: BBBFE\nLO\nscan Pages: 1 -->
<svg width="470pt" height="283pt"
 viewBox="0.00 0.00 470.00 283.00" xmlns="http://www.w3.org/2000/svg" xmlns:xlink="http://www.w3.org/1999/xlink">
<g id="graph0" class="graph" transform="scale(1 1) rotate(0) translate(4 279)">
<title>BBBFE\nLO\nscan</title>
<polygon fill="white" stroke="white" points="-4,5 -4,-279 467,-279 467,5 -4,5"/>
<g id="clust1" class="cluster"><title>cluster_0</title>
<polygon fill="none" stroke="black" points="176,-102 176,-267 454,-267 454,-102 176,-102"/>
<text text-anchor="middle" x="315" y="-251.8" font-family="Times,serif" font-size="14.00">Colour codes</text>
</g>
<!-- BBBFE\nLO\nscan -->
<g id="node1" class="node"><title>BBBFE\nLO\nscan</title>
<g id="a_node1"><a xlink:href="http://www.cs.diamond.ac.uk/diagnostics_docs/diagnostics_rep_scan/html_code/Root&gt;rep4&gt;Multi-bunch-feedback-applications&gt;BBBFE.html#BBBFE_LO_scan" xlink:title="BBBFE\nLO\nscan" target="_top">
<ellipse fill="#ca5c48" stroke="black" cx="82" cy="-218" rx="41.5782" ry="37.4533"/>
<text text-anchor="middle" x="82" y="-229.3" font-family="Times,serif" font-size="14.00">BBBFE</text>
<text text-anchor="middle" x="82" y="-214.3" font-family="Times,serif" font-size="14.00">LO</text>
<text text-anchor="middle" x="82" y="-199.3" font-family="Times,serif" font-size="14.00">scan</text>
</a>
</g>
</g>
<!-- mbf\nsystem\nconfig -->
<g id="node2" class="node"><title>mbf\nsystem\nconfig</title>
<g id="a_node2"><a xlink:href="http://www.cs.diamond.ac.uk/diagnostics_docs/diagnostics_rep_scan/html_code/Root&gt;rep4&gt;Multi-bunch-feedback-applications&gt;Common.html#mbf_system_config" xlink:title="mbf\nsystem\nconfig" target="_top">
<ellipse fill="#dcaa3f" stroke="black" cx="38" cy="-128" rx="38.2761" ry="37.4533"/>
<text text-anchor="middle" x="38" y="-139.3" font-family="Times,serif" font-size="14.00">mbf</text>
<text text-anchor="middle" x="38" y="-124.3" font-family="Times,serif" font-size="14.00">system</text>
<text text-anchor="middle" x="38" y="-109.3" font-family="Times,serif" font-size="14.00">config</text>
</a>
</g>
</g>
<!-- BBBFE\nLO\nscan&#45;&gt;mbf\nsystem\nconfig -->
<g id="edge1" class="edge"><title>BBBFE\nLO\nscan&#45;&gt;mbf\nsystem\nconfig</title>
<path fill="none" stroke="black" d="M65.24,-183.48C63.1901,-179.38 61.0758,-175.152 58.974,-170.948"/>
<polygon fill="black" stroke="black" points="62.0253,-169.224 54.4226,-161.845 55.7643,-172.355 62.0253,-169.224"/>
</g>
<!-- save\nto\narchive -->
<g id="node3" class="node"><title>save\nto\narchive</title>
<g id="a_node3"><a xlink:href="http://www.cs.diamond.ac.uk/diagnostics_docs/diagnostics_rep_scan/html_code/Root&gt;rep4&gt;Multi-bunch-feedback-applications&gt;Common.html#save_to_archive" xlink:title="save\nto\narchive" target="_top">
<ellipse fill="#dcaa3f" stroke="black" cx="129" cy="-128" rx="38.3379" ry="37.4533"/>
<text text-anchor="middle" x="129" y="-139.3" font-family="Times,serif" font-size="14.00">save</text>
<text text-anchor="middle" x="129" y="-124.3" font-family="Times,serif" font-size="14.00">to</text>
<text text-anchor="middle" x="129" y="-109.3" font-family="Times,serif" font-size="14.00">archive</text>
</a>
</g>
</g>
<!-- BBBFE\nLO\nscan&#45;&gt;save\nto\narchive -->
<g id="edge2" class="edge"><title>BBBFE\nLO\nscan&#45;&gt;save\nto\narchive</title>
<path fill="none" stroke="black" d="M99.6348,-183.982C101.955,-179.638 104.356,-175.142 106.74,-170.678"/>
<polygon fill="black" stroke="black" points="109.955,-172.088 111.579,-161.618 103.78,-168.79 109.955,-172.088"/>
</g>
<!-- construct\ndatastamped\nfilename -->
<g id="node4" class="node"><title>construct\ndatastamped\nfilename</title>
<g id="a_node4"><a xlink:href="http://www.cs.diamond.ac.uk/diagnostics_docs/diagnostics_rep_scan/html_code/Root&gt;rep4&gt;Multi-bunch-feedback-applications&gt;Common.html#construct_datastamped_filename" xlink:title="construct\ndatastamped\nfilename" target="_top">
<ellipse fill="#dcaa3f" stroke="black" cx="79" cy="-38" rx="60.1562" ry="37.4533"/>
<text text-anchor="middle" x="79" y="-49.3" font-family="Times,serif" font-size="14.00">construct</text>
<text text-anchor="middle" x="79" y="-34.3" font-family="Times,serif" font-size="14.00">datastamped</text>
<text text-anchor="middle" x="79" y="-19.3" font-family="Times,serif" font-size="14.00">filename</text>
</a>
</g>
</g>
<!-- save\nto\narchive&#45;&gt;construct\ndatastamped\nfilename -->
<g id="edge3" class="edge"><title>save\nto\narchive&#45;&gt;construct\ndatastamped\nfilename</title>
<path fill="none" stroke="black" d="M110.666,-94.7317C108.41,-90.7615 106.076,-86.6538 103.745,-82.5513"/>
<polygon fill="black" stroke="black" points="106.662,-80.5994 98.6783,-73.6339 100.575,-84.0575 106.662,-80.5994"/>
</g>
<!-- tree\ngen -->
<g id="node5" class="node"><title>tree\ngen</title>
<g id="a_node5"><a xlink:href="http://www.cs.diamond.ac.uk/diagnostics_docs/diagnostics_rep_scan/html_code/Root&gt;rep4&gt;Multi-bunch-feedback-applications&gt;Common.html#tree_gen" xlink:title="tree\ngen" target="_top">
<ellipse fill="#dcaa3f" stroke="black" cx="180" cy="-38" rx="27" ry="26.7407"/>
<text text-anchor="middle" x="180" y="-41.8" font-family="Times,serif" font-size="14.00">tree</text>
<text text-anchor="middle" x="180" y="-26.8" font-family="Times,serif" font-size="14.00">gen</text>
</a>
</g>
</g>
<!-- save\nto\narchive&#45;&gt;tree\ngen -->
<g id="edge4" class="edge"><title>save\nto\narchive&#45;&gt;tree\ngen</title>
<path fill="none" stroke="black" d="M147.701,-94.7317C152.278,-86.8342 157.17,-78.3927 161.727,-70.5302"/>
<polygon fill="black" stroke="black" points="164.897,-72.0406 166.883,-61.6336 158.84,-68.5306 164.897,-72.0406"/>
</g>
<!-- Multi&#45;bunch&#45;feedback&#45;applications/BBBFE -->
<g id="node6" class="node"><title>Multi&#45;bunch&#45;feedback&#45;applications/BBBFE</title>
<polygon fill="#ca5c48" stroke="black" points="442,-236 188,-236 188,-200 442,-200 442,-236"/>
<text text-anchor="middle" x="315" y="-214.3" font-family="Times,serif" font-size="14.00">Multi&#45;bunch&#45;feedback&#45;applications/BBBFE</text>
</g>
<!-- Multi&#45;bunch&#45;feedback&#45;applications/Common -->
<g id="node7" class="node"><title>Multi&#45;bunch&#45;feedback&#45;applications/Common</title>
<polygon fill="#dcaa3f" stroke="black" points="446,-146 184,-146 184,-110 446,-110 446,-146"/>
<text text-anchor="middle" x="315" y="-124.3" font-family="Times,serif" font-size="14.00">Multi&#45;bunch&#45;feedback&#45;applications/Common</text>
</g>
<!-- Multi&#45;bunch&#45;feedback&#45;applications/BBBFE&#45;&gt;Multi&#45;bunch&#45;feedback&#45;applications/Common -->
<g id="edge5" class="edge"><title>Multi&#45;bunch&#45;feedback&#45;applications/BBBFE&#45;&gt;Multi&#45;bunch&#45;feedback&#45;applications/Common</title>
<path fill="none" stroke="white" d="M315,-189.395C315,-178.857 315,-166.856 315,-156.343"/>
<polygon fill="white" stroke="white" points="311.5,-189.614 315,-199.614 318.5,-189.614 311.5,-189.614"/>
<polygon fill="white" stroke="white" points="318.5,-156.05 315,-146.05 311.5,-156.05 318.5,-156.05"/>
</g>
</g>
</svg>
