<?xml version="1.0" encoding="UTF-8" standalone="no"?>
<!DOCTYPE svg PUBLIC "-//W3C//DTD SVG 1.1//EN"
 "http://www.w3.org/Graphics/SVG/1.1/DTD/svg11.dtd">
<!-- Generated by graphviz version 2.30.1 (20200304.1809)
 -->
<!-- Title: BBBFE\nsystem\nphase\nscan Pages: 1 -->
<svg width="470pt" height="293pt"
 viewBox="0.00 0.00 470.00 293.00" xmlns="http://www.w3.org/2000/svg" xmlns:xlink="http://www.w3.org/1999/xlink">
<g id="graph0" class="graph" transform="scale(1 1) rotate(0) translate(4 289)">
<title>BBBFE\nsystem\nphase\nscan</title>
<polygon fill="white" stroke="white" points="-4,5 -4,-289 467,-289 467,5 -4,5"/>
<g id="clust1" class="cluster"><title>cluster_0</title>
<polygon fill="none" stroke="black" points="176,-102 176,-277 454,-277 454,-102 176,-102"/>
<text text-anchor="middle" x="315" y="-261.8" font-family="Times,serif" font-size="14.00">Colour codes</text>
</g>
<!-- BBBFE\nsystem\nphase\nscan -->
<g id="node1" class="node"><title>BBBFE\nsystem\nphase\nscan</title>
<g id="a_node1"><a xlink:href="http://www.cs.diamond.ac.uk/diagnostics_docs/diagnostics_rep_scan/html_code/Root&gt;rep4&gt;Multi-bunch-feedback-applications&gt;BBBFE.html#BBBFE_system_phase_scan" xlink:title="BBBFE\nsystem\nphase\nscan" target="_top">
<ellipse fill="#ca5c48" stroke="black" cx="82" cy="-228" rx="41.5782" ry="48.1667"/>
<text text-anchor="middle" x="82" y="-246.8" font-family="Times,serif" font-size="14.00">BBBFE</text>
<text text-anchor="middle" x="82" y="-231.8" font-family="Times,serif" font-size="14.00">system</text>
<text text-anchor="middle" x="82" y="-216.8" font-family="Times,serif" font-size="14.00">phase</text>
<text text-anchor="middle" x="82" y="-201.8" font-family="Times,serif" font-size="14.00">scan</text>
</a>
</g>
</g>
<!-- mbf\nsystem\nconfig -->
<g id="node2" class="node"><title>mbf\nsystem\nconfig</title>
<g id="a_node2"><a xlink:href="http://www.cs.diamond.ac.uk/diagnostics_docs/diagnostics_rep_scan/html_code/Root&gt;rep4&gt;Multi-bunch-feedback-applications&gt;Common.html#mbf_system_config" xlink:title="mbf\nsystem\nconfig" target="_top">
<ellipse fill="#dcaa3f" stroke="black" cx="38" cy="-128" rx="38.2761" ry="37.4533"/>
<text text-anchor="middle" x="38" y="-139.3" font-family="Times,serif" font-size="14.00">mbf</text>
<text text-anchor="middle" x="38" y="-124.3" font-family="Times,serif" font-size="14.00">system</text>
<text text-anchor="middle" x="38" y="-109.3" font-family="Times,serif" font-size="14.00">config</text>
</a>
</g>
</g>
<!-- BBBFE\nsystem\nphase\nscan&#45;&gt;mbf\nsystem\nconfig -->
<g id="edge1" class="edge"><title>BBBFE\nsystem\nphase\nscan&#45;&gt;mbf\nsystem\nconfig</title>
<path fill="none" stroke="black" d="M63.2124,-185.155C61.2679,-180.824 59.2892,-176.417 57.3387,-172.073"/>
<polygon fill="black" stroke="black" points="60.4274,-170.407 53.1385,-162.717 54.0415,-173.274 60.4274,-170.407"/>
</g>
<!-- save\nto\narchive -->
<g id="node3" class="node"><title>save\nto\narchive</title>
<g id="a_node3"><a xlink:href="http://www.cs.diamond.ac.uk/diagnostics_docs/diagnostics_rep_scan/html_code/Root&gt;rep4&gt;Multi-bunch-feedback-applications&gt;Common.html#save_to_archive" xlink:title="save\nto\narchive" target="_top">
<ellipse fill="#dcaa3f" stroke="black" cx="129" cy="-128" rx="38.3379" ry="37.4533"/>
<text text-anchor="middle" x="129" y="-139.3" font-family="Times,serif" font-size="14.00">save</text>
<text text-anchor="middle" x="129" y="-124.3" font-family="Times,serif" font-size="14.00">to</text>
<text text-anchor="middle" x="129" y="-109.3" font-family="Times,serif" font-size="14.00">archive</text>
</a>
</g>
</g>
<!-- BBBFE\nsystem\nphase\nscan&#45;&gt;save\nto\narchive -->
<g id="edge2" class="edge"><title>BBBFE\nsystem\nphase\nscan&#45;&gt;save\nto\narchive</title>
<path fill="none" stroke="black" d="M101.796,-185.723C104.089,-180.942 106.431,-176.06 108.73,-171.265"/>
<polygon fill="black" stroke="black" points="111.908,-172.733 113.076,-162.203 105.596,-169.706 111.908,-172.733"/>
</g>
<!-- construct\ndatastamped\nfilename -->
<g id="node4" class="node"><title>construct\ndatastamped\nfilename</title>
<g id="a_node4"><a xlink:href="http://www.cs.diamond.ac.uk/diagnostics_docs/diagnostics_rep_scan/html_code/Root&gt;rep4&gt;Multi-bunch-feedback-applications&gt;Common.html#construct_datastamped_filename" xlink:title="construct\ndatastamped\nfilename" target="_top">
<ellipse fill="#dcaa3f" stroke="black" cx="79" cy="-38" rx="60.1562" ry="37.4533"/>
<text text-anchor="middle" x="79" y="-49.3" font-family="Times,serif" font-size="14.00">construct</text>
<text text-anchor="middle" x="79" y="-34.3" font-family="Times,serif" font-size="14.00">datastamped</text>
<text text-anchor="middle" x="79" y="-19.3" font-family="Times,serif" font-size="14.00">filename</text>
</a>
</g>
</g>
<!-- save\nto\narchive&#45;&gt;construct\ndatastamped\nfilename -->
<g id="edge3" class="edge"><title>save\nto\narchive&#45;&gt;construct\ndatastamped\nfilename</title>
<path fill="none" stroke="black" d="M110.666,-94.7317C108.41,-90.7615 106.076,-86.6538 103.745,-82.5513"/>
<polygon fill="black" stroke="black" points="106.662,-80.5994 98.6783,-73.6339 100.575,-84.0575 106.662,-80.5994"/>
</g>
<!-- tree\ngen -->
<g id="node5" class="node"><title>tree\ngen</title>
<g id="a_node5"><a xlink:href="http://www.cs.diamond.ac.uk/diagnostics_docs/diagnostics_rep_scan/html_code/Root&gt;rep4&gt;Multi-bunch-feedback-applications&gt;Common.html#tree_gen" xlink:title="tree\ngen" target="_top">
<ellipse fill="#dcaa3f" stroke="black" cx="180" cy="-38" rx="27" ry="26.7407"/>
<text text-anchor="middle" x="180" y="-41.8" font-family="Times,serif" font-size="14.00">tree</text>
<text text-anchor="middle" x="180" y="-26.8" font-family="Times,serif" font-size="14.00">gen</text>
</a>
</g>
</g>
<!-- save\nto\narchive&#45;&gt;tree\ngen -->
<g id="edge4" class="edge"><title>save\nto\narchive&#45;&gt;tree\ngen</title>
<path fill="none" stroke="black" d="M147.701,-94.7317C152.278,-86.8342 157.17,-78.3927 161.727,-70.5302"/>
<polygon fill="black" stroke="black" points="164.897,-72.0406 166.883,-61.6336 158.84,-68.5306 164.897,-72.0406"/>
</g>
<!-- Multi&#45;bunch&#45;feedback&#45;applications/BBBFE -->
<g id="node6" class="node"><title>Multi&#45;bunch&#45;feedback&#45;applications/BBBFE</title>
<polygon fill="#ca5c48" stroke="black" points="442,-246 188,-246 188,-210 442,-210 442,-246"/>
<text text-anchor="middle" x="315" y="-224.3" font-family="Times,serif" font-size="14.00">Multi&#45;bunch&#45;feedback&#45;applications/BBBFE</text>
</g>
<!-- Multi&#45;bunch&#45;feedback&#45;applications/Common -->
<g id="node7" class="node"><title>Multi&#45;bunch&#45;feedback&#45;applications/Common</title>
<polygon fill="#dcaa3f" stroke="black" points="446,-146 184,-146 184,-110 446,-110 446,-146"/>
<text text-anchor="middle" x="315" y="-124.3" font-family="Times,serif" font-size="14.00">Multi&#45;bunch&#45;feedback&#45;applications/Common</text>
</g>
<!-- Multi&#45;bunch&#45;feedback&#45;applications/BBBFE&#45;&gt;Multi&#45;bunch&#45;feedback&#45;applications/Common -->
<g id="edge5" class="edge"><title>Multi&#45;bunch&#45;feedback&#45;applications/BBBFE&#45;&gt;Multi&#45;bunch&#45;feedback&#45;applications/Common</title>
<path fill="none" stroke="white" d="M315,-199.923C315,-186.372 315,-170.003 315,-156.406"/>
<polygon fill="white" stroke="white" points="311.5,-199.93 315,-209.93 318.5,-199.93 311.5,-199.93"/>
<polygon fill="white" stroke="white" points="318.5,-156.203 315,-146.203 311.5,-156.204 318.5,-156.203"/>
</g>
</g>
</svg>
