<?xml version="1.0" encoding="UTF-8" standalone="no"?>
<!DOCTYPE svg PUBLIC "-//W3C//DTD SVG 1.1//EN"
 "http://www.w3.org/Graphics/SVG/1.1/DTD/svg11.dtd">
<!-- Generated by graphviz version 2.30.1 (20200304.1809)
 -->
<!-- Title: growdamp\nall Pages: 1 -->
<svg width="1091pt" height="512pt"
 viewBox="0.00 0.00 1091.00 512.00" xmlns="http://www.w3.org/2000/svg" xmlns:xlink="http://www.w3.org/1999/xlink">
<g id="graph0" class="graph" transform="scale(1 1) rotate(0) translate(4 508)">
<title>growdamp\nall</title>
<polygon fill="white" stroke="white" points="-4,5 -4,-508 1088,-508 1088,5 -4,5"/>
<g id="clust1" class="cluster"><title>cluster_0</title>
<polygon fill="none" stroke="black" points="787,-332 787,-496 1075,-496 1075,-332 787,-332"/>
<text text-anchor="middle" x="931" y="-480.8" font-family="Times,serif" font-size="14.00">Colour codes</text>
</g>
<!-- growdamp\nall -->
<g id="node1" class="node"><title>growdamp\nall</title>
<g id="a_node1"><a xlink:href="http://www.cs.diamond.ac.uk/diagnostics_docs/diagnostics_rep_scan/html_code/Root&gt;rep4&gt;Multi-bunch-feedback-applications&gt;Growdamp.html#growdamp_all" xlink:title="growdamp\nall" target="_top">
<ellipse fill="#dec2cf" stroke="black" cx="468" cy="-447" rx="51.99" ry="26.7407"/>
<text text-anchor="middle" x="468" y="-450.8" font-family="Times,serif" font-size="14.00">growdamp</text>
<text text-anchor="middle" x="468" y="-435.8" font-family="Times,serif" font-size="14.00">all</text>
</a>
</g>
</g>
<!-- get\nall\ntunes -->
<g id="node2" class="node"><title>get\nall\ntunes</title>
<g id="a_node2"><a xlink:href="http://www.cs.diamond.ac.uk/diagnostics_docs/diagnostics_rep_scan/html_code/Root&gt;rep4&gt;Multi-bunch-feedback-applications&gt;Common.html#get_all_tunes" xlink:title="get\nall\ntunes" target="_top">
<ellipse fill="#dcaa3f" stroke="black" cx="629" cy="-358" rx="31.233" ry="37.4533"/>
<text text-anchor="middle" x="629" y="-369.3" font-family="Times,serif" font-size="14.00">get</text>
<text text-anchor="middle" x="629" y="-354.3" font-family="Times,serif" font-size="14.00">all</text>
<text text-anchor="middle" x="629" y="-339.3" font-family="Times,serif" font-size="14.00">tunes</text>
</a>
</g>
</g>
<!-- growdamp\nall&#45;&gt;get\nall\ntunes -->
<g id="edge1" class="edge"><title>growdamp\nall&#45;&gt;get\nall\ntunes</title>
<path fill="none" stroke="black" d="M516.285,-436.792C539.932,-430.696 567.978,-420.985 590,-406 594.38,-403.019 598.537,-399.412 602.389,-395.535"/>
<polygon fill="black" stroke="black" points="605.251,-397.591 609.403,-387.844 600.079,-392.874 605.251,-397.591"/>
</g>
<!-- mbf\ngrowdamp\nanalysis -->
<g id="node3" class="node"><title>mbf\ngrowdamp\nanalysis</title>
<g id="a_node3"><a xlink:href="http://www.cs.diamond.ac.uk/diagnostics_docs/diagnostics_rep_scan/html_code/Root&gt;rep4&gt;Multi-bunch-feedback-applications&gt;Growdamp.html#mbf_growdamp_analysis" xlink:title="mbf\ngrowdamp\nanalysis" target="_top">
<ellipse fill="#dec2cf" stroke="black" cx="727" cy="-358" rx="51.99" ry="37.4533"/>
<text text-anchor="middle" x="727" y="-369.3" font-family="Times,serif" font-size="14.00">mbf</text>
<text text-anchor="middle" x="727" y="-354.3" font-family="Times,serif" font-size="14.00">growdamp</text>
<text text-anchor="middle" x="727" y="-339.3" font-family="Times,serif" font-size="14.00">analysis</text>
</a>
</g>
</g>
<!-- growdamp\nall&#45;&gt;mbf\ngrowdamp\nanalysis -->
<g id="edge2" class="edge"><title>growdamp\nall&#45;&gt;mbf\ngrowdamp\nanalysis</title>
<path fill="none" stroke="black" d="M519.495,-442.248C560.915,-437.703 619.784,-427.736 667,-406 673.859,-402.843 680.641,-398.758 687.04,-394.315"/>
<polygon fill="black" stroke="black" points="689.52,-396.836 695.499,-388.09 685.371,-391.198 689.52,-396.836"/>
</g>
<!-- mbf\ngrowdamp\ncapture -->
<g id="node10" class="node"><title>mbf\ngrowdamp\ncapture</title>
<g id="a_node10"><a xlink:href="http://www.cs.diamond.ac.uk/diagnostics_docs/diagnostics_rep_scan/html_code/Root&gt;rep4&gt;Multi-bunch-feedback-applications&gt;Growdamp.html#mbf_growdamp_capture" xlink:title="mbf\ngrowdamp\ncapture" target="_top">
<ellipse fill="#dec2cf" stroke="black" cx="215" cy="-258" rx="51.99" ry="37.4533"/>
<text text-anchor="middle" x="215" y="-269.3" font-family="Times,serif" font-size="14.00">mbf</text>
<text text-anchor="middle" x="215" y="-254.3" font-family="Times,serif" font-size="14.00">growdamp</text>
<text text-anchor="middle" x="215" y="-239.3" font-family="Times,serif" font-size="14.00">capture</text>
</a>
</g>
</g>
<!-- growdamp\nall&#45;&gt;mbf\ngrowdamp\ncapture -->
<g id="edge9" class="edge"><title>growdamp\nall&#45;&gt;mbf\ngrowdamp\ncapture</title>
<path fill="none" stroke="black" d="M415.901,-444.398C353.607,-441.31 254.64,-432.292 230,-406 205.306,-379.652 203.234,-337.834 206.371,-305.525"/>
<polygon fill="black" stroke="black" points="209.87,-305.739 207.551,-295.401 202.917,-304.928 209.87,-305.739"/>
</g>
<!-- mbf\ngrowdamp\nplot\nsummary -->
<g id="node17" class="node"><title>mbf\ngrowdamp\nplot\nsummary</title>
<g id="a_node17"><a xlink:href="http://www.cs.diamond.ac.uk/diagnostics_docs/diagnostics_rep_scan/html_code/Root&gt;rep4&gt;Multi-bunch-feedback-applications&gt;Growdamp.html#mbf_growdamp_plot_summary" xlink:title="mbf\ngrowdamp\nplot\nsummary" target="_top">
<ellipse fill="#dec2cf" stroke="black" cx="289" cy="-358" rx="51.99" ry="48.1667"/>
<text text-anchor="middle" x="289" y="-376.8" font-family="Times,serif" font-size="14.00">mbf</text>
<text text-anchor="middle" x="289" y="-361.8" font-family="Times,serif" font-size="14.00">growdamp</text>
<text text-anchor="middle" x="289" y="-346.8" font-family="Times,serif" font-size="14.00">plot</text>
<text text-anchor="middle" x="289" y="-331.8" font-family="Times,serif" font-size="14.00">summary</text>
</a>
</g>
</g>
<!-- growdamp\nall&#45;&gt;mbf\ngrowdamp\nplot\nsummary -->
<g id="edge17" class="edge"><title>growdamp\nall&#45;&gt;mbf\ngrowdamp\nplot\nsummary</title>
<path fill="none" stroke="black" d="M421.851,-434.468C399.15,-427.815 371.831,-418.307 349,-406 344.268,-403.449 339.527,-400.525 334.899,-397.409"/>
<polygon fill="black" stroke="black" points="336.905,-394.541 326.717,-391.633 332.868,-400.26 336.905,-394.541"/>
</g>
<!-- mbf\ngrowdamp\nsetup -->
<g id="node18" class="node"><title>mbf\ngrowdamp\nsetup</title>
<g id="a_node18"><a xlink:href="http://www.cs.diamond.ac.uk/diagnostics_docs/diagnostics_rep_scan/html_code/Root&gt;rep4&gt;Multi-bunch-feedback-applications&gt;Growdamp.html#mbf_growdamp_setup" xlink:title="mbf\ngrowdamp\nsetup" target="_top">
<ellipse fill="#dec2cf" stroke="black" cx="408" cy="-358" rx="51.99" ry="37.4533"/>
<text text-anchor="middle" x="408" y="-369.3" font-family="Times,serif" font-size="14.00">mbf</text>
<text text-anchor="middle" x="408" y="-354.3" font-family="Times,serif" font-size="14.00">growdamp</text>
<text text-anchor="middle" x="408" y="-339.3" font-family="Times,serif" font-size="14.00">setup</text>
</a>
</g>
</g>
<!-- growdamp\nall&#45;&gt;mbf\ngrowdamp\nsetup -->
<g id="edge18" class="edge"><title>growdamp\nall&#45;&gt;mbf\ngrowdamp\nsetup</title>
<path fill="none" stroke="black" d="M450.967,-421.302C446.435,-414.73 441.414,-407.45 436.45,-400.252"/>
<polygon fill="black" stroke="black" points="439.239,-398.132 430.681,-391.887 433.477,-402.106 439.239,-398.132"/>
</g>
<!-- setup\noperational\nmode -->
<g id="node21" class="node"><title>setup\noperational\nmode</title>
<g id="a_node21"><a xlink:href="http://www.cs.diamond.ac.uk/diagnostics_docs/diagnostics_rep_scan/html_code/Root&gt;rep4&gt;Multi-bunch-feedback-applications&gt;Common.html#setup_operational_mode" xlink:title="setup\noperational\nmode" target="_top">
<ellipse fill="#dcaa3f" stroke="black" cx="529" cy="-358" rx="54.1711" ry="37.4533"/>
<text text-anchor="middle" x="529" y="-369.3" font-family="Times,serif" font-size="14.00">setup</text>
<text text-anchor="middle" x="529" y="-354.3" font-family="Times,serif" font-size="14.00">operational</text>
<text text-anchor="middle" x="529" y="-339.3" font-family="Times,serif" font-size="14.00">mode</text>
</a>
</g>
</g>
<!-- growdamp\nall&#45;&gt;setup\noperational\nmode -->
<g id="edge27" class="edge"><title>growdamp\nall&#45;&gt;setup\noperational\nmode</title>
<path fill="none" stroke="black" d="M485.317,-421.302C489.874,-414.803 494.917,-407.61 499.91,-400.489"/>
<polygon fill="black" stroke="black" points="502.84,-402.406 505.716,-392.209 497.109,-398.388 502.84,-402.406"/>
</g>
<!-- get\ndamping -->
<g id="node4" class="node"><title>get\ndamping</title>
<g id="a_node4"><a xlink:href="http://www.cs.diamond.ac.uk/diagnostics_docs/diagnostics_rep_scan/html_code/Root&gt;rep4&gt;Multi-bunch-feedback-applications&gt;Growdamp.html#get_damping" xlink:title="get\ndamping" target="_top">
<ellipse fill="#dec2cf" stroke="black" cx="727" cy="-258" rx="45.4433" ry="26.7407"/>
<text text-anchor="middle" x="727" y="-261.8" font-family="Times,serif" font-size="14.00">get</text>
<text text-anchor="middle" x="727" y="-246.8" font-family="Times,serif" font-size="14.00">damping</text>
</a>
</g>
</g>
<!-- mbf\ngrowdamp\nanalysis&#45;&gt;get\ndamping -->
<g id="edge3" class="edge"><title>mbf\ngrowdamp\nanalysis&#45;&gt;get\ndamping</title>
<path fill="none" stroke="black" d="M727,-320.508C727,-312.243 727,-303.47 727,-295.216"/>
<polygon fill="black" stroke="black" points="730.5,-295.117 727,-285.117 723.5,-295.117 730.5,-295.117"/>
</g>
<!-- mbf\ngrowdamp\nadvanced\nfitting -->
<g id="node5" class="node"><title>mbf\ngrowdamp\nadvanced\nfitting</title>
<g id="a_node5"><a xlink:href="http://www.cs.diamond.ac.uk/diagnostics_docs/diagnostics_rep_scan/html_code/Root&gt;rep4&gt;Multi-bunch-feedback-applications&gt;Growdamp.html#mbf_growdamp_advanced_fitting" xlink:title="mbf\ngrowdamp\nadvanced\nfitting" target="_top">
<ellipse fill="#dec2cf" stroke="black" cx="836" cy="-158" rx="51.99" ry="48.1667"/>
<text text-anchor="middle" x="836" y="-176.8" font-family="Times,serif" font-size="14.00">mbf</text>
<text text-anchor="middle" x="836" y="-161.8" font-family="Times,serif" font-size="14.00">growdamp</text>
<text text-anchor="middle" x="836" y="-146.8" font-family="Times,serif" font-size="14.00">advanced</text>
<text text-anchor="middle" x="836" y="-131.8" font-family="Times,serif" font-size="14.00">fitting</text>
</a>
</g>
</g>
<!-- get\ndamping&#45;&gt;mbf\ngrowdamp\nadvanced\nfitting -->
<g id="edge4" class="edge"><title>get\ndamping&#45;&gt;mbf\ngrowdamp\nadvanced\nfitting</title>
<path fill="none" stroke="black" d="M751.462,-235.007C763.325,-224.341 777.949,-211.193 791.68,-198.848"/>
<polygon fill="black" stroke="black" points="794.096,-201.382 799.193,-192.093 789.416,-196.176 794.096,-201.382"/>
</g>
<!-- mbf\ngrowdamp\nbasic\nfitting -->
<g id="node6" class="node"><title>mbf\ngrowdamp\nbasic\nfitting</title>
<g id="a_node6"><a xlink:href="http://www.cs.diamond.ac.uk/diagnostics_docs/diagnostics_rep_scan/html_code/Root&gt;rep4&gt;Multi-bunch-feedback-applications&gt;Growdamp.html#mbf_growdamp_basic_fitting" xlink:title="mbf\ngrowdamp\nbasic\nfitting" target="_top">
<ellipse fill="#dec2cf" stroke="black" cx="618" cy="-158" rx="51.99" ry="48.1667"/>
<text text-anchor="middle" x="618" y="-176.8" font-family="Times,serif" font-size="14.00">mbf</text>
<text text-anchor="middle" x="618" y="-161.8" font-family="Times,serif" font-size="14.00">growdamp</text>
<text text-anchor="middle" x="618" y="-146.8" font-family="Times,serif" font-size="14.00">basic</text>
<text text-anchor="middle" x="618" y="-131.8" font-family="Times,serif" font-size="14.00">fitting</text>
</a>
</g>
</g>
<!-- get\ndamping&#45;&gt;mbf\ngrowdamp\nbasic\nfitting -->
<g id="edge5" class="edge"><title>get\ndamping&#45;&gt;mbf\ngrowdamp\nbasic\nfitting</title>
<path fill="none" stroke="black" d="M702.538,-235.007C690.675,-224.341 676.051,-211.193 662.32,-198.848"/>
<polygon fill="black" stroke="black" points="664.584,-196.176 654.807,-192.093 659.904,-201.382 664.584,-196.176"/>
</g>
<!-- truncate\nto\nlinear -->
<g id="node7" class="node"><title>truncate\nto\nlinear</title>
<g id="a_node7"><a xlink:href="http://www.cs.diamond.ac.uk/diagnostics_docs/diagnostics_rep_scan/html_code/Root&gt;rep4&gt;Multi-bunch-feedback-applications&gt;Growdamp.html#truncate_to_linear" xlink:title="truncate\nto\nlinear" target="_top">
<ellipse fill="#dec2cf" stroke="black" cx="727" cy="-158" rx="42.1401" ry="37.4533"/>
<text text-anchor="middle" x="727" y="-169.3" font-family="Times,serif" font-size="14.00">truncate</text>
<text text-anchor="middle" x="727" y="-154.3" font-family="Times,serif" font-size="14.00">to</text>
<text text-anchor="middle" x="727" y="-139.3" font-family="Times,serif" font-size="14.00">linear</text>
</a>
</g>
</g>
<!-- get\ndamping&#45;&gt;truncate\nto\nlinear -->
<g id="edge6" class="edge"><title>get\ndamping&#45;&gt;truncate\nto\nlinear</title>
<path fill="none" stroke="black" d="M727,-230.995C727,-223.251 727,-214.517 727,-205.87"/>
<polygon fill="black" stroke="black" points="730.5,-205.826 727,-195.826 723.5,-205.826 730.5,-205.826"/>
</g>
<!-- find\nend\ntrunction\npoint -->
<g id="node8" class="node"><title>find\nend\ntrunction\npoint</title>
<g id="a_node8"><a xlink:href="http://www.cs.diamond.ac.uk/diagnostics_docs/diagnostics_rep_scan/html_code/Root&gt;rep4&gt;Multi-bunch-feedback-applications&gt;Growdamp.html#find_end_trunction_point" xlink:title="find\nend\ntrunction\npoint" target="_top">
<ellipse fill="#dec2cf" stroke="black" cx="674" cy="-48" rx="45.4433" ry="48.1667"/>
<text text-anchor="middle" x="674" y="-66.8" font-family="Times,serif" font-size="14.00">find</text>
<text text-anchor="middle" x="674" y="-51.8" font-family="Times,serif" font-size="14.00">end</text>
<text text-anchor="middle" x="674" y="-36.8" font-family="Times,serif" font-size="14.00">trunction</text>
<text text-anchor="middle" x="674" y="-21.8" font-family="Times,serif" font-size="14.00">point</text>
</a>
</g>
</g>
<!-- truncate\nto\nlinear&#45;&gt;find\nend\ntrunction\npoint -->
<g id="edge7" class="edge"><title>truncate\nto\nlinear&#45;&gt;find\nend\ntrunction\npoint</title>
<path fill="none" stroke="black" d="M710.521,-123.42C706.895,-116.032 702.976,-108.046 699.097,-100.142"/>
<polygon fill="black" stroke="black" points="702.13,-98.3769 694.582,-90.9416 695.846,-101.461 702.13,-98.3769"/>
</g>
<!-- find\nstart\ntrunction\npoint -->
<g id="node9" class="node"><title>find\nstart\ntrunction\npoint</title>
<g id="a_node9"><a xlink:href="http://www.cs.diamond.ac.uk/diagnostics_docs/diagnostics_rep_scan/html_code/Root&gt;rep4&gt;Multi-bunch-feedback-applications&gt;Growdamp.html#find_start_trunction_point" xlink:title="find\nstart\ntrunction\npoint" target="_top">
<ellipse fill="#dec2cf" stroke="black" cx="780" cy="-48" rx="45.4433" ry="48.1667"/>
<text text-anchor="middle" x="780" y="-66.8" font-family="Times,serif" font-size="14.00">find</text>
<text text-anchor="middle" x="780" y="-51.8" font-family="Times,serif" font-size="14.00">start</text>
<text text-anchor="middle" x="780" y="-36.8" font-family="Times,serif" font-size="14.00">trunction</text>
<text text-anchor="middle" x="780" y="-21.8" font-family="Times,serif" font-size="14.00">point</text>
</a>
</g>
</g>
<!-- truncate\nto\nlinear&#45;&gt;find\nstart\ntrunction\npoint -->
<g id="edge8" class="edge"><title>truncate\nto\nlinear&#45;&gt;find\nstart\ntrunction\npoint</title>
<path fill="none" stroke="black" d="M743.479,-123.42C747.105,-116.032 751.024,-108.046 754.903,-100.142"/>
<polygon fill="black" stroke="black" points="758.154,-101.461 759.418,-90.9416 751.87,-98.3769 758.154,-101.461"/>
</g>
<!-- machine\nenvironment -->
<g id="node11" class="node"><title>machine\nenvironment</title>
<g id="a_node11"><a xlink:href="http://www.cs.diamond.ac.uk/diagnostics_docs/diagnostics_rep_scan/html_code/Root&gt;rep4&gt;Multi-bunch-feedback-applications&gt;Common.html#machine_environment" xlink:title="machine\nenvironment" target="_top">
<ellipse fill="#dcaa3f" stroke="black" cx="253" cy="-158" rx="60.1562" ry="26.7407"/>
<text text-anchor="middle" x="253" y="-161.8" font-family="Times,serif" font-size="14.00">machine</text>
<text text-anchor="middle" x="253" y="-146.8" font-family="Times,serif" font-size="14.00">environment</text>
</a>
</g>
</g>
<!-- mbf\ngrowdamp\ncapture&#45;&gt;machine\nenvironment -->
<g id="edge10" class="edge"><title>mbf\ngrowdamp\ncapture&#45;&gt;machine\nenvironment</title>
<path fill="none" stroke="black" d="M228.719,-221.62C232.185,-212.681 235.905,-203.086 239.367,-194.159"/>
<polygon fill="black" stroke="black" points="242.645,-195.385 242.997,-184.796 236.119,-192.855 242.645,-195.385"/>
</g>
<!-- mbf\nget\nthen\nput -->
<g id="node12" class="node"><title>mbf\nget\nthen\nput</title>
<g id="a_node12"><a xlink:href="http://www.cs.diamond.ac.uk/diagnostics_docs/diagnostics_rep_scan/html_code/Root&gt;rep4&gt;Multi-bunch-feedback-applications&gt;Common.html#mbf_get_then_put" xlink:title="mbf\nget\nthen\nput" target="_top">
<ellipse fill="#dcaa3f" stroke="black" cx="385" cy="-158" rx="27.9291" ry="48.1667"/>
<text text-anchor="middle" x="385" y="-176.8" font-family="Times,serif" font-size="14.00">mbf</text>
<text text-anchor="middle" x="385" y="-161.8" font-family="Times,serif" font-size="14.00">get</text>
<text text-anchor="middle" x="385" y="-146.8" font-family="Times,serif" font-size="14.00">then</text>
<text text-anchor="middle" x="385" y="-131.8" font-family="Times,serif" font-size="14.00">put</text>
</a>
</g>
</g>
<!-- mbf\ngrowdamp\ncapture&#45;&gt;mbf\nget\nthen\nput -->
<g id="edge11" class="edge"><title>mbf\ngrowdamp\ncapture&#45;&gt;mbf\nget\nthen\nput</title>
<path fill="none" stroke="black" d="M259.06,-237.684C278.19,-228.77 300.609,-217.6 320,-206 330.445,-199.752 341.334,-192.292 351.146,-185.176"/>
<polygon fill="black" stroke="black" points="353.483,-187.802 359.454,-179.05 349.329,-182.168 353.483,-187.802"/>
</g>
<!-- mbf\nsystem\nconfig -->
<g id="node13" class="node"><title>mbf\nsystem\nconfig</title>
<g id="a_node13"><a xlink:href="http://www.cs.diamond.ac.uk/diagnostics_docs/diagnostics_rep_scan/html_code/Root&gt;rep4&gt;Multi-bunch-feedback-applications&gt;Common.html#mbf_system_config" xlink:title="mbf\nsystem\nconfig" target="_top">
<ellipse fill="#dcaa3f" stroke="black" cx="360" cy="-48" rx="38.2761" ry="37.4533"/>
<text text-anchor="middle" x="360" y="-59.3" font-family="Times,serif" font-size="14.00">mbf</text>
<text text-anchor="middle" x="360" y="-44.3" font-family="Times,serif" font-size="14.00">system</text>
<text text-anchor="middle" x="360" y="-29.3" font-family="Times,serif" font-size="14.00">config</text>
</a>
</g>
</g>
<!-- mbf\ngrowdamp\ncapture&#45;&gt;mbf\nsystem\nconfig -->
<g id="edge13" class="edge"><title>mbf\ngrowdamp\ncapture&#45;&gt;mbf\nsystem\nconfig</title>
<path fill="none" stroke="black" d="M192.92,-223.763C190.066,-218.047 187.588,-212.007 186,-206 175.092,-164.751 161.32,-144.805 186,-110 214.25,-70.1604 270.63,-56.1413 311.577,-51.3164"/>
<polygon fill="black" stroke="black" points="312.04,-54.7872 321.628,-50.2777 311.321,-47.8243 312.04,-54.7872"/>
</g>
<!-- save\nto\narchive -->
<g id="node14" class="node"><title>save\nto\narchive</title>
<g id="a_node14"><a xlink:href="http://www.cs.diamond.ac.uk/diagnostics_docs/diagnostics_rep_scan/html_code/Root&gt;rep4&gt;Multi-bunch-feedback-applications&gt;Common.html#save_to_archive" xlink:title="save\nto\narchive" target="_top">
<ellipse fill="#dcaa3f" stroke="black" cx="110" cy="-158" rx="38.3379" ry="37.4533"/>
<text text-anchor="middle" x="110" y="-169.3" font-family="Times,serif" font-size="14.00">save</text>
<text text-anchor="middle" x="110" y="-154.3" font-family="Times,serif" font-size="14.00">to</text>
<text text-anchor="middle" x="110" y="-139.3" font-family="Times,serif" font-size="14.00">archive</text>
</a>
</g>
</g>
<!-- mbf\ngrowdamp\ncapture&#45;&gt;save\nto\narchive -->
<g id="edge14" class="edge"><title>mbf\ngrowdamp\ncapture&#45;&gt;save\nto\narchive</title>
<path fill="none" stroke="black" d="M183.554,-227.909C175.841,-220.756 167.615,-213.109 160,-206 155.027,-201.357 149.784,-196.446 144.64,-191.619"/>
<polygon fill="black" stroke="black" points="146.901,-188.941 137.216,-184.646 142.109,-194.043 146.901,-188.941"/>
</g>
<!-- mbf\nget\nthen\nput&#45;&gt;mbf\nsystem\nconfig -->
<g id="edge12" class="edge"><title>mbf\nget\nthen\nput&#45;&gt;mbf\nsystem\nconfig</title>
<path fill="none" stroke="black" d="M374.832,-113.072C373.429,-107.012 371.985,-100.775 370.575,-94.6837"/>
<polygon fill="black" stroke="black" points="373.912,-93.5782 368.247,-84.6251 367.092,-95.1568 373.912,-93.5782"/>
</g>
<!-- construct\ndatastamped\nfilename -->
<g id="node15" class="node"><title>construct\ndatastamped\nfilename</title>
<g id="a_node15"><a xlink:href="http://www.cs.diamond.ac.uk/diagnostics_docs/diagnostics_rep_scan/html_code/Root&gt;rep4&gt;Multi-bunch-feedback-applications&gt;Common.html#construct_datastamped_filename" xlink:title="construct\ndatastamped\nfilename" target="_top">
<ellipse fill="#dcaa3f" stroke="black" cx="60" cy="-48" rx="60.1562" ry="37.4533"/>
<text text-anchor="middle" x="60" y="-59.3" font-family="Times,serif" font-size="14.00">construct</text>
<text text-anchor="middle" x="60" y="-44.3" font-family="Times,serif" font-size="14.00">datastamped</text>
<text text-anchor="middle" x="60" y="-29.3" font-family="Times,serif" font-size="14.00">filename</text>
</a>
</g>
</g>
<!-- save\nto\narchive&#45;&gt;construct\ndatastamped\nfilename -->
<g id="edge15" class="edge"><title>save\nto\narchive&#45;&gt;construct\ndatastamped\nfilename</title>
<path fill="none" stroke="black" d="M94.4538,-123.42C90.1089,-114.035 85.3172,-103.685 80.7241,-93.764"/>
<polygon fill="black" stroke="black" points="83.7796,-92.0329 76.4022,-84.4287 77.4273,-94.9738 83.7796,-92.0329"/>
</g>
<!-- tree\ngen -->
<g id="node16" class="node"><title>tree\ngen</title>
<g id="a_node16"><a xlink:href="http://www.cs.diamond.ac.uk/diagnostics_docs/diagnostics_rep_scan/html_code/Root&gt;rep4&gt;Multi-bunch-feedback-applications&gt;Common.html#tree_gen" xlink:title="tree\ngen" target="_top">
<ellipse fill="#dcaa3f" stroke="black" cx="161" cy="-48" rx="27" ry="26.7407"/>
<text text-anchor="middle" x="161" y="-51.8" font-family="Times,serif" font-size="14.00">tree</text>
<text text-anchor="middle" x="161" y="-36.8" font-family="Times,serif" font-size="14.00">gen</text>
</a>
</g>
</g>
<!-- save\nto\narchive&#45;&gt;tree\ngen -->
<g id="edge16" class="edge"><title>save\nto\narchive&#45;&gt;tree\ngen</title>
<path fill="none" stroke="black" d="M125.718,-123.715C131.982,-110.449 139.176,-95.2165 145.426,-81.9806"/>
<polygon fill="black" stroke="black" points="148.678,-83.2892 149.784,-72.7522 142.349,-80.3002 148.678,-83.2892"/>
</g>
<!-- mbf\ngrowdamp\nsetup&#45;&gt;mbf\nget\nthen\nput -->
<g id="edge19" class="edge"><title>mbf\ngrowdamp\nsetup&#45;&gt;mbf\nget\nthen\nput</title>
<path fill="none" stroke="black" d="M403.093,-320.567C402.04,-312.482 400.957,-303.953 400,-296 396.837,-269.706 393.605,-240.537 390.955,-215.896"/>
<polygon fill="black" stroke="black" points="394.401,-215.205 389.856,-205.635 387.441,-215.95 394.401,-215.205"/>
</g>
<!-- mbf\nset\nbank -->
<g id="node19" class="node"><title>mbf\nset\nbank</title>
<g id="a_node19"><a xlink:href="http://www.cs.diamond.ac.uk/diagnostics_docs/diagnostics_rep_scan/html_code/Root&gt;rep4&gt;Multi-bunch-feedback-applications&gt;Growdamp.html#mbf_set_bank" xlink:title="mbf\nset\nbank" target="_top">
<ellipse fill="#dec2cf" stroke="black" cx="437" cy="-258" rx="30.1093" ry="37.4533"/>
<text text-anchor="middle" x="437" y="-269.3" font-family="Times,serif" font-size="14.00">mbf</text>
<text text-anchor="middle" x="437" y="-254.3" font-family="Times,serif" font-size="14.00">set</text>
<text text-anchor="middle" x="437" y="-239.3" font-family="Times,serif" font-size="14.00">bank</text>
</a>
</g>
</g>
<!-- mbf\ngrowdamp\nsetup&#45;&gt;mbf\nset\nbank -->
<g id="edge20" class="edge"><title>mbf\ngrowdamp\nsetup&#45;&gt;mbf\nset\nbank</title>
<path fill="none" stroke="black" d="M418.634,-321.065C420.353,-315.256 422.15,-309.182 423.919,-303.205"/>
<polygon fill="black" stroke="black" points="427.369,-303.881 426.85,-293.299 420.656,-301.895 427.369,-303.881"/>
</g>
<!-- mbf\nset\nstate -->
<g id="node20" class="node"><title>mbf\nset\nstate</title>
<g id="a_node20"><a xlink:href="http://www.cs.diamond.ac.uk/diagnostics_docs/diagnostics_rep_scan/html_code/Root&gt;rep4&gt;Multi-bunch-feedback-applications&gt;Growdamp.html#mbf_set_state" xlink:title="mbf\nset\nstate" target="_top">
<ellipse fill="#dec2cf" stroke="black" cx="334" cy="-258" rx="28.4872" ry="37.4533"/>
<text text-anchor="middle" x="334" y="-269.3" font-family="Times,serif" font-size="14.00">mbf</text>
<text text-anchor="middle" x="334" y="-254.3" font-family="Times,serif" font-size="14.00">set</text>
<text text-anchor="middle" x="334" y="-239.3" font-family="Times,serif" font-size="14.00">state</text>
</a>
</g>
</g>
<!-- mbf\ngrowdamp\nsetup&#45;&gt;mbf\nset\nstate -->
<g id="edge23" class="edge"><title>mbf\ngrowdamp\nsetup&#45;&gt;mbf\nset\nstate</title>
<path fill="none" stroke="black" d="M383.565,-324.64C376,-314.622 367.64,-303.551 359.975,-293.4"/>
<polygon fill="black" stroke="black" points="362.552,-291.004 353.733,-285.132 356.966,-295.222 362.552,-291.004"/>
</g>
<!-- mbf\ngrowdamp\nsetup&#45;&gt;mbf\nsystem\nconfig -->
<g id="edge26" class="edge"><title>mbf\ngrowdamp\nsetup&#45;&gt;mbf\nsystem\nconfig</title>
<path fill="none" stroke="black" d="M444.87,-331.277C456.062,-321.546 467.188,-309.515 474,-296 501.571,-241.303 507.404,-217.422 489,-159"/>
</g>
<!-- mbf\nset\nbank&#45;&gt;mbf\nget\nthen\nput -->
<g id="edge21" class="edge"><title>mbf\nset\nbank&#45;&gt;mbf\nget\nthen\nput</title>
<path fill="none" stroke="black" d="M420.69,-226.261C416.793,-218.918 412.558,-210.937 408.412,-203.123"/>
<polygon fill="black" stroke="black" points="411.39,-201.267 403.611,-194.074 405.206,-204.548 411.39,-201.267"/>
</g>
<!-- mbf\nset\nbank&#45;&gt;mbf\nsystem\nconfig -->
<g id="edge22" class="edge"><title>mbf\nset\nbank&#45;&gt;mbf\nsystem\nconfig</title>
<path fill="none" stroke="black" d="M460.828,-234.682C478.336,-215.465 497.681,-186.556 489,-159"/>
<path fill="none" stroke="black" d="M489,-157C476.125,-116.129 435.641,-86.6336 403.421,-68.8982"/>
<polygon fill="black" stroke="black" points="405.056,-65.8036 394.582,-64.2081 401.775,-71.9871 405.056,-65.8036"/>
</g>
<!-- mbf\nset\nstate&#45;&gt;mbf\nget\nthen\nput -->
<g id="edge24" class="edge"><title>mbf\nset\nstate&#45;&gt;mbf\nget\nthen\nput</title>
<path fill="none" stroke="black" d="M349.857,-226.529C353.64,-219.26 357.755,-211.353 361.793,-203.594"/>
<polygon fill="black" stroke="black" points="364.961,-205.088 366.473,-194.601 358.752,-201.856 364.961,-205.088"/>
</g>
<!-- mbf\nset\nstate&#45;&gt;mbf\nsystem\nconfig -->
<g id="edge25" class="edge"><title>mbf\nset\nstate&#45;&gt;mbf\nsystem\nconfig</title>
<path fill="none" stroke="black" d="M337.401,-220.687C340.323,-190.895 344.869,-147.646 350,-110 350.654,-105.202 351.388,-100.2 352.154,-95.2148"/>
<polygon fill="black" stroke="black" points="355.652,-95.5011 353.754,-85.0776 348.737,-94.4094 355.652,-95.5011"/>
</g>
<!-- Multi&#45;bunch&#45;feedback&#45;applications/Common -->
<g id="node22" class="node"><title>Multi&#45;bunch&#45;feedback&#45;applications/Common</title>
<polygon fill="#dcaa3f" stroke="black" points="1062,-465 800,-465 800,-429 1062,-429 1062,-465"/>
<text text-anchor="middle" x="931" y="-443.3" font-family="Times,serif" font-size="14.00">Multi&#45;bunch&#45;feedback&#45;applications/Common</text>
</g>
<!-- Multi&#45;bunch&#45;feedback&#45;applications/Growdamp -->
<g id="node23" class="node"><title>Multi&#45;bunch&#45;feedback&#45;applications/Growdamp</title>
<polygon fill="#dec2cf" stroke="black" points="1066.25,-376 795.75,-376 795.75,-340 1066.25,-340 1066.25,-376"/>
<text text-anchor="middle" x="931" y="-354.3" font-family="Times,serif" font-size="14.00">Multi&#45;bunch&#45;feedback&#45;applications/Growdamp</text>
</g>
<!-- Multi&#45;bunch&#45;feedback&#45;applications/Common&#45;&gt;Multi&#45;bunch&#45;feedback&#45;applications/Growdamp -->
<g id="edge28" class="edge"><title>Multi&#45;bunch&#45;feedback&#45;applications/Common&#45;&gt;Multi&#45;bunch&#45;feedback&#45;applications/Growdamp</title>
<path fill="none" stroke="white" d="M931,-418.778C931,-408.434 931,-396.655 931,-386.303"/>
<polygon fill="white" stroke="white" points="927.5,-418.812 931,-428.812 934.5,-418.812 927.5,-418.812"/>
<polygon fill="white" stroke="white" points="934.5,-386.153 931,-376.153 927.5,-386.153 934.5,-386.153"/>
</g>
</g>
</svg>
