<?xml version="1.0" encoding="UTF-8" standalone="no"?>
<!DOCTYPE svg PUBLIC "-//W3C//DTD SVG 1.1//EN"
 "http://www.w3.org/Graphics/SVG/1.1/DTD/svg11.dtd">
<!-- Generated by graphviz version 2.30.1 (20200304.1809)
 -->
<!-- Title: mbf\ntransverse\ndamping\nall Pages: 1 -->
<svg width="875pt" height="533pt"
 viewBox="0.00 0.00 875.00 533.00" xmlns="http://www.w3.org/2000/svg" xmlns:xlink="http://www.w3.org/1999/xlink">
<g id="graph0" class="graph" transform="scale(1 1) rotate(0) translate(4 529)">
<title>mbf\ntransverse\ndamping\nall</title>
<polygon fill="white" stroke="white" points="-4,5 -4,-529 872,-529 872,5 -4,5"/>
<g id="clust1" class="cluster"><title>cluster_0</title>
<polygon fill="none" stroke="black" points="555,-222 555,-517 859,-517 859,-222 555,-222"/>
<text text-anchor="middle" x="707" y="-501.8" font-family="Times,serif" font-size="14.00">Colour codes</text>
</g>
<!-- mbf\ntransverse\ndamping\nall -->
<g id="node1" class="node"><title>mbf\ntransverse\ndamping\nall</title>
<g id="a_node1"><a xlink:href="http://www.cs.diamond.ac.uk/diagnostics_docs/diagnostics_rep_scan/html_code/Root&gt;rep4&gt;Multi-bunch-feedback-applications&gt;Growdamp.html#mbf_transverse_damping_all" xlink:title="mbf\ntransverse\ndamping\nall" target="_top">
<ellipse fill="#dec2cf" stroke="black" cx="313" cy="-468" rx="50.3073" ry="48.1667"/>
<text text-anchor="middle" x="313" y="-486.8" font-family="Times,serif" font-size="14.00">mbf</text>
<text text-anchor="middle" x="313" y="-471.8" font-family="Times,serif" font-size="14.00">transverse</text>
<text text-anchor="middle" x="313" y="-456.8" font-family="Times,serif" font-size="14.00">damping</text>
<text text-anchor="middle" x="313" y="-441.8" font-family="Times,serif" font-size="14.00">all</text>
</a>
</g>
</g>
<!-- get\nall\ntunes -->
<g id="node2" class="node"><title>get\nall\ntunes</title>
<g id="a_node2"><a xlink:href="http://www.cs.diamond.ac.uk/diagnostics_docs/diagnostics_rep_scan/html_code/Root&gt;rep4&gt;Multi-bunch-feedback-applications&gt;Common.html#get_all_tunes" xlink:title="get\nall\ntunes" target="_top">
<ellipse fill="#dcaa3f" stroke="black" cx="363" cy="-358" rx="31.233" ry="37.4533"/>
<text text-anchor="middle" x="363" y="-369.3" font-family="Times,serif" font-size="14.00">get</text>
<text text-anchor="middle" x="363" y="-354.3" font-family="Times,serif" font-size="14.00">all</text>
<text text-anchor="middle" x="363" y="-339.3" font-family="Times,serif" font-size="14.00">tunes</text>
</a>
</g>
</g>
<!-- mbf\ntransverse\ndamping\nall&#45;&gt;get\nall\ntunes -->
<g id="edge1" class="edge"><title>mbf\ntransverse\ndamping\nall&#45;&gt;get\nall\ntunes</title>
<path fill="none" stroke="black" d="M333.049,-423.695C336.603,-416.018 340.296,-408.041 343.825,-400.418"/>
<polygon fill="black" stroke="black" points="347.003,-401.885 348.028,-391.34 340.651,-398.944 347.003,-401.885"/>
</g>
<!-- mbf\ngrowdamp\nsetup -->
<g id="node3" class="node"><title>mbf\ngrowdamp\nsetup</title>
<g id="a_node3"><a xlink:href="http://www.cs.diamond.ac.uk/diagnostics_docs/diagnostics_rep_scan/html_code/Root&gt;rep4&gt;Multi-bunch-feedback-applications&gt;Growdamp.html#mbf_growdamp_setup" xlink:title="mbf\ngrowdamp\nsetup" target="_top">
<ellipse fill="#dec2cf" stroke="black" cx="461" cy="-358" rx="51.99" ry="37.4533"/>
<text text-anchor="middle" x="461" y="-369.3" font-family="Times,serif" font-size="14.00">mbf</text>
<text text-anchor="middle" x="461" y="-354.3" font-family="Times,serif" font-size="14.00">growdamp</text>
<text text-anchor="middle" x="461" y="-339.3" font-family="Times,serif" font-size="14.00">setup</text>
</a>
</g>
</g>
<!-- mbf\ntransverse\ndamping\nall&#45;&gt;mbf\ngrowdamp\nsetup -->
<g id="edge2" class="edge"><title>mbf\ntransverse\ndamping\nall&#45;&gt;mbf\ngrowdamp\nsetup</title>
<path fill="none" stroke="black" d="M353.653,-439.551C368.668,-429.222 385.738,-417.252 401,-406 406.784,-401.735 412.815,-397.165 418.727,-392.61"/>
<polygon fill="black" stroke="black" points="420.926,-395.334 426.681,-386.439 416.635,-389.803 420.926,-395.334"/>
</g>
<!-- mbf\ntransverse\ndamping\ncapture -->
<g id="node8" class="node"><title>mbf\ntransverse\ndamping\ncapture</title>
<g id="a_node8"><a xlink:href="http://www.cs.diamond.ac.uk/diagnostics_docs/diagnostics_rep_scan/html_code/Root&gt;rep4&gt;Multi-bunch-feedback-applications&gt;Growdamp.html#mbf_transverse_damping_capture" xlink:title="mbf\ntransverse\ndamping\ncapture" target="_top">
<ellipse fill="#dec2cf" stroke="black" cx="144" cy="-358" rx="50.3073" ry="48.1667"/>
<text text-anchor="middle" x="144" y="-376.8" font-family="Times,serif" font-size="14.00">mbf</text>
<text text-anchor="middle" x="144" y="-361.8" font-family="Times,serif" font-size="14.00">transverse</text>
<text text-anchor="middle" x="144" y="-346.8" font-family="Times,serif" font-size="14.00">damping</text>
<text text-anchor="middle" x="144" y="-331.8" font-family="Times,serif" font-size="14.00">capture</text>
</a>
</g>
</g>
<!-- mbf\ntransverse\ndamping\nall&#45;&gt;mbf\ntransverse\ndamping\ncapture -->
<g id="edge12" class="edge"><title>mbf\ntransverse\ndamping\nall&#45;&gt;mbf\ntransverse\ndamping\ncapture</title>
<path fill="none" stroke="black" d="M268.712,-444.99C247.946,-434.087 223.17,-420.228 202,-406 197.739,-403.136 193.409,-400.034 189.132,-396.835"/>
<polygon fill="black" stroke="black" points="191.07,-393.91 181.005,-390.601 186.809,-399.464 191.07,-393.91"/>
</g>
<!-- setup\noperational\nmode -->
<g id="node16" class="node"><title>setup\noperational\nmode</title>
<g id="a_node16"><a xlink:href="http://www.cs.diamond.ac.uk/diagnostics_docs/diagnostics_rep_scan/html_code/Root&gt;rep4&gt;Multi-bunch-feedback-applications&gt;Common.html#setup_operational_mode" xlink:title="setup\noperational\nmode" target="_top">
<ellipse fill="#dcaa3f" stroke="black" cx="263" cy="-358" rx="54.1711" ry="37.4533"/>
<text text-anchor="middle" x="263" y="-369.3" font-family="Times,serif" font-size="14.00">setup</text>
<text text-anchor="middle" x="263" y="-354.3" font-family="Times,serif" font-size="14.00">operational</text>
<text text-anchor="middle" x="263" y="-339.3" font-family="Times,serif" font-size="14.00">mode</text>
</a>
</g>
</g>
<!-- mbf\ntransverse\ndamping\nall&#45;&gt;setup\noperational\nmode -->
<g id="edge22" class="edge"><title>mbf\ntransverse\ndamping\nall&#45;&gt;setup\noperational\nmode</title>
<path fill="none" stroke="black" d="M292.951,-423.695C289.813,-416.917 286.567,-409.904 283.421,-403.108"/>
<polygon fill="black" stroke="black" points="286.589,-401.622 279.212,-394.018 280.237,-404.563 286.589,-401.622"/>
</g>
<!-- mbf\nget\nthen\nput -->
<g id="node4" class="node"><title>mbf\nget\nthen\nput</title>
<g id="a_node4"><a xlink:href="http://www.cs.diamond.ac.uk/diagnostics_docs/diagnostics_rep_scan/html_code/Root&gt;rep4&gt;Multi-bunch-feedback-applications&gt;Common.html#mbf_get_then_put" xlink:title="mbf\nget\nthen\nput" target="_top">
<ellipse fill="#dcaa3f" stroke="black" cx="435" cy="-138" rx="27.9291" ry="48.1667"/>
<text text-anchor="middle" x="435" y="-156.8" font-family="Times,serif" font-size="14.00">mbf</text>
<text text-anchor="middle" x="435" y="-141.8" font-family="Times,serif" font-size="14.00">get</text>
<text text-anchor="middle" x="435" y="-126.8" font-family="Times,serif" font-size="14.00">then</text>
<text text-anchor="middle" x="435" y="-111.8" font-family="Times,serif" font-size="14.00">put</text>
</a>
</g>
</g>
<!-- mbf\ngrowdamp\nsetup&#45;&gt;mbf\nget\nthen\nput -->
<g id="edge3" class="edge"><title>mbf\ngrowdamp\nsetup&#45;&gt;mbf\nget\nthen\nput</title>
<path fill="none" stroke="black" d="M453.93,-320.63C452.501,-312.542 451.101,-303.995 450,-296 445.456,-263.001 441.844,-225.909 439.303,-196.067"/>
<polygon fill="black" stroke="black" points="442.769,-195.507 438.45,-185.833 435.793,-196.089 442.769,-195.507"/>
</g>
<!-- mbf\nset\nbank -->
<g id="node6" class="node"><title>mbf\nset\nbank</title>
<g id="a_node6"><a xlink:href="http://www.cs.diamond.ac.uk/diagnostics_docs/diagnostics_rep_scan/html_code/Root&gt;rep4&gt;Multi-bunch-feedback-applications&gt;Growdamp.html#mbf_set_bank" xlink:title="mbf\nset\nbank" target="_top">
<ellipse fill="#dec2cf" stroke="black" cx="487" cy="-248" rx="30.1093" ry="37.4533"/>
<text text-anchor="middle" x="487" y="-259.3" font-family="Times,serif" font-size="14.00">mbf</text>
<text text-anchor="middle" x="487" y="-244.3" font-family="Times,serif" font-size="14.00">set</text>
<text text-anchor="middle" x="487" y="-229.3" font-family="Times,serif" font-size="14.00">bank</text>
</a>
</g>
</g>
<!-- mbf\ngrowdamp\nsetup&#45;&gt;mbf\nset\nbank -->
<g id="edge5" class="edge"><title>mbf\ngrowdamp\nsetup&#45;&gt;mbf\nset\nbank</title>
<path fill="none" stroke="black" d="M469.658,-321.038C471.74,-312.388 473.99,-303.042 476.158,-294.037"/>
<polygon fill="black" stroke="black" points="479.619,-294.613 478.557,-284.071 472.813,-292.975 479.619,-294.613"/>
</g>
<!-- mbf\nset\nstate -->
<g id="node7" class="node"><title>mbf\nset\nstate</title>
<g id="a_node7"><a xlink:href="http://www.cs.diamond.ac.uk/diagnostics_docs/diagnostics_rep_scan/html_code/Root&gt;rep4&gt;Multi-bunch-feedback-applications&gt;Growdamp.html#mbf_set_state" xlink:title="mbf\nset\nstate" target="_top">
<ellipse fill="#dec2cf" stroke="black" cx="384" cy="-248" rx="28.4872" ry="37.4533"/>
<text text-anchor="middle" x="384" y="-259.3" font-family="Times,serif" font-size="14.00">mbf</text>
<text text-anchor="middle" x="384" y="-244.3" font-family="Times,serif" font-size="14.00">set</text>
<text text-anchor="middle" x="384" y="-229.3" font-family="Times,serif" font-size="14.00">state</text>
</a>
</g>
</g>
<!-- mbf\ngrowdamp\nsetup&#45;&gt;mbf\nset\nstate -->
<g id="edge8" class="edge"><title>mbf\ngrowdamp\nsetup&#45;&gt;mbf\nset\nstate</title>
<path fill="none" stroke="black" d="M437.689,-324.303C428.684,-311.673 418.358,-297.191 409.184,-284.323"/>
<polygon fill="black" stroke="black" points="412.002,-282.246 403.346,-276.135 406.302,-286.31 412.002,-282.246"/>
</g>
<!-- mbf\nsystem\nconfig -->
<g id="node5" class="node"><title>mbf\nsystem\nconfig</title>
<g id="a_node5"><a xlink:href="http://www.cs.diamond.ac.uk/diagnostics_docs/diagnostics_rep_scan/html_code/Root&gt;rep4&gt;Multi-bunch-feedback-applications&gt;Common.html#mbf_system_config" xlink:title="mbf\nsystem\nconfig" target="_top">
<ellipse fill="#dcaa3f" stroke="black" cx="410" cy="-38" rx="38.2761" ry="37.4533"/>
<text text-anchor="middle" x="410" y="-49.3" font-family="Times,serif" font-size="14.00">mbf</text>
<text text-anchor="middle" x="410" y="-34.3" font-family="Times,serif" font-size="14.00">system</text>
<text text-anchor="middle" x="410" y="-19.3" font-family="Times,serif" font-size="14.00">config</text>
</a>
</g>
</g>
<!-- mbf\ngrowdamp\nsetup&#45;&gt;mbf\nsystem\nconfig -->
<g id="edge11" class="edge"><title>mbf\ngrowdamp\nsetup&#45;&gt;mbf\nsystem\nconfig</title>
<path fill="none" stroke="black" d="M496.972,-330.432C507.438,-320.794 517.73,-309.033 524,-296 539.194,-264.417 550.676,-172.046 539,-139"/>
</g>
<!-- mbf\nget\nthen\nput&#45;&gt;mbf\nsystem\nconfig -->
<g id="edge4" class="edge"><title>mbf\nget\nthen\nput&#45;&gt;mbf\nsystem\nconfig</title>
<path fill="none" stroke="black" d="M423.962,-93.7305C423.176,-90.6508 422.383,-87.5405 421.594,-84.4491"/>
<polygon fill="black" stroke="black" points="424.971,-83.5253 419.107,-74.7008 418.188,-85.2557 424.971,-83.5253"/>
</g>
<!-- mbf\nset\nbank&#45;&gt;mbf\nget\nthen\nput -->
<g id="edge6" class="edge"><title>mbf\nset\nbank&#45;&gt;mbf\nget\nthen\nput</title>
<path fill="none" stroke="black" d="M471.82,-215.472C467.229,-205.938 462.091,-195.267 457.144,-184.991"/>
<polygon fill="black" stroke="black" points="460.167,-183.202 452.675,-175.71 453.86,-186.238 460.167,-183.202"/>
</g>
<!-- mbf\nset\nbank&#45;&gt;mbf\nsystem\nconfig -->
<g id="edge7" class="edge"><title>mbf\nset\nbank&#45;&gt;mbf\nsystem\nconfig</title>
<path fill="none" stroke="black" d="M510.272,-223.618C528.69,-202.162 549.676,-169.217 539,-139"/>
<path fill="none" stroke="black" d="M539,-137C525.483,-98.7438 486.237,-72.4837 454.55,-56.8479"/>
<polygon fill="black" stroke="black" points="455.956,-53.6411 445.42,-52.5269 452.962,-59.9683 455.956,-53.6411"/>
</g>
<!-- mbf\nset\nstate&#45;&gt;mbf\nget\nthen\nput -->
<g id="edge9" class="edge"><title>mbf\nset\nstate&#45;&gt;mbf\nget\nthen\nput</title>
<path fill="none" stroke="black" d="M398.751,-215.762C403.256,-206.223 408.308,-195.523 413.178,-185.211"/>
<polygon fill="black" stroke="black" points="416.473,-186.431 417.578,-175.894 410.143,-183.442 416.473,-186.431"/>
</g>
<!-- mbf\nset\nstate&#45;&gt;mbf\nsystem\nconfig -->
<g id="edge10" class="edge"><title>mbf\nset\nstate&#45;&gt;mbf\nsystem\nconfig</title>
<path fill="none" stroke="black" d="M386.77,-210.399C389.413,-178.504 393.896,-131.057 400,-90 400.251,-88.3127 400.519,-86.5964 400.801,-84.8647"/>
<polygon fill="black" stroke="black" points="404.274,-85.3227 402.536,-74.8714 397.377,-84.1253 404.274,-85.3227"/>
</g>
<!-- get\nPinhole\nimage -->
<g id="node9" class="node"><title>get\nPinhole\nimage</title>
<g id="a_node9"><a xlink:href="http://www.cs.diamond.ac.uk/diagnostics_docs/diagnostics_rep_scan/html_code/Root&gt;rep4&gt;Multi-bunch-feedback-applications&gt;other_systems.html#get_Pinhole_image" xlink:title="get\nPinhole\nimage" target="_top">
<ellipse fill="#e6465a" stroke="black" cx="41" cy="-248" rx="41.0183" ry="37.4533"/>
<text text-anchor="middle" x="41" y="-259.3" font-family="Times,serif" font-size="14.00">get</text>
<text text-anchor="middle" x="41" y="-244.3" font-family="Times,serif" font-size="14.00">Pinhole</text>
<text text-anchor="middle" x="41" y="-229.3" font-family="Times,serif" font-size="14.00">image</text>
</a>
</g>
</g>
<!-- mbf\ntransverse\ndamping\ncapture&#45;&gt;get\nPinhole\nimage -->
<g id="edge13" class="edge"><title>mbf\ntransverse\ndamping\ncapture&#45;&gt;get\nPinhole\nimage</title>
<path fill="none" stroke="black" d="M110.559,-321.935C98.9814,-309.796 86.0098,-296.195 74.433,-284.056"/>
<polygon fill="black" stroke="black" points="76.8644,-281.534 67.4299,-276.713 71.7987,-286.365 76.8644,-281.534"/>
</g>
<!-- get\nbeamsize\nfrom\nimage -->
<g id="node10" class="node"><title>get\nbeamsize\nfrom\nimage</title>
<g id="a_node10"><a xlink:href="http://www.cs.diamond.ac.uk/diagnostics_docs/diagnostics_rep_scan/html_code/Root&gt;rep4&gt;Multi-bunch-feedback-applications&gt;other_systems.html#get_beamsize_from_image" xlink:title="get\nbeamsize\nfrom\nimage" target="_top">
<ellipse fill="#e6465a" stroke="black" cx="144" cy="-248" rx="48.125" ry="48.1667"/>
<text text-anchor="middle" x="144" y="-266.8" font-family="Times,serif" font-size="14.00">get</text>
<text text-anchor="middle" x="144" y="-251.8" font-family="Times,serif" font-size="14.00">beamsize</text>
<text text-anchor="middle" x="144" y="-236.8" font-family="Times,serif" font-size="14.00">from</text>
<text text-anchor="middle" x="144" y="-221.8" font-family="Times,serif" font-size="14.00">image</text>
</a>
</g>
</g>
<!-- mbf\ntransverse\ndamping\ncapture&#45;&gt;get\nbeamsize\nfrom\nimage -->
<g id="edge14" class="edge"><title>mbf\ntransverse\ndamping\ncapture&#45;&gt;get\nbeamsize\nfrom\nimage</title>
<path fill="none" stroke="black" d="M144,-309.63C144,-308.663 144,-307.693 144,-306.721"/>
<polygon fill="black" stroke="black" points="147.5,-306.308 144,-296.308 140.5,-306.308 147.5,-306.308"/>
</g>
<!-- mbf\ngrowdamp\ncapture -->
<g id="node11" class="node"><title>mbf\ngrowdamp\ncapture</title>
<g id="a_node11"><a xlink:href="http://www.cs.diamond.ac.uk/diagnostics_docs/diagnostics_rep_scan/html_code/Root&gt;rep4&gt;Multi-bunch-feedback-applications&gt;Growdamp.html#mbf_growdamp_capture" xlink:title="mbf\ngrowdamp\ncapture" target="_top">
<ellipse fill="#dec2cf" stroke="black" cx="258" cy="-248" rx="51.99" ry="37.4533"/>
<text text-anchor="middle" x="258" y="-259.3" font-family="Times,serif" font-size="14.00">mbf</text>
<text text-anchor="middle" x="258" y="-244.3" font-family="Times,serif" font-size="14.00">growdamp</text>
<text text-anchor="middle" x="258" y="-229.3" font-family="Times,serif" font-size="14.00">capture</text>
</a>
</g>
</g>
<!-- mbf\ntransverse\ndamping\ncapture&#45;&gt;mbf\ngrowdamp\ncapture -->
<g id="edge15" class="edge"><title>mbf\ntransverse\ndamping\ncapture&#45;&gt;mbf\ngrowdamp\ncapture</title>
<path fill="none" stroke="black" d="M179.134,-323.715C191.931,-311.592 206.461,-297.826 219.533,-285.443"/>
<polygon fill="black" stroke="black" points="222.184,-287.753 227.036,-278.334 217.369,-282.671 222.184,-287.753"/>
</g>
<!-- machine\nenvironment -->
<g id="node12" class="node"><title>machine\nenvironment</title>
<g id="a_node12"><a xlink:href="http://www.cs.diamond.ac.uk/diagnostics_docs/diagnostics_rep_scan/html_code/Root&gt;rep4&gt;Multi-bunch-feedback-applications&gt;Common.html#machine_environment" xlink:title="machine\nenvironment" target="_top">
<ellipse fill="#dcaa3f" stroke="black" cx="303" cy="-138" rx="60.1562" ry="26.7407"/>
<text text-anchor="middle" x="303" y="-141.8" font-family="Times,serif" font-size="14.00">machine</text>
<text text-anchor="middle" x="303" y="-126.8" font-family="Times,serif" font-size="14.00">environment</text>
</a>
</g>
</g>
<!-- mbf\ngrowdamp\ncapture&#45;&gt;machine\nenvironment -->
<g id="edge16" class="edge"><title>mbf\ngrowdamp\ncapture&#45;&gt;machine\nenvironment</title>
<path fill="none" stroke="black" d="M272.61,-211.935C277.673,-199.785 283.345,-186.171 288.407,-174.024"/>
<polygon fill="black" stroke="black" points="291.696,-175.23 292.311,-164.653 285.234,-172.538 291.696,-175.23"/>
</g>
<!-- mbf\ngrowdamp\ncapture&#45;&gt;mbf\nget\nthen\nput -->
<g id="edge17" class="edge"><title>mbf\ngrowdamp\ncapture&#45;&gt;mbf\nget\nthen\nput</title>
<path fill="none" stroke="black" d="M300.212,-225.639C321.508,-214.456 347.522,-200.167 370,-186 380.296,-179.51 391.138,-171.974 400.953,-164.862"/>
<polygon fill="black" stroke="black" points="403.282,-167.495 409.275,-158.758 399.141,-161.85 403.282,-167.495"/>
</g>
<!-- mbf\ngrowdamp\ncapture&#45;&gt;mbf\nsystem\nconfig -->
<g id="edge18" class="edge"><title>mbf\ngrowdamp\ncapture&#45;&gt;mbf\nsystem\nconfig</title>
<path fill="none" stroke="black" d="M240.044,-212.516C224.89,-178.092 209.519,-125.357 236,-90 237.985,-87.35 312.547,-66.1465 363.411,-51.9268"/>
<polygon fill="black" stroke="black" points="364.549,-55.2431 373.24,-49.1835 362.667,-48.5008 364.549,-55.2431"/>
</g>
<!-- save\nto\narchive -->
<g id="node13" class="node"><title>save\nto\narchive</title>
<g id="a_node13"><a xlink:href="http://www.cs.diamond.ac.uk/diagnostics_docs/diagnostics_rep_scan/html_code/Root&gt;rep4&gt;Multi-bunch-feedback-applications&gt;Common.html#save_to_archive" xlink:title="save\nto\narchive" target="_top">
<ellipse fill="#dcaa3f" stroke="black" cx="160" cy="-138" rx="38.3379" ry="37.4533"/>
<text text-anchor="middle" x="160" y="-149.3" font-family="Times,serif" font-size="14.00">save</text>
<text text-anchor="middle" x="160" y="-134.3" font-family="Times,serif" font-size="14.00">to</text>
<text text-anchor="middle" x="160" y="-119.3" font-family="Times,serif" font-size="14.00">archive</text>
</a>
</g>
</g>
<!-- mbf\ngrowdamp\ncapture&#45;&gt;save\nto\narchive -->
<g id="edge19" class="edge"><title>mbf\ngrowdamp\ncapture&#45;&gt;save\nto\narchive</title>
<path fill="none" stroke="black" d="M229.917,-216.052C218.097,-203.025 204.278,-187.796 192.06,-174.332"/>
<polygon fill="black" stroke="black" points="194.391,-171.692 185.079,-166.639 189.207,-176.396 194.391,-171.692"/>
</g>
<!-- construct\ndatastamped\nfilename -->
<g id="node14" class="node"><title>construct\ndatastamped\nfilename</title>
<g id="a_node14"><a xlink:href="http://www.cs.diamond.ac.uk/diagnostics_docs/diagnostics_rep_scan/html_code/Root&gt;rep4&gt;Multi-bunch-feedback-applications&gt;Common.html#construct_datastamped_filename" xlink:title="construct\ndatastamped\nfilename" target="_top">
<ellipse fill="#dcaa3f" stroke="black" cx="211" cy="-38" rx="60.1562" ry="37.4533"/>
<text text-anchor="middle" x="211" y="-49.3" font-family="Times,serif" font-size="14.00">construct</text>
<text text-anchor="middle" x="211" y="-34.3" font-family="Times,serif" font-size="14.00">datastamped</text>
<text text-anchor="middle" x="211" y="-19.3" font-family="Times,serif" font-size="14.00">filename</text>
</a>
</g>
</g>
<!-- save\nto\narchive&#45;&gt;construct\ndatastamped\nfilename -->
<g id="edge20" class="edge"><title>save\nto\narchive&#45;&gt;construct\ndatastamped\nfilename</title>
<path fill="none" stroke="black" d="M176.982,-104.367C180.568,-97.477 184.408,-90.0987 188.169,-82.871"/>
<polygon fill="black" stroke="black" points="191.355,-84.3308 192.867,-73.8443 185.146,-81.0993 191.355,-84.3308"/>
</g>
<!-- tree\ngen -->
<g id="node15" class="node"><title>tree\ngen</title>
<g id="a_node15"><a xlink:href="http://www.cs.diamond.ac.uk/diagnostics_docs/diagnostics_rep_scan/html_code/Root&gt;rep4&gt;Multi-bunch-feedback-applications&gt;Common.html#tree_gen" xlink:title="tree\ngen" target="_top">
<ellipse fill="#dcaa3f" stroke="black" cx="110" cy="-38" rx="27" ry="26.7407"/>
<text text-anchor="middle" x="110" y="-41.8" font-family="Times,serif" font-size="14.00">tree</text>
<text text-anchor="middle" x="110" y="-26.8" font-family="Times,serif" font-size="14.00">gen</text>
</a>
</g>
</g>
<!-- save\nto\narchive&#45;&gt;tree\ngen -->
<g id="edge21" class="edge"><title>save\nto\narchive&#45;&gt;tree\ngen</title>
<path fill="none" stroke="black" d="M143.212,-104.095C137.868,-93.6218 131.962,-82.0454 126.63,-71.5945"/>
<polygon fill="black" stroke="black" points="129.59,-69.6941 121.927,-62.3771 123.354,-72.8754 129.59,-69.6941"/>
</g>
<!-- Multi&#45;bunch&#45;feedback&#45;applications/Common -->
<g id="node17" class="node"><title>Multi&#45;bunch&#45;feedback&#45;applications/Common</title>
<polygon fill="#dcaa3f" stroke="black" points="838,-486 576,-486 576,-450 838,-450 838,-486"/>
<text text-anchor="middle" x="707" y="-464.3" font-family="Times,serif" font-size="14.00">Multi&#45;bunch&#45;feedback&#45;applications/Common</text>
</g>
<!-- Multi&#45;bunch&#45;feedback&#45;applications/Growdamp -->
<g id="node18" class="node"><title>Multi&#45;bunch&#45;feedback&#45;applications/Growdamp</title>
<polygon fill="#dec2cf" stroke="black" points="842.25,-376 571.75,-376 571.75,-340 842.25,-340 842.25,-376"/>
<text text-anchor="middle" x="707" y="-354.3" font-family="Times,serif" font-size="14.00">Multi&#45;bunch&#45;feedback&#45;applications/Growdamp</text>
</g>
<!-- Multi&#45;bunch&#45;feedback&#45;applications/Common&#45;&gt;Multi&#45;bunch&#45;feedback&#45;applications/Growdamp -->
<g id="edge23" class="edge"><title>Multi&#45;bunch&#45;feedback&#45;applications/Common&#45;&gt;Multi&#45;bunch&#45;feedback&#45;applications/Growdamp</title>
<path fill="none" stroke="white" d="M707,-439.63C707,-423.301 707,-402.638 707,-386.317"/>
<polygon fill="white" stroke="white" points="703.5,-439.648 707,-449.648 710.5,-439.648 703.5,-439.648"/>
<polygon fill="white" stroke="white" points="710.5,-386.309 707,-376.309 703.5,-386.309 710.5,-386.309"/>
</g>
<!-- Multi&#45;bunch&#45;feedback&#45;applications/other_systems -->
<g id="node19" class="node"><title>Multi&#45;bunch&#45;feedback&#45;applications/other_systems</title>
<polygon fill="#e6465a" stroke="black" points="850.25,-266 563.75,-266 563.75,-230 850.25,-230 850.25,-266"/>
<text text-anchor="middle" x="707" y="-244.3" font-family="Times,serif" font-size="14.00">Multi&#45;bunch&#45;feedback&#45;applications/other_systems</text>
</g>
<!-- Multi&#45;bunch&#45;feedback&#45;applications/Growdamp&#45;&gt;Multi&#45;bunch&#45;feedback&#45;applications/other_systems -->
<g id="edge24" class="edge"><title>Multi&#45;bunch&#45;feedback&#45;applications/Growdamp&#45;&gt;Multi&#45;bunch&#45;feedback&#45;applications/other_systems</title>
<path fill="none" stroke="white" d="M707,-329.63C707,-313.301 707,-292.638 707,-276.317"/>
<polygon fill="white" stroke="white" points="703.5,-329.648 707,-339.648 710.5,-329.648 703.5,-329.648"/>
<polygon fill="white" stroke="white" points="710.5,-276.309 707,-266.309 703.5,-276.309 710.5,-276.309"/>
</g>
</g>
</svg>
