<?xml version="1.0" encoding="UTF-8" standalone="no"?>
<!DOCTYPE svg PUBLIC "-//W3C//DTD SVG 1.1//EN"
 "http://www.w3.org/Graphics/SVG/1.1/DTD/svg11.dtd">
<!-- Generated by graphviz version 2.30.1 (20200304.1809)
 -->
<!-- Title: mbf\ngrowdamp\ncapture Pages: 1 -->
<svg width="625pt" height="303pt"
 viewBox="0.00 0.00 625.00 303.00" xmlns="http://www.w3.org/2000/svg" xmlns:xlink="http://www.w3.org/1999/xlink">
<g id="graph0" class="graph" transform="scale(1 1) rotate(0) translate(4 299)">
<title>mbf\ngrowdamp\ncapture</title>
<polygon fill="white" stroke="white" points="-4,5 -4,-299 622,-299 622,5 -4,5"/>
<g id="clust1" class="cluster"><title>cluster_0</title>
<polygon fill="none" stroke="black" points="321,-112 321,-287 609,-287 609,-112 321,-112"/>
<text text-anchor="middle" x="465" y="-271.8" font-family="Times,serif" font-size="14.00">Colour codes</text>
</g>
<!-- mbf\ngrowdamp\ncapture -->
<g id="node1" class="node"><title>mbf\ngrowdamp\ncapture</title>
<g id="a_node1"><a xlink:href="http://www.cs.diamond.ac.uk/diagnostics_docs/diagnostics_rep_scan/html_code/Root&gt;rep4&gt;Multi-bunch-feedback-applications&gt;Growdamp.html#mbf_growdamp_capture" xlink:title="mbf\ngrowdamp\ncapture" target="_top">
<ellipse fill="#dec2cf" stroke="black" cx="187" cy="-238" rx="51.99" ry="37.4533"/>
<text text-anchor="middle" x="187" y="-249.3" font-family="Times,serif" font-size="14.00">mbf</text>
<text text-anchor="middle" x="187" y="-234.3" font-family="Times,serif" font-size="14.00">growdamp</text>
<text text-anchor="middle" x="187" y="-219.3" font-family="Times,serif" font-size="14.00">capture</text>
</a>
</g>
</g>
<!-- machine\nenvironment -->
<g id="node2" class="node"><title>machine\nenvironment</title>
<g id="a_node2"><a xlink:href="http://www.cs.diamond.ac.uk/diagnostics_docs/diagnostics_rep_scan/html_code/Root&gt;rep4&gt;Multi-bunch-feedback-applications&gt;Common.html#machine_environment" xlink:title="machine\nenvironment" target="_top">
<ellipse fill="#dcaa3f" stroke="black" cx="60" cy="-138" rx="60.1562" ry="26.7407"/>
<text text-anchor="middle" x="60" y="-141.8" font-family="Times,serif" font-size="14.00">machine</text>
<text text-anchor="middle" x="60" y="-126.8" font-family="Times,serif" font-size="14.00">environment</text>
</a>
</g>
</g>
<!-- mbf\ngrowdamp\ncapture&#45;&gt;machine\nenvironment -->
<g id="edge1" class="edge"><title>mbf\ngrowdamp\ncapture&#45;&gt;machine\nenvironment</title>
<path fill="none" stroke="black" d="M151.961,-209.962C135.051,-196.913 114.746,-181.245 97.5226,-167.954"/>
<polygon fill="black" stroke="black" points="99.3984,-164.981 89.3432,-161.643 95.122,-170.523 99.3984,-164.981"/>
</g>
<!-- mbf\nget\nthen\nput -->
<g id="node3" class="node"><title>mbf\nget\nthen\nput</title>
<g id="a_node3"><a xlink:href="http://www.cs.diamond.ac.uk/diagnostics_docs/diagnostics_rep_scan/html_code/Root&gt;rep4&gt;Multi-bunch-feedback-applications&gt;Common.html#mbf_get_then_put" xlink:title="mbf\nget\nthen\nput" target="_top">
<ellipse fill="#dcaa3f" stroke="black" cx="162" cy="-138" rx="27.9291" ry="48.1667"/>
<text text-anchor="middle" x="162" y="-156.8" font-family="Times,serif" font-size="14.00">mbf</text>
<text text-anchor="middle" x="162" y="-141.8" font-family="Times,serif" font-size="14.00">get</text>
<text text-anchor="middle" x="162" y="-126.8" font-family="Times,serif" font-size="14.00">then</text>
<text text-anchor="middle" x="162" y="-111.8" font-family="Times,serif" font-size="14.00">put</text>
</a>
</g>
</g>
<!-- mbf\ngrowdamp\ncapture&#45;&gt;mbf\nget\nthen\nput -->
<g id="edge2" class="edge"><title>mbf\ngrowdamp\ncapture&#45;&gt;mbf\nget\nthen\nput</title>
<path fill="none" stroke="black" d="M177.833,-201.065C177.077,-198.101 176.303,-195.069 175.524,-192.016"/>
<polygon fill="black" stroke="black" points="178.897,-191.076 173.034,-182.252 172.114,-192.807 178.897,-191.076"/>
</g>
<!-- mbf\nsystem\nconfig -->
<g id="node4" class="node"><title>mbf\nsystem\nconfig</title>
<g id="a_node4"><a xlink:href="http://www.cs.diamond.ac.uk/diagnostics_docs/diagnostics_rep_scan/html_code/Root&gt;rep4&gt;Multi-bunch-feedback-applications&gt;Common.html#mbf_system_config" xlink:title="mbf\nsystem\nconfig" target="_top">
<ellipse fill="#dcaa3f" stroke="black" cx="162" cy="-38" rx="38.2761" ry="37.4533"/>
<text text-anchor="middle" x="162" y="-49.3" font-family="Times,serif" font-size="14.00">mbf</text>
<text text-anchor="middle" x="162" y="-34.3" font-family="Times,serif" font-size="14.00">system</text>
<text text-anchor="middle" x="162" y="-19.3" font-family="Times,serif" font-size="14.00">config</text>
</a>
</g>
</g>
<!-- mbf\ngrowdamp\ncapture&#45;&gt;mbf\nsystem\nconfig -->
<g id="edge4" class="edge"><title>mbf\ngrowdamp\ncapture&#45;&gt;mbf\nsystem\nconfig</title>
<path fill="none" stroke="black" d="M196.569,-201.112C202.979,-170.817 208.366,-126.648 197,-90 195.546,-85.3108 193.495,-80.6698 191.106,-76.2095"/>
<polygon fill="black" stroke="black" points="193.947,-74.1395 185.813,-67.3501 187.937,-77.7298 193.947,-74.1395"/>
</g>
<!-- save\nto\narchive -->
<g id="node5" class="node"><title>save\nto\narchive</title>
<g id="a_node5"><a xlink:href="http://www.cs.diamond.ac.uk/diagnostics_docs/diagnostics_rep_scan/html_code/Root&gt;rep4&gt;Multi-bunch-feedback-applications&gt;Common.html#save_to_archive" xlink:title="save\nto\narchive" target="_top">
<ellipse fill="#dcaa3f" stroke="black" cx="274" cy="-138" rx="38.3379" ry="37.4533"/>
<text text-anchor="middle" x="274" y="-149.3" font-family="Times,serif" font-size="14.00">save</text>
<text text-anchor="middle" x="274" y="-134.3" font-family="Times,serif" font-size="14.00">to</text>
<text text-anchor="middle" x="274" y="-119.3" font-family="Times,serif" font-size="14.00">archive</text>
</a>
</g>
</g>
<!-- mbf\ngrowdamp\ncapture&#45;&gt;save\nto\narchive -->
<g id="edge5" class="edge"><title>mbf\ngrowdamp\ncapture&#45;&gt;save\nto\narchive</title>
<path fill="none" stroke="black" d="M214.527,-205.992C223.413,-195.983 233.332,-184.81 242.483,-174.501"/>
<polygon fill="black" stroke="black" points="245.28,-176.623 249.302,-166.821 240.046,-171.975 245.28,-176.623"/>
</g>
<!-- mbf\nget\nthen\nput&#45;&gt;mbf\nsystem\nconfig -->
<g id="edge3" class="edge"><title>mbf\nget\nthen\nput&#45;&gt;mbf\nsystem\nconfig</title>
<path fill="none" stroke="black" d="M162,-89.7223C162,-88.4008 162,-87.0776 162,-85.7565"/>
<polygon fill="black" stroke="black" points="165.5,-85.7355 162,-75.7355 158.5,-85.7356 165.5,-85.7355"/>
</g>
<!-- construct\ndatastamped\nfilename -->
<g id="node6" class="node"><title>construct\ndatastamped\nfilename</title>
<g id="a_node6"><a xlink:href="http://www.cs.diamond.ac.uk/diagnostics_docs/diagnostics_rep_scan/html_code/Root&gt;rep4&gt;Multi-bunch-feedback-applications&gt;Common.html#construct_datastamped_filename" xlink:title="construct\ndatastamped\nfilename" target="_top">
<ellipse fill="#dcaa3f" stroke="black" cx="274" cy="-38" rx="60.1562" ry="37.4533"/>
<text text-anchor="middle" x="274" y="-49.3" font-family="Times,serif" font-size="14.00">construct</text>
<text text-anchor="middle" x="274" y="-34.3" font-family="Times,serif" font-size="14.00">datastamped</text>
<text text-anchor="middle" x="274" y="-19.3" font-family="Times,serif" font-size="14.00">filename</text>
</a>
</g>
</g>
<!-- save\nto\narchive&#45;&gt;construct\ndatastamped\nfilename -->
<g id="edge6" class="edge"><title>save\nto\narchive&#45;&gt;construct\ndatastamped\nfilename</title>
<path fill="none" stroke="black" d="M274,-100.508C274,-95.6617 274,-90.64 274,-85.6508"/>
<polygon fill="black" stroke="black" points="277.5,-85.522 274,-75.5221 270.5,-85.5221 277.5,-85.522"/>
</g>
<!-- tree\ngen -->
<g id="node7" class="node"><title>tree\ngen</title>
<g id="a_node7"><a xlink:href="http://www.cs.diamond.ac.uk/diagnostics_docs/diagnostics_rep_scan/html_code/Root&gt;rep4&gt;Multi-bunch-feedback-applications&gt;Common.html#tree_gen" xlink:title="tree\ngen" target="_top">
<ellipse fill="#dcaa3f" stroke="black" cx="375" cy="-38" rx="27" ry="26.7407"/>
<text text-anchor="middle" x="375" y="-41.8" font-family="Times,serif" font-size="14.00">tree</text>
<text text-anchor="middle" x="375" y="-26.8" font-family="Times,serif" font-size="14.00">gen</text>
</a>
</g>
</g>
<!-- save\nto\narchive&#45;&gt;tree\ngen -->
<g id="edge7" class="edge"><title>save\nto\narchive&#45;&gt;tree\ngen</title>
<path fill="none" stroke="black" d="M298.423,-108.407C304.508,-102.011 311.235,-95.4995 318,-90 327.286,-82.4513 331.749,-83.5917 341,-76 344.509,-73.1205 347.996,-69.883 351.325,-66.552"/>
<polygon fill="black" stroke="black" points="353.95,-68.8705 358.308,-59.2134 348.879,-64.0451 353.95,-68.8705"/>
</g>
<!-- Multi&#45;bunch&#45;feedback&#45;applications/Common -->
<g id="node8" class="node"><title>Multi&#45;bunch&#45;feedback&#45;applications/Common</title>
<polygon fill="#dcaa3f" stroke="black" points="596,-256 334,-256 334,-220 596,-220 596,-256"/>
<text text-anchor="middle" x="465" y="-234.3" font-family="Times,serif" font-size="14.00">Multi&#45;bunch&#45;feedback&#45;applications/Common</text>
</g>
<!-- Multi&#45;bunch&#45;feedback&#45;applications/Growdamp -->
<g id="node9" class="node"><title>Multi&#45;bunch&#45;feedback&#45;applications/Growdamp</title>
<polygon fill="#dec2cf" stroke="black" points="600.25,-156 329.75,-156 329.75,-120 600.25,-120 600.25,-156"/>
<text text-anchor="middle" x="465" y="-134.3" font-family="Times,serif" font-size="14.00">Multi&#45;bunch&#45;feedback&#45;applications/Growdamp</text>
</g>
<!-- Multi&#45;bunch&#45;feedback&#45;applications/Common&#45;&gt;Multi&#45;bunch&#45;feedback&#45;applications/Growdamp -->
<g id="edge8" class="edge"><title>Multi&#45;bunch&#45;feedback&#45;applications/Common&#45;&gt;Multi&#45;bunch&#45;feedback&#45;applications/Growdamp</title>
<path fill="none" stroke="white" d="M465,-209.923C465,-196.372 465,-180.003 465,-166.406"/>
<polygon fill="white" stroke="white" points="461.5,-209.93 465,-219.93 468.5,-209.93 461.5,-209.93"/>
<polygon fill="white" stroke="white" points="468.5,-166.203 465,-156.203 461.5,-166.204 468.5,-166.203"/>
</g>
</g>
</svg>
