<?xml version="1.0" encoding="UTF-8" standalone="no"?>
<!DOCTYPE svg PUBLIC "-//W3C//DTD SVG 1.1//EN"
 "http://www.w3.org/Graphics/SVG/1.1/DTD/svg11.dtd">
<!-- Generated by graphviz version 2.30.1 (20200304.1809)
 -->
<!-- Title: mbf\nrestore\nall Pages: 1 -->
<svg width="479pt" height="283pt"
 viewBox="0.00 0.00 479.00 283.00" xmlns="http://www.w3.org/2000/svg" xmlns:xlink="http://www.w3.org/1999/xlink">
<g id="graph0" class="graph" transform="scale(1 1) rotate(0) translate(4 279)">
<title>mbf\nrestore\nall</title>
<polygon fill="white" stroke="white" points="-4,5 -4,-279 476,-279 476,5 -4,5"/>
<g id="clust1" class="cluster"><title>cluster_0</title>
<polygon fill="none" stroke="black" points="185,-102 185,-267 463,-267 463,-102 185,-102"/>
<text text-anchor="middle" x="324" y="-251.8" font-family="Times,serif" font-size="14.00">Colour codes</text>
</g>
<!-- mbf\nrestore\nall -->
<g id="node1" class="node"><title>mbf\nrestore\nall</title>
<g id="a_node1"><a xlink:href="http://www.cs.diamond.ac.uk/diagnostics_docs/diagnostics_rep_scan/html_code/Root&gt;rep4&gt;Multi-bunch-feedback-applications&gt;Common.html#mbf_restore_all" xlink:title="mbf\nrestore\nall" target="_top">
<ellipse fill="#dcaa3f" stroke="black" cx="110" cy="-218" rx="37.2152" ry="37.4533"/>
<text text-anchor="middle" x="110" y="-229.3" font-family="Times,serif" font-size="14.00">mbf</text>
<text text-anchor="middle" x="110" y="-214.3" font-family="Times,serif" font-size="14.00">restore</text>
<text text-anchor="middle" x="110" y="-199.3" font-family="Times,serif" font-size="14.00">all</text>
</a>
</g>
</g>
<!-- dir\nlist\ngen -->
<g id="node2" class="node"><title>dir\nlist\ngen</title>
<g id="a_node2"><a xlink:href="http://www.cs.diamond.ac.uk/diagnostics_docs/diagnostics_rep_scan/html_code/Root&gt;rep6&gt;matlab-dependency-analysis&gt;support_files.html#dir_list_gen" xlink:title="dir\nlist\ngen" target="_top">
<ellipse fill="#e9eed9" stroke="black" cx="32" cy="-128" rx="27" ry="37.4533"/>
<text text-anchor="middle" x="32" y="-139.3" font-family="Times,serif" font-size="14.00">dir</text>
<text text-anchor="middle" x="32" y="-124.3" font-family="Times,serif" font-size="14.00">list</text>
<text text-anchor="middle" x="32" y="-109.3" font-family="Times,serif" font-size="14.00">gen</text>
</a>
</g>
</g>
<!-- mbf\nrestore\nall&#45;&gt;dir\nlist\ngen -->
<g id="edge1" class="edge"><title>mbf\nrestore\nall&#45;&gt;dir\nlist\ngen</title>
<path fill="none" stroke="black" d="M85.3203,-189.156C77.0913,-179.872 67.8745,-169.474 59.4485,-159.967"/>
<polygon fill="black" stroke="black" points="61.8479,-157.398 52.5956,-152.236 56.6095,-162.041 61.8479,-157.398"/>
</g>
<!-- mbf\nrestore\npv -->
<g id="node4" class="node"><title>mbf\nrestore\npv</title>
<g id="a_node4"><a xlink:href="http://www.cs.diamond.ac.uk/diagnostics_docs/diagnostics_rep_scan/html_code/Root&gt;rep4&gt;Multi-bunch-feedback-applications&gt;Common.html#mbf_restore_pv" xlink:title="mbf\nrestore\npv" target="_top">
<ellipse fill="#dcaa3f" stroke="black" cx="110" cy="-128" rx="37.2152" ry="37.4533"/>
<text text-anchor="middle" x="110" y="-139.3" font-family="Times,serif" font-size="14.00">mbf</text>
<text text-anchor="middle" x="110" y="-124.3" font-family="Times,serif" font-size="14.00">restore</text>
<text text-anchor="middle" x="110" y="-109.3" font-family="Times,serif" font-size="14.00">pv</text>
</a>
</g>
</g>
<!-- mbf\nrestore\nall&#45;&gt;mbf\nrestore\npv -->
<g id="edge3" class="edge"><title>mbf\nrestore\nall&#45;&gt;mbf\nrestore\npv</title>
<path fill="none" stroke="black" d="M110,-180.445C110,-178.91 110,-177.363 110,-175.811"/>
<polygon fill="black" stroke="black" points="113.5,-175.583 110,-165.583 106.5,-175.583 113.5,-175.583"/>
</g>
<!-- mbf\nsystem\nconfig -->
<g id="node5" class="node"><title>mbf\nsystem\nconfig</title>
<g id="a_node5"><a xlink:href="http://www.cs.diamond.ac.uk/diagnostics_docs/diagnostics_rep_scan/html_code/Root&gt;rep4&gt;Multi-bunch-feedback-applications&gt;Common.html#mbf_system_config" xlink:title="mbf\nsystem\nconfig" target="_top">
<ellipse fill="#dcaa3f" stroke="black" cx="143" cy="-38" rx="38.2761" ry="37.4533"/>
<text text-anchor="middle" x="143" y="-49.3" font-family="Times,serif" font-size="14.00">mbf</text>
<text text-anchor="middle" x="143" y="-34.3" font-family="Times,serif" font-size="14.00">system</text>
<text text-anchor="middle" x="143" y="-19.3" font-family="Times,serif" font-size="14.00">config</text>
</a>
</g>
</g>
<!-- mbf\nrestore\nall&#45;&gt;mbf\nsystem\nconfig -->
<g id="edge5" class="edge"><title>mbf\nrestore\nall&#45;&gt;mbf\nsystem\nconfig</title>
<path fill="none" stroke="black" d="M137.344,-192.398C144.094,-184.686 150.414,-175.646 154,-166 163.692,-139.928 161.216,-108.845 156.184,-83.9555"/>
<polygon fill="black" stroke="black" points="159.569,-83.0528 153.984,-74.0498 152.736,-84.5709 159.569,-83.0528"/>
</g>
<!-- cat\nmulti\ndim -->
<g id="node3" class="node"><title>cat\nmulti\ndim</title>
<g id="a_node3"><a xlink:href="http://www.cs.diamond.ac.uk/diagnostics_docs/diagnostics_rep_scan/html_code/Root&gt;rep6&gt;matlab-dependency-analysis&gt;support_files.html#cat_multi_dim" xlink:title="cat\nmulti\ndim" target="_top">
<ellipse fill="#e9eed9" stroke="black" cx="32" cy="-38" rx="32.2902" ry="37.4533"/>
<text text-anchor="middle" x="32" y="-49.3" font-family="Times,serif" font-size="14.00">cat</text>
<text text-anchor="middle" x="32" y="-34.3" font-family="Times,serif" font-size="14.00">multi</text>
<text text-anchor="middle" x="32" y="-19.3" font-family="Times,serif" font-size="14.00">dim</text>
</a>
</g>
</g>
<!-- dir\nlist\ngen&#45;&gt;cat\nmulti\ndim -->
<g id="edge2" class="edge"><title>dir\nlist\ngen&#45;&gt;cat\nmulti\ndim</title>
<path fill="none" stroke="black" d="M32,-90.4446C32,-88.9099 32,-87.3627 32,-85.8108"/>
<polygon fill="black" stroke="black" points="35.5001,-85.5832 32,-75.5833 28.5001,-85.5833 35.5001,-85.5832"/>
</g>
<!-- mbf\nrestore\npv&#45;&gt;mbf\nsystem\nconfig -->
<g id="edge4" class="edge"><title>mbf\nrestore\npv&#45;&gt;mbf\nsystem\nconfig</title>
<path fill="none" stroke="black" d="M122.853,-92.7249C124.085,-89.4403 125.345,-86.0795 126.605,-82.7209"/>
<polygon fill="black" stroke="black" points="129.893,-83.9186 130.128,-73.3263 123.339,-81.4606 129.893,-83.9186"/>
</g>
<!-- Multi&#45;bunch&#45;feedback&#45;applications/Common -->
<g id="node6" class="node"><title>Multi&#45;bunch&#45;feedback&#45;applications/Common</title>
<polygon fill="#dcaa3f" stroke="black" points="455,-236 193,-236 193,-200 455,-200 455,-236"/>
<text text-anchor="middle" x="324" y="-214.3" font-family="Times,serif" font-size="14.00">Multi&#45;bunch&#45;feedback&#45;applications/Common</text>
</g>
<!-- matlab&#45;dependency&#45;analysis/support_files -->
<g id="node7" class="node"><title>matlab&#45;dependency&#45;analysis/support_files</title>
<polygon fill="#e9eed9" stroke="black" points="445.25,-146 202.75,-146 202.75,-110 445.25,-110 445.25,-146"/>
<text text-anchor="middle" x="324" y="-124.3" font-family="Times,serif" font-size="14.00">matlab&#45;dependency&#45;analysis/support_files</text>
</g>
<!-- Multi&#45;bunch&#45;feedback&#45;applications/Common&#45;&gt;matlab&#45;dependency&#45;analysis/support_files -->
<g id="edge6" class="edge"><title>Multi&#45;bunch&#45;feedback&#45;applications/Common&#45;&gt;matlab&#45;dependency&#45;analysis/support_files</title>
<path fill="none" stroke="white" d="M324,-189.395C324,-178.857 324,-166.856 324,-156.343"/>
<polygon fill="white" stroke="white" points="320.5,-189.614 324,-199.614 327.5,-189.614 320.5,-189.614"/>
<polygon fill="white" stroke="white" points="327.5,-156.05 324,-146.05 320.5,-156.05 327.5,-156.05"/>
</g>
</g>
</svg>
