<?xml version="1.0" encoding="UTF-8" standalone="no"?>
<!DOCTYPE svg PUBLIC "-//W3C//DTD SVG 1.1//EN"
 "http://www.w3.org/Graphics/SVG/1.1/DTD/svg11.dtd">
<!-- Generated by graphviz version 2.30.1 (20200304.1809)
 -->
<!-- Title: mbf\nemittance\nsetup Pages: 1 -->
<svg width="598pt" height="323pt"
 viewBox="0.00 0.00 598.00 323.00" xmlns="http://www.w3.org/2000/svg" xmlns:xlink="http://www.w3.org/1999/xlink">
<g id="graph0" class="graph" transform="scale(1 1) rotate(0) translate(4 319)">
<title>mbf\nemittance\nsetup</title>
<polygon fill="white" stroke="white" points="-4,5 -4,-319 595,-319 595,5 -4,5"/>
<g id="clust1" class="cluster"><title>cluster_0</title>
<polygon fill="none" stroke="black" points="244,-132 244,-307 582,-307 582,-132 244,-132"/>
<text text-anchor="middle" x="413" y="-291.8" font-family="Times,serif" font-size="14.00">Colour codes</text>
</g>
<!-- mbf\nemittance\nsetup -->
<g id="node1" class="node"><title>mbf\nemittance\nsetup</title>
<g id="a_node1"><a xlink:href="http://www.cs.diamond.ac.uk/diagnostics_docs/diagnostics_rep_scan/html_code/Root&gt;rep4&gt;Multi-bunch-feedback-applications&gt;Emittance_feedback.html#mbf_emittance_setup" xlink:title="mbf\nemittance\nsetup" target="_top">
<ellipse fill="#ddbce6" stroke="black" cx="132" cy="-258" rx="49.2462" ry="37.4533"/>
<text text-anchor="middle" x="132" y="-269.3" font-family="Times,serif" font-size="14.00">mbf</text>
<text text-anchor="middle" x="132" y="-254.3" font-family="Times,serif" font-size="14.00">emittance</text>
<text text-anchor="middle" x="132" y="-239.3" font-family="Times,serif" font-size="14.00">setup</text>
</a>
</g>
</g>
<!-- get\nall\ntunes -->
<g id="node2" class="node"><title>get\nall\ntunes</title>
<g id="a_node2"><a xlink:href="http://www.cs.diamond.ac.uk/diagnostics_docs/diagnostics_rep_scan/html_code/Root&gt;rep4&gt;Multi-bunch-feedback-applications&gt;Common.html#get_all_tunes" xlink:title="get\nall\ntunes" target="_top">
<ellipse fill="#dcaa3f" stroke="black" cx="53" cy="-158" rx="31.233" ry="37.4533"/>
<text text-anchor="middle" x="53" y="-169.3" font-family="Times,serif" font-size="14.00">get</text>
<text text-anchor="middle" x="53" y="-154.3" font-family="Times,serif" font-size="14.00">all</text>
<text text-anchor="middle" x="53" y="-139.3" font-family="Times,serif" font-size="14.00">tunes</text>
</a>
</g>
</g>
<!-- mbf\nemittance\nsetup&#45;&gt;get\nall\ntunes -->
<g id="edge1" class="edge"><title>mbf\nemittance\nsetup&#45;&gt;get\nall\ntunes</title>
<path fill="none" stroke="black" d="M106.787,-225.723C98.5104,-215.456 89.2671,-203.99 80.8096,-193.498"/>
<polygon fill="black" stroke="black" points="83.5252,-191.29 74.5243,-185.701 78.0754,-195.683 83.5252,-191.29"/>
</g>
<!-- mbf\naxis\nto\nname -->
<g id="node3" class="node"><title>mbf\naxis\nto\nname</title>
<g id="a_node3"><a xlink:href="http://www.cs.diamond.ac.uk/diagnostics_docs/diagnostics_rep_scan/html_code/Root&gt;rep4&gt;Multi-bunch-feedback-applications&gt;Emittance_feedback.html#mbf_axis_to_name" xlink:title="mbf\naxis\nto\nname" target="_top">
<ellipse fill="#ddbce6" stroke="black" cx="132" cy="-158" rx="33.3519" ry="48.1667"/>
<text text-anchor="middle" x="132" y="-176.8" font-family="Times,serif" font-size="14.00">mbf</text>
<text text-anchor="middle" x="132" y="-161.8" font-family="Times,serif" font-size="14.00">axis</text>
<text text-anchor="middle" x="132" y="-146.8" font-family="Times,serif" font-size="14.00">to</text>
<text text-anchor="middle" x="132" y="-131.8" font-family="Times,serif" font-size="14.00">name</text>
</a>
</g>
</g>
<!-- mbf\nemittance\nsetup&#45;&gt;mbf\naxis\nto\nname -->
<g id="edge2" class="edge"><title>mbf\nemittance\nsetup&#45;&gt;mbf\naxis\nto\nname</title>
<path fill="none" stroke="black" d="M132,-220.508C132,-219.192 132,-217.863 132,-216.525"/>
<polygon fill="black" stroke="black" points="135.5,-216.166 132,-206.166 128.5,-216.166 135.5,-216.166"/>
</g>
<!-- mbf\nfll\nstart -->
<g id="node4" class="node"><title>mbf\nfll\nstart</title>
<g id="a_node4"><a xlink:href="http://www.cs.diamond.ac.uk/diagnostics_docs/diagnostics_rep_scan/html_code/Root&gt;rep4&gt;Multi-bunch-feedback-applications&gt;Emittance_feedback.html#mbf_fll_start" xlink:title="mbf\nfll\nstart" target="_top">
<ellipse fill="#ddbce6" stroke="black" cx="208" cy="-158" rx="27.9291" ry="37.4533"/>
<text text-anchor="middle" x="208" y="-169.3" font-family="Times,serif" font-size="14.00">mbf</text>
<text text-anchor="middle" x="208" y="-154.3" font-family="Times,serif" font-size="14.00">fll</text>
<text text-anchor="middle" x="208" y="-139.3" font-family="Times,serif" font-size="14.00">start</text>
</a>
</g>
</g>
<!-- mbf\nemittance\nsetup&#45;&gt;mbf\nfll\nstart -->
<g id="edge3" class="edge"><title>mbf\nemittance\nsetup&#45;&gt;mbf\nfll\nstart</title>
<path fill="none" stroke="black" d="M156.808,-225.486C161.849,-219.05 167.106,-212.315 172,-206 175.223,-201.842 178.597,-197.467 181.931,-193.129"/>
<polygon fill="black" stroke="black" points="184.936,-194.963 188.247,-184.899 179.383,-190.701 184.936,-194.963"/>
</g>
<!-- fll\ninitialisation -->
<g id="node5" class="node"><title>fll\ninitialisation</title>
<g id="a_node5"><a xlink:href="http://www.cs.diamond.ac.uk/diagnostics_docs/diagnostics_rep_scan/html_code/Root&gt;rep4&gt;Multi-bunch-feedback-applications&gt;Emittance_feedback.html#fll_initialisation" xlink:title="fll\ninitialisation" target="_top">
<ellipse fill="#ddbce6" stroke="black" cx="59" cy="-48" rx="59.096" ry="26.7407"/>
<text text-anchor="middle" x="59" y="-51.8" font-family="Times,serif" font-size="14.00">fll</text>
<text text-anchor="middle" x="59" y="-36.8" font-family="Times,serif" font-size="14.00">initialisation</text>
</a>
</g>
</g>
<!-- mbf\nfll\nstart&#45;&gt;fll\ninitialisation -->
<g id="edge4" class="edge"><title>mbf\nfll\nstart&#45;&gt;fll\ninitialisation</title>
<path fill="none" stroke="black" d="M190.333,-128.005C185.128,-121.323 178.94,-114.782 172,-110 154.052,-97.6332 144.586,-105.562 125,-96 114.838,-91.0389 104.55,-84.5589 95.2168,-78.0031"/>
<polygon fill="black" stroke="black" points="97.0949,-75.0416 86.9453,-72.0026 92.9845,-80.7077 97.0949,-75.0416"/>
</g>
<!-- mbf\nfll\nbank\nsetup -->
<g id="node6" class="node"><title>mbf\nfll\nbank\nsetup</title>
<g id="a_node6"><a xlink:href="http://www.cs.diamond.ac.uk/diagnostics_docs/diagnostics_rep_scan/html_code/Root&gt;rep4&gt;Multi-bunch-feedback-applications&gt;Emittance_feedback.html#mbf_fll_bank_setup" xlink:title="mbf\nfll\nbank\nsetup" target="_top">
<ellipse fill="#ddbce6" stroke="black" cx="164" cy="-48" rx="31.233" ry="48.1667"/>
<text text-anchor="middle" x="164" y="-66.8" font-family="Times,serif" font-size="14.00">mbf</text>
<text text-anchor="middle" x="164" y="-51.8" font-family="Times,serif" font-size="14.00">fll</text>
<text text-anchor="middle" x="164" y="-36.8" font-family="Times,serif" font-size="14.00">bank</text>
<text text-anchor="middle" x="164" y="-21.8" font-family="Times,serif" font-size="14.00">setup</text>
</a>
</g>
</g>
<!-- mbf\nfll\nstart&#45;&gt;mbf\nfll\nbank\nsetup -->
<g id="edge5" class="edge"><title>mbf\nfll\nstart&#45;&gt;mbf\nfll\nbank\nsetup</title>
<path fill="none" stroke="black" d="M194.799,-124.596C191.49,-116.474 187.863,-107.572 184.296,-98.8173"/>
<polygon fill="black" stroke="black" points="187.481,-97.3596 180.467,-89.4192 180.999,-100.001 187.481,-97.3596"/>
</g>
<!-- mbf\nfll\ndetector\nsetup -->
<g id="node7" class="node"><title>mbf\nfll\ndetector\nsetup</title>
<g id="a_node7"><a xlink:href="http://www.cs.diamond.ac.uk/diagnostics_docs/diagnostics_rep_scan/html_code/Root&gt;rep4&gt;Multi-bunch-feedback-applications&gt;Emittance_feedback.html#mbf_fll_detector_setup" xlink:title="mbf\nfll\ndetector\nsetup" target="_top">
<ellipse fill="#ddbce6" stroke="black" cx="252" cy="-48" rx="42.1401" ry="48.1667"/>
<text text-anchor="middle" x="252" y="-66.8" font-family="Times,serif" font-size="14.00">mbf</text>
<text text-anchor="middle" x="252" y="-51.8" font-family="Times,serif" font-size="14.00">fll</text>
<text text-anchor="middle" x="252" y="-36.8" font-family="Times,serif" font-size="14.00">detector</text>
<text text-anchor="middle" x="252" y="-21.8" font-family="Times,serif" font-size="14.00">setup</text>
</a>
</g>
</g>
<!-- mbf\nfll\nstart&#45;&gt;mbf\nfll\ndetector\nsetup -->
<g id="edge6" class="edge"><title>mbf\nfll\nstart&#45;&gt;mbf\nfll\ndetector\nsetup</title>
<path fill="none" stroke="black" d="M221.201,-124.596C224.153,-117.352 227.357,-109.487 230.546,-101.659"/>
<polygon fill="black" stroke="black" points="233.879,-102.756 234.41,-92.1743 227.396,-100.115 233.879,-102.756"/>
</g>
<!-- mbf\nsystem\nconfig -->
<g id="node8" class="node"><title>mbf\nsystem\nconfig</title>
<g id="a_node8"><a xlink:href="http://www.cs.diamond.ac.uk/diagnostics_docs/diagnostics_rep_scan/html_code/Root&gt;rep4&gt;Multi-bunch-feedback-applications&gt;Common.html#mbf_system_config" xlink:title="mbf\nsystem\nconfig" target="_top">
<ellipse fill="#dcaa3f" stroke="black" cx="347" cy="-48" rx="38.2761" ry="37.4533"/>
<text text-anchor="middle" x="347" y="-59.3" font-family="Times,serif" font-size="14.00">mbf</text>
<text text-anchor="middle" x="347" y="-44.3" font-family="Times,serif" font-size="14.00">system</text>
<text text-anchor="middle" x="347" y="-29.3" font-family="Times,serif" font-size="14.00">config</text>
</a>
</g>
</g>
<!-- mbf\nfll\nstart&#45;&gt;mbf\nsystem\nconfig -->
<g id="edge7" class="edge"><title>mbf\nfll\nstart&#45;&gt;mbf\nsystem\nconfig</title>
<path fill="none" stroke="black" d="M224.329,-126.743C228.974,-120.415 234.555,-114.352 241,-110 263.693,-94.6757 277.138,-109.432 301,-96 306.227,-93.058 311.245,-89.3443 315.921,-85.2996"/>
<polygon fill="black" stroke="black" points="318.534,-87.6473 323.443,-78.2578 313.75,-82.5372 318.534,-87.6473"/>
</g>
<!-- Multi&#45;bunch&#45;feedback&#45;applications/Common -->
<g id="node9" class="node"><title>Multi&#45;bunch&#45;feedback&#45;applications/Common</title>
<polygon fill="#dcaa3f" stroke="black" points="544,-276 282,-276 282,-240 544,-240 544,-276"/>
<text text-anchor="middle" x="413" y="-254.3" font-family="Times,serif" font-size="14.00">Multi&#45;bunch&#45;feedback&#45;applications/Common</text>
</g>
<!-- Multi&#45;bunch&#45;feedback&#45;applications/Emittance_feedback -->
<g id="node10" class="node"><title>Multi&#45;bunch&#45;feedback&#45;applications/Emittance_feedback</title>
<polygon fill="#ddbce6" stroke="black" points="573.25,-176 252.75,-176 252.75,-140 573.25,-140 573.25,-176"/>
<text text-anchor="middle" x="413" y="-154.3" font-family="Times,serif" font-size="14.00">Multi&#45;bunch&#45;feedback&#45;applications/Emittance_feedback</text>
</g>
<!-- Multi&#45;bunch&#45;feedback&#45;applications/Common&#45;&gt;Multi&#45;bunch&#45;feedback&#45;applications/Emittance_feedback -->
<g id="edge8" class="edge"><title>Multi&#45;bunch&#45;feedback&#45;applications/Common&#45;&gt;Multi&#45;bunch&#45;feedback&#45;applications/Emittance_feedback</title>
<path fill="none" stroke="white" d="M413,-229.923C413,-216.372 413,-200.003 413,-186.406"/>
<polygon fill="white" stroke="white" points="409.5,-229.93 413,-239.93 416.5,-229.93 409.5,-229.93"/>
<polygon fill="white" stroke="white" points="416.5,-186.203 413,-176.203 409.5,-186.204 416.5,-186.203"/>
</g>
</g>
</svg>
