<?xml version="1.0" encoding="UTF-8" standalone="no"?>
<!DOCTYPE svg PUBLIC "-//W3C//DTD SVG 1.1//EN"
 "http://www.w3.org/Graphics/SVG/1.1/DTD/svg11.dtd">
<!-- Generated by graphviz version 2.30.1 (20200304.1809)
 -->
<!-- Title: mbf\nmodescan\nsetup Pages: 1 -->
<svg width="412pt" height="303pt"
 viewBox="0.00 0.00 412.00 303.00" xmlns="http://www.w3.org/2000/svg" xmlns:xlink="http://www.w3.org/1999/xlink">
<g id="graph0" class="graph" transform="scale(1 1) rotate(0) translate(4 299)">
<title>mbf\nmodescan\nsetup</title>
<polygon fill="white" stroke="white" points="-4,5 -4,-299 409,-299 409,5 -4,5"/>
<g id="clust1" class="cluster"><title>cluster_0</title>
<polygon fill="none" stroke="black" points="112,-112 112,-287 396,-287 396,-112 112,-112"/>
<text text-anchor="middle" x="254" y="-271.8" font-family="Times,serif" font-size="14.00">Colour codes</text>
</g>
<!-- mbf\nmodescan\nsetup -->
<g id="node1" class="node"><title>mbf\nmodescan\nsetup</title>
<g id="a_node1"><a xlink:href="http://www.cs.diamond.ac.uk/diagnostics_docs/diagnostics_rep_scan/html_code/Root&gt;rep4&gt;Multi-bunch-feedback-applications&gt;Modescan.html#mbf_modescan_setup" xlink:title="mbf\nmodescan\nsetup" target="_top">
<ellipse fill="#e1c74f" stroke="black" cx="50" cy="-238" rx="50.3073" ry="37.4533"/>
<text text-anchor="middle" x="50" y="-249.3" font-family="Times,serif" font-size="14.00">mbf</text>
<text text-anchor="middle" x="50" y="-234.3" font-family="Times,serif" font-size="14.00">modescan</text>
<text text-anchor="middle" x="50" y="-219.3" font-family="Times,serif" font-size="14.00">setup</text>
</a>
</g>
</g>
<!-- mbf\nget\nthen\nput -->
<g id="node2" class="node"><title>mbf\nget\nthen\nput</title>
<g id="a_node2"><a xlink:href="http://www.cs.diamond.ac.uk/diagnostics_docs/diagnostics_rep_scan/html_code/Root&gt;rep4&gt;Multi-bunch-feedback-applications&gt;Common.html#mbf_get_then_put" xlink:title="mbf\nget\nthen\nput" target="_top">
<ellipse fill="#dcaa3f" stroke="black" cx="46" cy="-138" rx="27.9291" ry="48.1667"/>
<text text-anchor="middle" x="46" y="-156.8" font-family="Times,serif" font-size="14.00">mbf</text>
<text text-anchor="middle" x="46" y="-141.8" font-family="Times,serif" font-size="14.00">get</text>
<text text-anchor="middle" x="46" y="-126.8" font-family="Times,serif" font-size="14.00">then</text>
<text text-anchor="middle" x="46" y="-111.8" font-family="Times,serif" font-size="14.00">put</text>
</a>
</g>
</g>
<!-- mbf\nmodescan\nsetup&#45;&gt;mbf\nget\nthen\nput -->
<g id="edge1" class="edge"><title>mbf\nmodescan\nsetup&#45;&gt;mbf\nget\nthen\nput</title>
<path fill="none" stroke="black" d="M48.5105,-200.508C48.4568,-199.192 48.4026,-197.863 48.348,-196.525"/>
<polygon fill="black" stroke="black" points="51.8301,-196.014 47.9251,-186.166 44.836,-196.3 51.8301,-196.014"/>
</g>
<!-- mbf\nsystem\nconfig -->
<g id="node3" class="node"><title>mbf\nsystem\nconfig</title>
<g id="a_node3"><a xlink:href="http://www.cs.diamond.ac.uk/diagnostics_docs/diagnostics_rep_scan/html_code/Root&gt;rep4&gt;Multi-bunch-feedback-applications&gt;Common.html#mbf_system_config" xlink:title="mbf\nsystem\nconfig" target="_top">
<ellipse fill="#dcaa3f" stroke="black" cx="71" cy="-38" rx="38.2761" ry="37.4533"/>
<text text-anchor="middle" x="71" y="-49.3" font-family="Times,serif" font-size="14.00">mbf</text>
<text text-anchor="middle" x="71" y="-34.3" font-family="Times,serif" font-size="14.00">system</text>
<text text-anchor="middle" x="71" y="-19.3" font-family="Times,serif" font-size="14.00">config</text>
</a>
</g>
</g>
<!-- mbf\nmodescan\nsetup&#45;&gt;mbf\nsystem\nconfig -->
<g id="edge3" class="edge"><title>mbf\nmodescan\nsetup&#45;&gt;mbf\nsystem\nconfig</title>
<path fill="none" stroke="black" d="M73.1382,-204.745C76.3798,-198.766 79.2115,-192.386 81,-186 90.2878,-152.839 87.0414,-113.902 81.8753,-84.4348"/>
<polygon fill="black" stroke="black" points="85.2811,-83.6083 79.9853,-74.4319 78.4028,-84.9079 85.2811,-83.6083"/>
</g>
<!-- mbf\nget\nthen\nput&#45;&gt;mbf\nsystem\nconfig -->
<g id="edge2" class="edge"><title>mbf\nget\nthen\nput&#45;&gt;mbf\nsystem\nconfig</title>
<path fill="none" stroke="black" d="M57.0381,-93.7305C57.8238,-90.6508 58.6172,-87.5405 59.4058,-84.4491"/>
<polygon fill="black" stroke="black" points="62.8121,-85.2557 61.8926,-74.7008 56.0293,-83.5253 62.8121,-85.2557"/>
</g>
<!-- Multi&#45;bunch&#45;feedback&#45;applications/Common -->
<g id="node4" class="node"><title>Multi&#45;bunch&#45;feedback&#45;applications/Common</title>
<polygon fill="#dcaa3f" stroke="black" points="385,-256 123,-256 123,-220 385,-220 385,-256"/>
<text text-anchor="middle" x="254" y="-234.3" font-family="Times,serif" font-size="14.00">Multi&#45;bunch&#45;feedback&#45;applications/Common</text>
</g>
<!-- Multi&#45;bunch&#45;feedback&#45;applications/Modescan -->
<g id="node5" class="node"><title>Multi&#45;bunch&#45;feedback&#45;applications/Modescan</title>
<polygon fill="#e1c74f" stroke="black" points="387.25,-156 120.75,-156 120.75,-120 387.25,-120 387.25,-156"/>
<text text-anchor="middle" x="254" y="-134.3" font-family="Times,serif" font-size="14.00">Multi&#45;bunch&#45;feedback&#45;applications/Modescan</text>
</g>
<!-- Multi&#45;bunch&#45;feedback&#45;applications/Common&#45;&gt;Multi&#45;bunch&#45;feedback&#45;applications/Modescan -->
<g id="edge4" class="edge"><title>Multi&#45;bunch&#45;feedback&#45;applications/Common&#45;&gt;Multi&#45;bunch&#45;feedback&#45;applications/Modescan</title>
<path fill="none" stroke="white" d="M254,-209.923C254,-196.372 254,-180.003 254,-166.406"/>
<polygon fill="white" stroke="white" points="250.5,-209.93 254,-219.93 257.5,-209.93 250.5,-209.93"/>
<polygon fill="white" stroke="white" points="257.5,-166.203 254,-156.203 250.5,-166.204 257.5,-166.203"/>
</g>
</g>
</svg>
