<?xml version="1.0" encoding="UTF-8" standalone="no"?>
<!DOCTYPE svg PUBLIC "-//W3C//DTD SVG 1.1//EN"
 "http://www.w3.org/Graphics/SVG/1.1/DTD/svg11.dtd">
<!-- Generated by graphviz version 2.30.1 (20200304.1809)
 -->
<!-- Title: mbf\nbunch\nmotion\nsetup Pages: 1 -->
<svg width="420pt" height="313pt"
 viewBox="0.00 0.00 420.00 313.00" xmlns="http://www.w3.org/2000/svg" xmlns:xlink="http://www.w3.org/1999/xlink">
<g id="graph0" class="graph" transform="scale(1 1) rotate(0) translate(4 309)">
<title>mbf\nbunch\nmotion\nsetup</title>
<polygon fill="white" stroke="white" points="-4,5 -4,-309 417,-309 417,5 -4,5"/>
<g id="clust1" class="cluster"><title>cluster_0</title>
<polygon fill="none" stroke="black" points="96,-112 96,-297 404,-297 404,-112 96,-112"/>
<text text-anchor="middle" x="250" y="-281.8" font-family="Times,serif" font-size="14.00">Colour codes</text>
</g>
<!-- mbf\nbunch\nmotion\nsetup -->
<g id="node1" class="node"><title>mbf\nbunch\nmotion\nsetup</title>
<g id="a_node1"><a xlink:href="http://www.cs.diamond.ac.uk/diagnostics_docs/diagnostics_rep_scan/html_code/Root&gt;rep4&gt;Multi-bunch-feedback-applications&gt;Bunch_motion.html#mbf_bunch_motion_setup" xlink:title="mbf\nbunch\nmotion\nsetup" target="_top">
<ellipse fill="#cba373" stroke="black" cx="39" cy="-248" rx="39.3965" ry="48.1667"/>
<text text-anchor="middle" x="39" y="-266.8" font-family="Times,serif" font-size="14.00">mbf</text>
<text text-anchor="middle" x="39" y="-251.8" font-family="Times,serif" font-size="14.00">bunch</text>
<text text-anchor="middle" x="39" y="-236.8" font-family="Times,serif" font-size="14.00">motion</text>
<text text-anchor="middle" x="39" y="-221.8" font-family="Times,serif" font-size="14.00">setup</text>
</a>
</g>
</g>
<!-- mbf\nget\nthen\nput -->
<g id="node2" class="node"><title>mbf\nget\nthen\nput</title>
<g id="a_node2"><a xlink:href="http://www.cs.diamond.ac.uk/diagnostics_docs/diagnostics_rep_scan/html_code/Root&gt;rep4&gt;Multi-bunch-feedback-applications&gt;Common.html#mbf_get_then_put" xlink:title="mbf\nget\nthen\nput" target="_top">
<ellipse fill="#dcaa3f" stroke="black" cx="30" cy="-138" rx="27.9291" ry="48.1667"/>
<text text-anchor="middle" x="30" y="-156.8" font-family="Times,serif" font-size="14.00">mbf</text>
<text text-anchor="middle" x="30" y="-141.8" font-family="Times,serif" font-size="14.00">get</text>
<text text-anchor="middle" x="30" y="-126.8" font-family="Times,serif" font-size="14.00">then</text>
<text text-anchor="middle" x="30" y="-111.8" font-family="Times,serif" font-size="14.00">put</text>
</a>
</g>
</g>
<!-- mbf\nbunch\nmotion\nsetup&#45;&gt;mbf\nget\nthen\nput -->
<g id="edge1" class="edge"><title>mbf\nbunch\nmotion\nsetup&#45;&gt;mbf\nget\nthen\nput</title>
<path fill="none" stroke="black" d="M35.0787,-199.944C34.9694,-198.633 34.8597,-197.316 34.7498,-195.997"/>
<polygon fill="black" stroke="black" points="38.2261,-195.567 33.9077,-185.892 31.2503,-196.148 38.2261,-195.567"/>
</g>
<!-- mbf\nsystem\nconfig -->
<g id="node3" class="node"><title>mbf\nsystem\nconfig</title>
<g id="a_node3"><a xlink:href="http://www.cs.diamond.ac.uk/diagnostics_docs/diagnostics_rep_scan/html_code/Root&gt;rep4&gt;Multi-bunch-feedback-applications&gt;Common.html#mbf_system_config" xlink:title="mbf\nsystem\nconfig" target="_top">
<ellipse fill="#dcaa3f" stroke="black" cx="55" cy="-38" rx="38.2761" ry="37.4533"/>
<text text-anchor="middle" x="55" y="-49.3" font-family="Times,serif" font-size="14.00">mbf</text>
<text text-anchor="middle" x="55" y="-34.3" font-family="Times,serif" font-size="14.00">system</text>
<text text-anchor="middle" x="55" y="-19.3" font-family="Times,serif" font-size="14.00">config</text>
</a>
</g>
</g>
<!-- mbf\nbunch\nmotion\nsetup&#45;&gt;mbf\nsystem\nconfig -->
<g id="edge3" class="edge"><title>mbf\nbunch\nmotion\nsetup&#45;&gt;mbf\nsystem\nconfig</title>
<path fill="none" stroke="black" d="M58.9543,-206.383C61.4554,-199.714 63.6179,-192.768 65,-186 71.845,-152.483 68.8095,-113.869 64.3485,-84.6294"/>
<polygon fill="black" stroke="black" points="67.7931,-84.0058 62.7251,-74.7017 60.8849,-85.1355 67.7931,-84.0058"/>
</g>
<!-- mbf\nget\nthen\nput&#45;&gt;mbf\nsystem\nconfig -->
<g id="edge2" class="edge"><title>mbf\nget\nthen\nput&#45;&gt;mbf\nsystem\nconfig</title>
<path fill="none" stroke="black" d="M41.0381,-93.7305C41.8238,-90.6508 42.6172,-87.5405 43.4058,-84.4491"/>
<polygon fill="black" stroke="black" points="46.8121,-85.2557 45.8926,-74.7008 40.0293,-83.5253 46.8121,-85.2557"/>
</g>
<!-- Multi&#45;bunch&#45;feedback&#45;applications/Bunch_motion -->
<g id="node4" class="node"><title>Multi&#45;bunch&#45;feedback&#45;applications/Bunch_motion</title>
<polygon fill="#cba373" stroke="black" points="396,-266 104,-266 104,-230 396,-230 396,-266"/>
<text text-anchor="middle" x="250" y="-244.3" font-family="Times,serif" font-size="14.00">Multi&#45;bunch&#45;feedback&#45;applications/Bunch_motion</text>
</g>
<!-- Multi&#45;bunch&#45;feedback&#45;applications/Common -->
<g id="node5" class="node"><title>Multi&#45;bunch&#45;feedback&#45;applications/Common</title>
<polygon fill="#dcaa3f" stroke="black" points="381,-156 119,-156 119,-120 381,-120 381,-156"/>
<text text-anchor="middle" x="250" y="-134.3" font-family="Times,serif" font-size="14.00">Multi&#45;bunch&#45;feedback&#45;applications/Common</text>
</g>
<!-- Multi&#45;bunch&#45;feedback&#45;applications/Bunch_motion&#45;&gt;Multi&#45;bunch&#45;feedback&#45;applications/Common -->
<g id="edge4" class="edge"><title>Multi&#45;bunch&#45;feedback&#45;applications/Bunch_motion&#45;&gt;Multi&#45;bunch&#45;feedback&#45;applications/Common</title>
<path fill="none" stroke="white" d="M250,-219.63C250,-203.301 250,-182.638 250,-166.317"/>
<polygon fill="white" stroke="white" points="246.5,-219.648 250,-229.648 253.5,-219.648 246.5,-219.648"/>
<polygon fill="white" stroke="white" points="253.5,-166.309 250,-156.309 246.5,-166.309 253.5,-166.309"/>
</g>
</g>
</svg>
