<?xml version="1.0" encoding="UTF-8" standalone="no"?>
<!DOCTYPE svg PUBLIC "-//W3C//DTD SVG 1.1//EN"
 "http://www.w3.org/Graphics/SVG/1.1/DTD/svg11.dtd">
<!-- Generated by graphviz version 2.30.1 (20200304.1809)
 -->
<!-- Title: mbf\nspectrum Pages: 1 -->
<svg width="976pt" height="382pt"
 viewBox="0.00 0.00 976.00 382.00" xmlns="http://www.w3.org/2000/svg" xmlns:xlink="http://www.w3.org/1999/xlink">
<g id="graph0" class="graph" transform="scale(1 1) rotate(0) translate(4 378)">
<title>mbf\nspectrum</title>
<polygon fill="white" stroke="white" points="-4,5 -4,-378 973,-378 973,5 -4,5"/>
<g id="clust1" class="cluster"><title>cluster_0</title>
<polygon fill="none" stroke="black" points="680,-102 680,-366 960,-366 960,-102 680,-102"/>
<text text-anchor="middle" x="820" y="-350.8" font-family="Times,serif" font-size="14.00">Colour codes</text>
</g>
<!-- mbf\nspectrum -->
<g id="node1" class="node"><title>mbf\nspectrum</title>
<g id="a_node1"><a xlink:href="http://www.cs.diamond.ac.uk/diagnostics_docs/diagnostics_rep_scan/html_code/Root&gt;rep4&gt;Multi-bunch-feedback-applications&gt;Spectrum.html#mbf_spectrum" xlink:title="mbf\nspectrum" target="_top">
<ellipse fill="#e57732" stroke="black" cx="281" cy="-317" rx="47.065" ry="26.7407"/>
<text text-anchor="middle" x="281" y="-320.8" font-family="Times,serif" font-size="14.00">mbf</text>
<text text-anchor="middle" x="281" y="-305.8" font-family="Times,serif" font-size="14.00">spectrum</text>
</a>
</g>
</g>
<!-- hannwin -->
<g id="node2" class="node"><title>hannwin</title>
<g id="a_node2"><a xlink:href="http://www.cs.diamond.ac.uk/diagnostics_docs/diagnostics_rep_scan/html_code/Root&gt;rep4&gt;Multi-bunch-feedback-applications&gt;Spectrum.html#hannwin" xlink:title="hannwin" target="_top">
<ellipse fill="#e57732" stroke="black" cx="40" cy="-228" rx="39.9464" ry="18"/>
<text text-anchor="middle" x="40" y="-224.3" font-family="Times,serif" font-size="14.00">hannwin</text>
</a>
</g>
</g>
<!-- mbf\nspectrum&#45;&gt;hannwin -->
<g id="edge1" class="edge"><title>mbf\nspectrum&#45;&gt;hannwin</title>
<path fill="none" stroke="black" d="M233.743,-313.839C192.778,-310.253 133.013,-300.801 87,-276 76.423,-270.299 66.6747,-261.46 58.8307,-252.979"/>
<polygon fill="black" stroke="black" points="61.4117,-250.614 52.1933,-245.391 56.143,-255.222 61.4117,-250.614"/>
</g>
<!-- machine\nenvironment -->
<g id="node3" class="node"><title>machine\nenvironment</title>
<g id="a_node3"><a xlink:href="http://www.cs.diamond.ac.uk/diagnostics_docs/diagnostics_rep_scan/html_code/Root&gt;rep4&gt;Multi-bunch-feedback-applications&gt;Common.html#machine_environment" xlink:title="machine\nenvironment" target="_top">
<ellipse fill="#dcaa3f" stroke="black" cx="154" cy="-228" rx="60.1562" ry="26.7407"/>
<text text-anchor="middle" x="154" y="-231.8" font-family="Times,serif" font-size="14.00">machine</text>
<text text-anchor="middle" x="154" y="-216.8" font-family="Times,serif" font-size="14.00">environment</text>
</a>
</g>
</g>
<!-- mbf\nspectrum&#45;&gt;machine\nenvironment -->
<g id="edge2" class="edge"><title>mbf\nspectrum&#45;&gt;machine\nenvironment</title>
<path fill="none" stroke="black" d="M250.997,-296.2C241.383,-289.801 230.714,-282.643 221,-276 212.112,-269.921 202.616,-263.323 193.649,-257.045"/>
<polygon fill="black" stroke="black" points="195.448,-254.032 185.252,-251.152 191.427,-259.762 195.448,-254.032"/>
</g>
<!-- mbf\nget\nthen\nput -->
<g id="node4" class="node"><title>mbf\nget\nthen\nput</title>
<g id="a_node4"><a xlink:href="http://www.cs.diamond.ac.uk/diagnostics_docs/diagnostics_rep_scan/html_code/Root&gt;rep4&gt;Multi-bunch-feedback-applications&gt;Common.html#mbf_get_then_put" xlink:title="mbf\nget\nthen\nput" target="_top">
<ellipse fill="#dcaa3f" stroke="black" cx="256" cy="-228" rx="27.9291" ry="48.1667"/>
<text text-anchor="middle" x="256" y="-246.8" font-family="Times,serif" font-size="14.00">mbf</text>
<text text-anchor="middle" x="256" y="-231.8" font-family="Times,serif" font-size="14.00">get</text>
<text text-anchor="middle" x="256" y="-216.8" font-family="Times,serif" font-size="14.00">then</text>
<text text-anchor="middle" x="256" y="-201.8" font-family="Times,serif" font-size="14.00">put</text>
</a>
</g>
</g>
<!-- mbf\nspectrum&#45;&gt;mbf\nget\nthen\nput -->
<g id="edge3" class="edge"><title>mbf\nspectrum&#45;&gt;mbf\nget\nthen\nput</title>
<path fill="none" stroke="black" d="M273.634,-290.368C272.811,-287.503 271.952,-284.513 271.075,-281.461"/>
<polygon fill="black" stroke="black" points="274.363,-280.228 268.237,-271.584 267.635,-282.162 274.363,-280.228"/>
</g>
<!-- mbf\nrestore\nall -->
<g id="node6" class="node"><title>mbf\nrestore\nall</title>
<g id="a_node6"><a xlink:href="http://www.cs.diamond.ac.uk/diagnostics_docs/diagnostics_rep_scan/html_code/Root&gt;rep4&gt;Multi-bunch-feedback-applications&gt;Common.html#mbf_restore_all" xlink:title="mbf\nrestore\nall" target="_top">
<ellipse fill="#dcaa3f" stroke="black" cx="365" cy="-228" rx="37.2152" ry="37.4533"/>
<text text-anchor="middle" x="365" y="-239.3" font-family="Times,serif" font-size="14.00">mbf</text>
<text text-anchor="middle" x="365" y="-224.3" font-family="Times,serif" font-size="14.00">restore</text>
<text text-anchor="middle" x="365" y="-209.3" font-family="Times,serif" font-size="14.00">all</text>
</a>
</g>
</g>
<!-- mbf\nspectrum&#45;&gt;mbf\nrestore\nall -->
<g id="edge5" class="edge"><title>mbf\nspectrum&#45;&gt;mbf\nrestore\nall</title>
<path fill="none" stroke="black" d="M303.07,-293.142C312.066,-283.824 322.651,-272.861 332.5,-262.661"/>
<polygon fill="black" stroke="black" points="335.081,-265.027 339.509,-255.402 330.045,-260.165 335.081,-265.027"/>
</g>
<!-- mbf\nsystem\nconfig -->
<g id="node5" class="node"><title>mbf\nsystem\nconfig</title>
<g id="a_node5"><a xlink:href="http://www.cs.diamond.ac.uk/diagnostics_docs/diagnostics_rep_scan/html_code/Root&gt;rep4&gt;Multi-bunch-feedback-applications&gt;Common.html#mbf_system_config" xlink:title="mbf\nsystem\nconfig" target="_top">
<ellipse fill="#dcaa3f" stroke="black" cx="332" cy="-38" rx="38.2761" ry="37.4533"/>
<text text-anchor="middle" x="332" y="-49.3" font-family="Times,serif" font-size="14.00">mbf</text>
<text text-anchor="middle" x="332" y="-34.3" font-family="Times,serif" font-size="14.00">system</text>
<text text-anchor="middle" x="332" y="-19.3" font-family="Times,serif" font-size="14.00">config</text>
</a>
</g>
</g>
<!-- mbf\nspectrum&#45;&gt;mbf\nsystem\nconfig -->
<g id="edge11" class="edge"><title>mbf\nspectrum&#45;&gt;mbf\nsystem\nconfig</title>
<path fill="none" stroke="black" d="M288.002,-290.295C289.126,-285.566 290.185,-280.654 291,-276 302.326,-211.311 297.772,-194.155 306,-129"/>
</g>
<!-- save\nto\narchive -->
<g id="node10" class="node"><title>save\nto\narchive</title>
<g id="a_node10"><a xlink:href="http://www.cs.diamond.ac.uk/diagnostics_docs/diagnostics_rep_scan/html_code/Root&gt;rep4&gt;Multi-bunch-feedback-applications&gt;Common.html#save_to_archive" xlink:title="save\nto\narchive" target="_top">
<ellipse fill="#dcaa3f" stroke="black" cx="511" cy="-228" rx="38.3379" ry="37.4533"/>
<text text-anchor="middle" x="511" y="-239.3" font-family="Times,serif" font-size="14.00">save</text>
<text text-anchor="middle" x="511" y="-224.3" font-family="Times,serif" font-size="14.00">to</text>
<text text-anchor="middle" x="511" y="-209.3" font-family="Times,serif" font-size="14.00">archive</text>
</a>
</g>
</g>
<!-- mbf\nspectrum&#45;&gt;save\nto\narchive -->
<g id="edge12" class="edge"><title>mbf\nspectrum&#45;&gt;save\nto\narchive</title>
<path fill="none" stroke="black" d="M322.971,-304.368C348.186,-297.015 380.753,-286.87 409,-276 428.68,-268.427 449.936,-258.865 467.924,-250.345"/>
<polygon fill="black" stroke="black" points="469.496,-253.473 477.007,-246.001 466.476,-247.158 469.496,-253.473"/>
</g>
<!-- mbf\nget\nthen\nput&#45;&gt;mbf\nsystem\nconfig -->
<g id="edge4" class="edge"><title>mbf\nget\nthen\nput&#45;&gt;mbf\nsystem\nconfig</title>
<path fill="none" stroke="black" d="M277.879,-197.478C289.846,-178.904 302.865,-153.824 306,-129"/>
<path fill="none" stroke="black" d="M306,-127C307.831,-112.501 311.688,-97.0937 315.885,-83.2904"/>
<polygon fill="black" stroke="black" points="319.284,-84.1492 318.976,-73.5589 312.613,-82.0299 319.284,-84.1492"/>
</g>
<!-- dir\nlist\ngen -->
<g id="node7" class="node"><title>dir\nlist\ngen</title>
<g id="a_node7"><a xlink:href="http://www.cs.diamond.ac.uk/diagnostics_docs/diagnostics_rep_scan/html_code/Root&gt;rep6&gt;matlab-dependency-analysis&gt;support_files.html#dir_list_gen" xlink:title="dir\nlist\ngen" target="_top">
<ellipse fill="#e9eed9" stroke="black" cx="443" cy="-128" rx="27" ry="37.4533"/>
<text text-anchor="middle" x="443" y="-139.3" font-family="Times,serif" font-size="14.00">dir</text>
<text text-anchor="middle" x="443" y="-124.3" font-family="Times,serif" font-size="14.00">list</text>
<text text-anchor="middle" x="443" y="-109.3" font-family="Times,serif" font-size="14.00">gen</text>
</a>
</g>
</g>
<!-- mbf\nrestore\nall&#45;&gt;dir\nlist\ngen -->
<g id="edge6" class="edge"><title>mbf\nrestore\nall&#45;&gt;dir\nlist\ngen</title>
<path fill="none" stroke="black" d="M387.981,-198.127C397.036,-186.75 407.485,-173.621 416.829,-161.882"/>
<polygon fill="black" stroke="black" points="419.601,-164.019 423.09,-154.015 414.124,-159.659 419.601,-164.019"/>
</g>
<!-- mbf\nrestore\npv -->
<g id="node9" class="node"><title>mbf\nrestore\npv</title>
<g id="a_node9"><a xlink:href="http://www.cs.diamond.ac.uk/diagnostics_docs/diagnostics_rep_scan/html_code/Root&gt;rep4&gt;Multi-bunch-feedback-applications&gt;Common.html#mbf_restore_pv" xlink:title="mbf\nrestore\npv" target="_top">
<ellipse fill="#dcaa3f" stroke="black" cx="365" cy="-128" rx="37.2152" ry="37.4533"/>
<text text-anchor="middle" x="365" y="-139.3" font-family="Times,serif" font-size="14.00">mbf</text>
<text text-anchor="middle" x="365" y="-124.3" font-family="Times,serif" font-size="14.00">restore</text>
<text text-anchor="middle" x="365" y="-109.3" font-family="Times,serif" font-size="14.00">pv</text>
</a>
</g>
</g>
<!-- mbf\nrestore\nall&#45;&gt;mbf\nrestore\npv -->
<g id="edge8" class="edge"><title>mbf\nrestore\nall&#45;&gt;mbf\nrestore\npv</title>
<path fill="none" stroke="black" d="M365,-190.508C365,-185.662 365,-180.64 365,-175.651"/>
<polygon fill="black" stroke="black" points="368.5,-175.522 365,-165.522 361.5,-175.522 368.5,-175.522"/>
</g>
<!-- mbf\nrestore\nall&#45;&gt;mbf\nsystem\nconfig -->
<g id="edge10" class="edge"><title>mbf\nrestore\nall&#45;&gt;mbf\nsystem\nconfig</title>
<path fill="none" stroke="black" d="M337.855,-202.258C320.746,-183.689 302.492,-156.781 306,-129"/>
</g>
<!-- cat\nmulti\ndim -->
<g id="node8" class="node"><title>cat\nmulti\ndim</title>
<g id="a_node8"><a xlink:href="http://www.cs.diamond.ac.uk/diagnostics_docs/diagnostics_rep_scan/html_code/Root&gt;rep6&gt;matlab-dependency-analysis&gt;support_files.html#cat_multi_dim" xlink:title="cat\nmulti\ndim" target="_top">
<ellipse fill="#e9eed9" stroke="black" cx="443" cy="-38" rx="32.2902" ry="37.4533"/>
<text text-anchor="middle" x="443" y="-49.3" font-family="Times,serif" font-size="14.00">cat</text>
<text text-anchor="middle" x="443" y="-34.3" font-family="Times,serif" font-size="14.00">multi</text>
<text text-anchor="middle" x="443" y="-19.3" font-family="Times,serif" font-size="14.00">dim</text>
</a>
</g>
</g>
<!-- dir\nlist\ngen&#45;&gt;cat\nmulti\ndim -->
<g id="edge7" class="edge"><title>dir\nlist\ngen&#45;&gt;cat\nmulti\ndim</title>
<path fill="none" stroke="black" d="M443,-90.4446C443,-88.9099 443,-87.3627 443,-85.8108"/>
<polygon fill="black" stroke="black" points="446.5,-85.5832 443,-75.5833 439.5,-85.5833 446.5,-85.5832"/>
</g>
<!-- mbf\nrestore\npv&#45;&gt;mbf\nsystem\nconfig -->
<g id="edge9" class="edge"><title>mbf\nrestore\npv&#45;&gt;mbf\nsystem\nconfig</title>
<path fill="none" stroke="black" d="M352.147,-92.7249C350.915,-89.4403 349.655,-86.0795 348.395,-82.7209"/>
<polygon fill="black" stroke="black" points="351.661,-81.4606 344.872,-73.3263 345.107,-83.9186 351.661,-81.4606"/>
</g>
<!-- construct\ndatastamped\nfilename -->
<g id="node11" class="node"><title>construct\ndatastamped\nfilename</title>
<g id="a_node11"><a xlink:href="http://www.cs.diamond.ac.uk/diagnostics_docs/diagnostics_rep_scan/html_code/Root&gt;rep4&gt;Multi-bunch-feedback-applications&gt;Common.html#construct_datastamped_filename" xlink:title="construct\ndatastamped\nfilename" target="_top">
<ellipse fill="#dcaa3f" stroke="black" cx="612" cy="-128" rx="60.1562" ry="37.4533"/>
<text text-anchor="middle" x="612" y="-139.3" font-family="Times,serif" font-size="14.00">construct</text>
<text text-anchor="middle" x="612" y="-124.3" font-family="Times,serif" font-size="14.00">datastamped</text>
<text text-anchor="middle" x="612" y="-109.3" font-family="Times,serif" font-size="14.00">filename</text>
</a>
</g>
</g>
<!-- save\nto\narchive&#45;&gt;construct\ndatastamped\nfilename -->
<g id="edge13" class="edge"><title>save\nto\narchive&#45;&gt;construct\ndatastamped\nfilename</title>
<path fill="none" stroke="black" d="M537.801,-200.995C548.444,-190.669 560.902,-178.58 572.539,-167.289"/>
<polygon fill="black" stroke="black" points="575.3,-169.487 580.04,-160.011 570.426,-164.463 575.3,-169.487"/>
</g>
<!-- tree\ngen -->
<g id="node12" class="node"><title>tree\ngen</title>
<g id="a_node12"><a xlink:href="http://www.cs.diamond.ac.uk/diagnostics_docs/diagnostics_rep_scan/html_code/Root&gt;rep4&gt;Multi-bunch-feedback-applications&gt;Common.html#tree_gen" xlink:title="tree\ngen" target="_top">
<ellipse fill="#dcaa3f" stroke="black" cx="511" cy="-128" rx="27" ry="26.7407"/>
<text text-anchor="middle" x="511" y="-131.8" font-family="Times,serif" font-size="14.00">tree</text>
<text text-anchor="middle" x="511" y="-116.8" font-family="Times,serif" font-size="14.00">gen</text>
</a>
</g>
</g>
<!-- save\nto\narchive&#45;&gt;tree\ngen -->
<g id="edge14" class="edge"><title>save\nto\narchive&#45;&gt;tree\ngen</title>
<path fill="none" stroke="black" d="M511,-190.508C511,-182.243 511,-173.47 511,-165.216"/>
<polygon fill="black" stroke="black" points="514.5,-165.117 511,-155.117 507.5,-165.117 514.5,-165.117"/>
</g>
<!-- Multi&#45;bunch&#45;feedback&#45;applications/Common -->
<g id="node13" class="node"><title>Multi&#45;bunch&#45;feedback&#45;applications/Common</title>
<polygon fill="#dcaa3f" stroke="black" points="951,-335 689,-335 689,-299 951,-299 951,-335"/>
<text text-anchor="middle" x="820" y="-313.3" font-family="Times,serif" font-size="14.00">Multi&#45;bunch&#45;feedback&#45;applications/Common</text>
</g>
<!-- Multi&#45;bunch&#45;feedback&#45;applications/Spectrum -->
<g id="node14" class="node"><title>Multi&#45;bunch&#45;feedback&#45;applications/Spectrum</title>
<polygon fill="#e57732" stroke="black" points="951.25,-246 688.75,-246 688.75,-210 951.25,-210 951.25,-246"/>
<text text-anchor="middle" x="820" y="-224.3" font-family="Times,serif" font-size="14.00">Multi&#45;bunch&#45;feedback&#45;applications/Spectrum</text>
</g>
<!-- Multi&#45;bunch&#45;feedback&#45;applications/Common&#45;&gt;Multi&#45;bunch&#45;feedback&#45;applications/Spectrum -->
<g id="edge15" class="edge"><title>Multi&#45;bunch&#45;feedback&#45;applications/Common&#45;&gt;Multi&#45;bunch&#45;feedback&#45;applications/Spectrum</title>
<path fill="none" stroke="white" d="M820,-288.778C820,-278.434 820,-266.655 820,-256.303"/>
<polygon fill="white" stroke="white" points="816.5,-288.812 820,-298.812 823.5,-288.812 816.5,-288.812"/>
<polygon fill="white" stroke="white" points="823.5,-256.153 820,-246.153 816.5,-256.153 823.5,-256.153"/>
</g>
<!-- matlab&#45;dependency&#45;analysis/support_files -->
<g id="node15" class="node"><title>matlab&#45;dependency&#45;analysis/support_files</title>
<polygon fill="#e9eed9" stroke="black" points="941.25,-146 698.75,-146 698.75,-110 941.25,-110 941.25,-146"/>
<text text-anchor="middle" x="820" y="-124.3" font-family="Times,serif" font-size="14.00">matlab&#45;dependency&#45;analysis/support_files</text>
</g>
<!-- Multi&#45;bunch&#45;feedback&#45;applications/Spectrum&#45;&gt;matlab&#45;dependency&#45;analysis/support_files -->
<g id="edge16" class="edge"><title>Multi&#45;bunch&#45;feedback&#45;applications/Spectrum&#45;&gt;matlab&#45;dependency&#45;analysis/support_files</title>
<path fill="none" stroke="white" d="M820,-199.923C820,-186.372 820,-170.003 820,-156.406"/>
<polygon fill="white" stroke="white" points="816.5,-199.93 820,-209.93 823.5,-199.93 816.5,-199.93"/>
<polygon fill="white" stroke="white" points="823.5,-156.203 820,-146.203 816.5,-156.204 823.5,-156.203"/>
</g>
</g>
</svg>
