<?xml version="1.0" encoding="UTF-8" standalone="no"?>
<!DOCTYPE svg PUBLIC "-//W3C//DTD SVG 1.1//EN"
 "http://www.w3.org/Graphics/SVG/1.1/DTD/svg11.dtd">
<!-- Generated by graphviz version 2.30.1 (20200304.1809)
 -->
<!-- Title: mbf\ngrowdamp\narchival\nretrieval Pages: 1 -->
<svg width="565pt" height="403pt"
 viewBox="0.00 0.00 565.00 403.00" xmlns="http://www.w3.org/2000/svg" xmlns:xlink="http://www.w3.org/1999/xlink">
<g id="graph0" class="graph" transform="scale(1 1) rotate(0) translate(4 399)">
<title>mbf\ngrowdamp\narchival\nretrieval</title>
<polygon fill="white" stroke="white" points="-4,5 -4,-399 562,-399 562,5 -4,5"/>
<g id="clust1" class="cluster"><title>cluster_0</title>
<polygon fill="none" stroke="black" points="261,-102 261,-387 549,-387 549,-102 261,-102"/>
<text text-anchor="middle" x="405" y="-371.8" font-family="Times,serif" font-size="14.00">Colour codes</text>
</g>
<!-- mbf\ngrowdamp\narchival\nretrieval -->
<g id="node1" class="node"><title>mbf\ngrowdamp\narchival\nretrieval</title>
<g id="a_node1"><a xlink:href="http://www.cs.diamond.ac.uk/diagnostics_docs/diagnostics_rep_scan/html_code/Root&gt;rep4&gt;Multi-bunch-feedback-applications&gt;Growdamp.html#mbf_growdamp_archival_retrieval" xlink:title="mbf\ngrowdamp\narchival\nretrieval" target="_top">
<ellipse fill="#dec2cf" stroke="black" cx="143" cy="-338" rx="51.99" ry="48.1667"/>
<text text-anchor="middle" x="143" y="-356.8" font-family="Times,serif" font-size="14.00">mbf</text>
<text text-anchor="middle" x="143" y="-341.8" font-family="Times,serif" font-size="14.00">growdamp</text>
<text text-anchor="middle" x="143" y="-326.8" font-family="Times,serif" font-size="14.00">archival</text>
<text text-anchor="middle" x="143" y="-311.8" font-family="Times,serif" font-size="14.00">retrieval</text>
</a>
</g>
</g>
<!-- dir\nlist\ngen\ntree -->
<g id="node2" class="node"><title>dir\nlist\ngen\ntree</title>
<g id="a_node2"><a xlink:href="http://www.cs.diamond.ac.uk/diagnostics_docs/diagnostics_rep_scan/html_code/Root&gt;rep6&gt;matlab-dependency-analysis&gt;support_files.html#dir_list_gen_tree" xlink:title="dir\nlist\ngen\ntree" target="_top">
<ellipse fill="#e9eed9" stroke="black" cx="104" cy="-228" rx="27" ry="48.1667"/>
<text text-anchor="middle" x="104" y="-246.8" font-family="Times,serif" font-size="14.00">dir</text>
<text text-anchor="middle" x="104" y="-231.8" font-family="Times,serif" font-size="14.00">list</text>
<text text-anchor="middle" x="104" y="-216.8" font-family="Times,serif" font-size="14.00">gen</text>
<text text-anchor="middle" x="104" y="-201.8" font-family="Times,serif" font-size="14.00">tree</text>
</a>
</g>
</g>
<!-- mbf\ngrowdamp\narchival\nretrieval&#45;&gt;dir\nlist\ngen\ntree -->
<g id="edge1" class="edge"><title>mbf\ngrowdamp\narchival\nretrieval&#45;&gt;dir\nlist\ngen\ntree</title>
<path fill="none" stroke="black" d="M126.799,-292.137C125.202,-287.714 123.575,-283.207 121.961,-278.739"/>
<polygon fill="black" stroke="black" points="125.158,-277.286 118.469,-269.069 118.574,-279.663 125.158,-277.286"/>
</g>
<!-- mbf\nsystem\nconfig -->
<g id="node7" class="node"><title>mbf\nsystem\nconfig</title>
<g id="a_node7"><a xlink:href="http://www.cs.diamond.ac.uk/diagnostics_docs/diagnostics_rep_scan/html_code/Root&gt;rep4&gt;Multi-bunch-feedback-applications&gt;Common.html#mbf_system_config" xlink:title="mbf\nsystem\nconfig" target="_top">
<ellipse fill="#dcaa3f" stroke="black" cx="183" cy="-228" rx="38.2761" ry="37.4533"/>
<text text-anchor="middle" x="183" y="-239.3" font-family="Times,serif" font-size="14.00">mbf</text>
<text text-anchor="middle" x="183" y="-224.3" font-family="Times,serif" font-size="14.00">system</text>
<text text-anchor="middle" x="183" y="-209.3" font-family="Times,serif" font-size="14.00">config</text>
</a>
</g>
</g>
<!-- mbf\ngrowdamp\narchival\nretrieval&#45;&gt;mbf\nsystem\nconfig -->
<g id="edge6" class="edge"><title>mbf\ngrowdamp\narchival\nretrieval&#45;&gt;mbf\nsystem\nconfig</title>
<path fill="none" stroke="black" d="M159.616,-292.137C161.954,-285.823 164.356,-279.338 166.689,-273.04"/>
<polygon fill="black" stroke="black" points="170.087,-273.942 170.278,-263.349 163.523,-271.511 170.087,-273.942"/>
</g>
<!-- dir\nlist\ngen -->
<g id="node3" class="node"><title>dir\nlist\ngen</title>
<g id="a_node3"><a xlink:href="http://www.cs.diamond.ac.uk/diagnostics_docs/diagnostics_rep_scan/html_code/Root&gt;rep6&gt;matlab-dependency-analysis&gt;support_files.html#dir_list_gen" xlink:title="dir\nlist\ngen" target="_top">
<ellipse fill="#e9eed9" stroke="black" cx="32" cy="-128" rx="27" ry="37.4533"/>
<text text-anchor="middle" x="32" y="-139.3" font-family="Times,serif" font-size="14.00">dir</text>
<text text-anchor="middle" x="32" y="-124.3" font-family="Times,serif" font-size="14.00">list</text>
<text text-anchor="middle" x="32" y="-109.3" font-family="Times,serif" font-size="14.00">gen</text>
</a>
</g>
</g>
<!-- dir\nlist\ngen\ntree&#45;&gt;dir\nlist\ngen -->
<g id="edge2" class="edge"><title>dir\nlist\ngen\ntree&#45;&gt;dir\nlist\ngen</title>
<path fill="none" stroke="black" d="M82.787,-198.127C74.7093,-187.132 65.4293,-174.501 57.0302,-163.069"/>
<polygon fill="black" stroke="black" points="59.8411,-160.983 51.0997,-154.997 54.2,-165.128 59.8411,-160.983"/>
</g>
<!-- os\nslash -->
<g id="node5" class="node"><title>os\nslash</title>
<g id="a_node5"><a xlink:href="http://www.cs.diamond.ac.uk/diagnostics_docs/diagnostics_rep_scan/html_code/Root&gt;rep6&gt;matlab-dependency-analysis&gt;support_files.html#os_slash" xlink:title="os\nslash" target="_top">
<ellipse fill="#e9eed9" stroke="black" cx="104" cy="-128" rx="31.1693" ry="26.7407"/>
<text text-anchor="middle" x="104" y="-131.8" font-family="Times,serif" font-size="14.00">os</text>
<text text-anchor="middle" x="104" y="-116.8" font-family="Times,serif" font-size="14.00">slash</text>
</a>
</g>
</g>
<!-- dir\nlist\ngen\ntree&#45;&gt;os\nslash -->
<g id="edge4" class="edge"><title>dir\nlist\ngen\ntree&#45;&gt;os\nslash</title>
<path fill="none" stroke="black" d="M104,-179.722C104,-174.799 104,-169.852 104,-165.081"/>
<polygon fill="black" stroke="black" points="107.5,-164.995 104,-154.995 100.5,-164.995 107.5,-164.995"/>
</g>
<!-- sub\ndirectories -->
<g id="node6" class="node"><title>sub\ndirectories</title>
<g id="a_node6"><a xlink:href="http://www.cs.diamond.ac.uk/diagnostics_docs/diagnostics_rep_scan/html_code/Root&gt;rep6&gt;matlab-dependency-analysis&gt;support_files.html#sub_directories" xlink:title="sub\ndirectories" target="_top">
<ellipse fill="#e9eed9" stroke="black" cx="201" cy="-128" rx="51.99" ry="26.7407"/>
<text text-anchor="middle" x="201" y="-131.8" font-family="Times,serif" font-size="14.00">sub</text>
<text text-anchor="middle" x="201" y="-116.8" font-family="Times,serif" font-size="14.00">directories</text>
</a>
</g>
</g>
<!-- dir\nlist\ngen\ntree&#45;&gt;sub\ndirectories -->
<g id="edge5" class="edge"><title>dir\nlist\ngen\ntree&#45;&gt;sub\ndirectories</title>
<path fill="none" stroke="black" d="M124.458,-196.231C128.684,-190.619 133.291,-184.972 138,-180 145.705,-171.865 154.712,-163.857 163.465,-156.683"/>
<polygon fill="black" stroke="black" points="165.762,-159.328 171.388,-150.35 161.392,-153.86 165.762,-159.328"/>
</g>
<!-- cat\nmulti\ndim -->
<g id="node4" class="node"><title>cat\nmulti\ndim</title>
<g id="a_node4"><a xlink:href="http://www.cs.diamond.ac.uk/diagnostics_docs/diagnostics_rep_scan/html_code/Root&gt;rep6&gt;matlab-dependency-analysis&gt;support_files.html#cat_multi_dim" xlink:title="cat\nmulti\ndim" target="_top">
<ellipse fill="#e9eed9" stroke="black" cx="32" cy="-38" rx="32.2902" ry="37.4533"/>
<text text-anchor="middle" x="32" y="-49.3" font-family="Times,serif" font-size="14.00">cat</text>
<text text-anchor="middle" x="32" y="-34.3" font-family="Times,serif" font-size="14.00">multi</text>
<text text-anchor="middle" x="32" y="-19.3" font-family="Times,serif" font-size="14.00">dim</text>
</a>
</g>
</g>
<!-- dir\nlist\ngen&#45;&gt;cat\nmulti\ndim -->
<g id="edge3" class="edge"><title>dir\nlist\ngen&#45;&gt;cat\nmulti\ndim</title>
<path fill="none" stroke="black" d="M32,-90.4446C32,-88.9099 32,-87.3627 32,-85.8108"/>
<polygon fill="black" stroke="black" points="35.5001,-85.5832 32,-75.5833 28.5001,-85.5833 35.5001,-85.5832"/>
</g>
<!-- Multi&#45;bunch&#45;feedback&#45;applications/Common -->
<g id="node8" class="node"><title>Multi&#45;bunch&#45;feedback&#45;applications/Common</title>
<polygon fill="#dcaa3f" stroke="black" points="536,-356 274,-356 274,-320 536,-320 536,-356"/>
<text text-anchor="middle" x="405" y="-334.3" font-family="Times,serif" font-size="14.00">Multi&#45;bunch&#45;feedback&#45;applications/Common</text>
</g>
<!-- Multi&#45;bunch&#45;feedback&#45;applications/Growdamp -->
<g id="node9" class="node"><title>Multi&#45;bunch&#45;feedback&#45;applications/Growdamp</title>
<polygon fill="#dec2cf" stroke="black" points="540.25,-246 269.75,-246 269.75,-210 540.25,-210 540.25,-246"/>
<text text-anchor="middle" x="405" y="-224.3" font-family="Times,serif" font-size="14.00">Multi&#45;bunch&#45;feedback&#45;applications/Growdamp</text>
</g>
<!-- Multi&#45;bunch&#45;feedback&#45;applications/Common&#45;&gt;Multi&#45;bunch&#45;feedback&#45;applications/Growdamp -->
<g id="edge7" class="edge"><title>Multi&#45;bunch&#45;feedback&#45;applications/Common&#45;&gt;Multi&#45;bunch&#45;feedback&#45;applications/Growdamp</title>
<path fill="none" stroke="white" d="M405,-309.63C405,-293.301 405,-272.638 405,-256.317"/>
<polygon fill="white" stroke="white" points="401.5,-309.648 405,-319.648 408.5,-309.648 401.5,-309.648"/>
<polygon fill="white" stroke="white" points="408.5,-256.309 405,-246.309 401.5,-256.309 408.5,-256.309"/>
</g>
<!-- matlab&#45;dependency&#45;analysis/support_files -->
<g id="node10" class="node"><title>matlab&#45;dependency&#45;analysis/support_files</title>
<polygon fill="#e9eed9" stroke="black" points="526.25,-146 283.75,-146 283.75,-110 526.25,-110 526.25,-146"/>
<text text-anchor="middle" x="405" y="-124.3" font-family="Times,serif" font-size="14.00">matlab&#45;dependency&#45;analysis/support_files</text>
</g>
<!-- Multi&#45;bunch&#45;feedback&#45;applications/Growdamp&#45;&gt;matlab&#45;dependency&#45;analysis/support_files -->
<g id="edge8" class="edge"><title>Multi&#45;bunch&#45;feedback&#45;applications/Growdamp&#45;&gt;matlab&#45;dependency&#45;analysis/support_files</title>
<path fill="none" stroke="white" d="M405,-199.923C405,-186.372 405,-170.003 405,-156.406"/>
<polygon fill="white" stroke="white" points="401.5,-199.93 405,-209.93 408.5,-199.93 401.5,-199.93"/>
<polygon fill="white" stroke="white" points="408.5,-156.203 405,-146.203 401.5,-156.204 408.5,-156.203"/>
</g>
</g>
</svg>
