<?xml version="1.0" encoding="UTF-8" standalone="no"?>
<!DOCTYPE svg PUBLIC "-//W3C//DTD SVG 1.1//EN"
 "http://www.w3.org/Graphics/SVG/1.1/DTD/svg11.dtd">
<!-- Generated by graphviz version 2.30.1 (20200304.1809)
 -->
<!-- Title: mbf\ngrowdamp\nsetup Pages: 1 -->
<svg width="504pt" height="393pt"
 viewBox="0.00 0.00 504.00 393.00" xmlns="http://www.w3.org/2000/svg" xmlns:xlink="http://www.w3.org/1999/xlink">
<g id="graph0" class="graph" transform="scale(1 1) rotate(0) translate(4 389)">
<title>mbf\ngrowdamp\nsetup</title>
<polygon fill="white" stroke="white" points="-4,5 -4,-389 501,-389 501,5 -4,5"/>
<g id="clust1" class="cluster"><title>cluster_0</title>
<polygon fill="none" stroke="black" points="200,-212 200,-377 488,-377 488,-212 200,-212"/>
<text text-anchor="middle" x="344" y="-361.8" font-family="Times,serif" font-size="14.00">Colour codes</text>
</g>
<!-- mbf\ngrowdamp\nsetup -->
<g id="node1" class="node"><title>mbf\ngrowdamp\nsetup</title>
<g id="a_node1"><a xlink:href="http://www.cs.diamond.ac.uk/diagnostics_docs/diagnostics_rep_scan/html_code/Root&gt;rep4&gt;Multi-bunch-feedback-applications&gt;Growdamp.html#mbf_growdamp_setup" xlink:title="mbf\ngrowdamp\nsetup" target="_top">
<ellipse fill="#dec2cf" stroke="black" cx="107" cy="-328" rx="51.99" ry="37.4533"/>
<text text-anchor="middle" x="107" y="-339.3" font-family="Times,serif" font-size="14.00">mbf</text>
<text text-anchor="middle" x="107" y="-324.3" font-family="Times,serif" font-size="14.00">growdamp</text>
<text text-anchor="middle" x="107" y="-309.3" font-family="Times,serif" font-size="14.00">setup</text>
</a>
</g>
</g>
<!-- mbf\nget\nthen\nput -->
<g id="node2" class="node"><title>mbf\nget\nthen\nput</title>
<g id="a_node2"><a xlink:href="http://www.cs.diamond.ac.uk/diagnostics_docs/diagnostics_rep_scan/html_code/Root&gt;rep4&gt;Multi-bunch-feedback-applications&gt;Common.html#mbf_get_then_put" xlink:title="mbf\nget\nthen\nput" target="_top">
<ellipse fill="#dcaa3f" stroke="black" cx="82" cy="-138" rx="27.9291" ry="48.1667"/>
<text text-anchor="middle" x="82" y="-156.8" font-family="Times,serif" font-size="14.00">mbf</text>
<text text-anchor="middle" x="82" y="-141.8" font-family="Times,serif" font-size="14.00">get</text>
<text text-anchor="middle" x="82" y="-126.8" font-family="Times,serif" font-size="14.00">then</text>
<text text-anchor="middle" x="82" y="-111.8" font-family="Times,serif" font-size="14.00">put</text>
</a>
</g>
</g>
<!-- mbf\ngrowdamp\nsetup&#45;&gt;mbf\nget\nthen\nput -->
<g id="edge1" class="edge"><title>mbf\ngrowdamp\nsetup&#45;&gt;mbf\nget\nthen\nput</title>
<path fill="none" stroke="black" d="M99.5192,-290.847C98.6042,-285.87 97.7346,-280.817 97,-276 93.0072,-249.819 89.663,-220.666 87.1529,-196.006"/>
<polygon fill="black" stroke="black" points="90.6037,-195.337 86.1288,-185.734 83.6382,-196.032 90.6037,-195.337"/>
</g>
<!-- mbf\nset\nbank -->
<g id="node4" class="node"><title>mbf\nset\nbank</title>
<g id="a_node4"><a xlink:href="http://www.cs.diamond.ac.uk/diagnostics_docs/diagnostics_rep_scan/html_code/Root&gt;rep4&gt;Multi-bunch-feedback-applications&gt;Growdamp.html#mbf_set_bank" xlink:title="mbf\nset\nbank" target="_top">
<ellipse fill="#dec2cf" stroke="black" cx="30" cy="-238" rx="30.1093" ry="37.4533"/>
<text text-anchor="middle" x="30" y="-249.3" font-family="Times,serif" font-size="14.00">mbf</text>
<text text-anchor="middle" x="30" y="-234.3" font-family="Times,serif" font-size="14.00">set</text>
<text text-anchor="middle" x="30" y="-219.3" font-family="Times,serif" font-size="14.00">bank</text>
</a>
</g>
</g>
<!-- mbf\ngrowdamp\nsetup&#45;&gt;mbf\nset\nbank -->
<g id="edge3" class="edge"><title>mbf\ngrowdamp\nsetup&#45;&gt;mbf\nset\nbank</title>
<path fill="none" stroke="black" d="M79.6359,-295.727C72.8277,-287.946 65.5112,-279.584 58.6433,-271.735"/>
<polygon fill="black" stroke="black" points="61.1796,-269.319 51.9605,-264.098 55.9115,-273.928 61.1796,-269.319"/>
</g>
<!-- mbf\nset\nstate -->
<g id="node5" class="node"><title>mbf\nset\nstate</title>
<g id="a_node5"><a xlink:href="http://www.cs.diamond.ac.uk/diagnostics_docs/diagnostics_rep_scan/html_code/Root&gt;rep4&gt;Multi-bunch-feedback-applications&gt;Growdamp.html#mbf_set_state" xlink:title="mbf\nset\nstate" target="_top">
<ellipse fill="#dec2cf" stroke="black" cx="133" cy="-238" rx="28.4872" ry="37.4533"/>
<text text-anchor="middle" x="133" y="-249.3" font-family="Times,serif" font-size="14.00">mbf</text>
<text text-anchor="middle" x="133" y="-234.3" font-family="Times,serif" font-size="14.00">set</text>
<text text-anchor="middle" x="133" y="-219.3" font-family="Times,serif" font-size="14.00">state</text>
</a>
</g>
</g>
<!-- mbf\ngrowdamp\nsetup&#45;&gt;mbf\nset\nstate -->
<g id="edge6" class="edge"><title>mbf\ngrowdamp\nsetup&#45;&gt;mbf\nset\nstate</title>
<path fill="none" stroke="black" d="M117.575,-291.207C118.365,-288.533 119.167,-285.818 119.97,-283.102"/>
<polygon fill="black" stroke="black" points="123.378,-283.92 122.855,-273.338 116.665,-281.937 123.378,-283.92"/>
</g>
<!-- mbf\nsystem\nconfig -->
<g id="node3" class="node"><title>mbf\nsystem\nconfig</title>
<g id="a_node3"><a xlink:href="http://www.cs.diamond.ac.uk/diagnostics_docs/diagnostics_rep_scan/html_code/Root&gt;rep4&gt;Multi-bunch-feedback-applications&gt;Common.html#mbf_system_config" xlink:title="mbf\nsystem\nconfig" target="_top">
<ellipse fill="#dcaa3f" stroke="black" cx="82" cy="-38" rx="38.2761" ry="37.4533"/>
<text text-anchor="middle" x="82" y="-49.3" font-family="Times,serif" font-size="14.00">mbf</text>
<text text-anchor="middle" x="82" y="-34.3" font-family="Times,serif" font-size="14.00">system</text>
<text text-anchor="middle" x="82" y="-19.3" font-family="Times,serif" font-size="14.00">config</text>
</a>
</g>
</g>
<!-- mbf\ngrowdamp\nsetup&#45;&gt;mbf\nsystem\nconfig -->
<g id="edge9" class="edge"><title>mbf\ngrowdamp\nsetup&#45;&gt;mbf\nsystem\nconfig</title>
<path fill="none" stroke="black" d="M145.46,-302.417C154.227,-294.985 162.554,-286.08 168,-276 197.14,-222.066 200.517,-198.036 184,-139"/>
</g>
<!-- mbf\nget\nthen\nput&#45;&gt;mbf\nsystem\nconfig -->
<g id="edge2" class="edge"><title>mbf\nget\nthen\nput&#45;&gt;mbf\nsystem\nconfig</title>
<path fill="none" stroke="black" d="M82,-89.7223C82,-88.4008 82,-87.0776 82,-85.7565"/>
<polygon fill="black" stroke="black" points="85.5001,-85.7355 82,-75.7355 78.5001,-85.7356 85.5001,-85.7355"/>
</g>
<!-- mbf\nset\nbank&#45;&gt;mbf\nget\nthen\nput -->
<g id="edge4" class="edge"><title>mbf\nset\nbank&#45;&gt;mbf\nget\nthen\nput</title>
<path fill="none" stroke="black" d="M46.3105,-206.261C50.2067,-198.918 54.4417,-190.937 58.5881,-183.123"/>
<polygon fill="black" stroke="black" points="61.7937,-184.548 63.3892,-174.074 55.6102,-181.267 61.7937,-184.548"/>
</g>
<!-- mbf\nset\nbank&#45;&gt;mbf\nsystem\nconfig -->
<g id="edge5" class="edge"><title>mbf\nset\nbank&#45;&gt;mbf\nsystem\nconfig</title>
<path fill="none" stroke="black" d="M29.3854,-200.52C29.9959,-170.06 33.5312,-125.969 47,-90 48.6993,-85.4619 50.887,-80.9391 53.3382,-76.5671"/>
<polygon fill="black" stroke="black" points="56.4384,-78.206 58.6674,-67.8483 50.4658,-74.5553 56.4384,-78.206"/>
</g>
<!-- mbf\nset\nstate&#45;&gt;mbf\nget\nthen\nput -->
<g id="edge7" class="edge"><title>mbf\nset\nstate&#45;&gt;mbf\nget\nthen\nput</title>
<path fill="none" stroke="black" d="M117.143,-206.529C113.36,-199.26 109.245,-191.353 105.207,-183.594"/>
<polygon fill="black" stroke="black" points="108.248,-181.856 100.527,-174.601 102.039,-185.088 108.248,-181.856"/>
</g>
<!-- mbf\nset\nstate&#45;&gt;mbf\nsystem\nconfig -->
<g id="edge8" class="edge"><title>mbf\nset\nstate&#45;&gt;mbf\nsystem\nconfig</title>
<path fill="none" stroke="black" d="M155.639,-215.141C172.658,-195.975 191.803,-166.891 184,-139"/>
<path fill="none" stroke="black" d="M184,-137C175.122,-105.268 147.529,-79.877 123.278,-62.8976"/>
<polygon fill="black" stroke="black" points="125.127,-59.9232 114.876,-57.246 121.22,-65.7315 125.127,-59.9232"/>
</g>
<!-- Multi&#45;bunch&#45;feedback&#45;applications/Common -->
<g id="node6" class="node"><title>Multi&#45;bunch&#45;feedback&#45;applications/Common</title>
<polygon fill="#dcaa3f" stroke="black" points="475,-346 213,-346 213,-310 475,-310 475,-346"/>
<text text-anchor="middle" x="344" y="-324.3" font-family="Times,serif" font-size="14.00">Multi&#45;bunch&#45;feedback&#45;applications/Common</text>
</g>
<!-- Multi&#45;bunch&#45;feedback&#45;applications/Growdamp -->
<g id="node7" class="node"><title>Multi&#45;bunch&#45;feedback&#45;applications/Growdamp</title>
<polygon fill="#dec2cf" stroke="black" points="479.25,-256 208.75,-256 208.75,-220 479.25,-220 479.25,-256"/>
<text text-anchor="middle" x="344" y="-234.3" font-family="Times,serif" font-size="14.00">Multi&#45;bunch&#45;feedback&#45;applications/Growdamp</text>
</g>
<!-- Multi&#45;bunch&#45;feedback&#45;applications/Common&#45;&gt;Multi&#45;bunch&#45;feedback&#45;applications/Growdamp -->
<g id="edge10" class="edge"><title>Multi&#45;bunch&#45;feedback&#45;applications/Common&#45;&gt;Multi&#45;bunch&#45;feedback&#45;applications/Growdamp</title>
<path fill="none" stroke="white" d="M344,-299.395C344,-288.857 344,-276.856 344,-266.343"/>
<polygon fill="white" stroke="white" points="340.5,-299.614 344,-309.614 347.5,-299.614 340.5,-299.614"/>
<polygon fill="white" stroke="white" points="347.5,-266.05 344,-256.05 340.5,-266.05 347.5,-266.05"/>
</g>
</g>
</svg>
