<?xml version="1.0" encoding="UTF-8" standalone="no"?>
<!DOCTYPE svg PUBLIC "-//W3C//DTD SVG 1.1//EN"
 "http://www.w3.org/Graphics/SVG/1.1/DTD/svg11.dtd">
<!-- Generated by graphviz version 2.30.1 (20200304.1809)
 -->
<!-- Title: mbf\nmodescan\ncapture Pages: 1 -->
<svg width="610pt" height="283pt"
 viewBox="0.00 0.00 610.00 283.00" xmlns="http://www.w3.org/2000/svg" xmlns:xlink="http://www.w3.org/1999/xlink">
<g id="graph0" class="graph" transform="scale(1 1) rotate(0) translate(4 279)">
<title>mbf\nmodescan\ncapture</title>
<polygon fill="white" stroke="white" points="-4,5 -4,-279 607,-279 607,5 -4,5"/>
<g id="clust1" class="cluster"><title>cluster_0</title>
<polygon fill="none" stroke="black" points="310,-102 310,-267 594,-267 594,-102 310,-102"/>
<text text-anchor="middle" x="452" y="-251.8" font-family="Times,serif" font-size="14.00">Colour codes</text>
</g>
<!-- mbf\nmodescan\ncapture -->
<g id="node1" class="node"><title>mbf\nmodescan\ncapture</title>
<g id="a_node1"><a xlink:href="http://www.cs.diamond.ac.uk/diagnostics_docs/diagnostics_rep_scan/html_code/Root&gt;rep4&gt;Multi-bunch-feedback-applications&gt;Modescan.html#mbf_modescan_capture" xlink:title="mbf\nmodescan\ncapture" target="_top">
<ellipse fill="#e1c74f" stroke="black" cx="172" cy="-218" rx="50.3073" ry="37.4533"/>
<text text-anchor="middle" x="172" y="-229.3" font-family="Times,serif" font-size="14.00">mbf</text>
<text text-anchor="middle" x="172" y="-214.3" font-family="Times,serif" font-size="14.00">modescan</text>
<text text-anchor="middle" x="172" y="-199.3" font-family="Times,serif" font-size="14.00">capture</text>
</a>
</g>
</g>
<!-- machine\nenvironment -->
<g id="node2" class="node"><title>machine\nenvironment</title>
<g id="a_node2"><a xlink:href="http://www.cs.diamond.ac.uk/diagnostics_docs/diagnostics_rep_scan/html_code/Root&gt;rep4&gt;Multi-bunch-feedback-applications&gt;Common.html#machine_environment" xlink:title="machine\nenvironment" target="_top">
<ellipse fill="#dcaa3f" stroke="black" cx="60" cy="-128" rx="60.1562" ry="26.7407"/>
<text text-anchor="middle" x="60" y="-131.8" font-family="Times,serif" font-size="14.00">machine</text>
<text text-anchor="middle" x="60" y="-116.8" font-family="Times,serif" font-size="14.00">environment</text>
</a>
</g>
</g>
<!-- mbf\nmodescan\ncapture&#45;&gt;machine\nenvironment -->
<g id="edge1" class="edge"><title>mbf\nmodescan\ncapture&#45;&gt;machine\nenvironment</title>
<path fill="none" stroke="black" d="M138.092,-190.358C125.083,-180.136 110.179,-168.426 96.9019,-157.994"/>
<polygon fill="black" stroke="black" points="98.9025,-155.115 88.8769,-151.689 94.5777,-160.619 98.9025,-155.115"/>
</g>
<!-- mbf\nsystem\nconfig -->
<g id="node3" class="node"><title>mbf\nsystem\nconfig</title>
<g id="a_node3"><a xlink:href="http://www.cs.diamond.ac.uk/diagnostics_docs/diagnostics_rep_scan/html_code/Root&gt;rep4&gt;Multi-bunch-feedback-applications&gt;Common.html#mbf_system_config" xlink:title="mbf\nsystem\nconfig" target="_top">
<ellipse fill="#dcaa3f" stroke="black" cx="172" cy="-128" rx="38.2761" ry="37.4533"/>
<text text-anchor="middle" x="172" y="-139.3" font-family="Times,serif" font-size="14.00">mbf</text>
<text text-anchor="middle" x="172" y="-124.3" font-family="Times,serif" font-size="14.00">system</text>
<text text-anchor="middle" x="172" y="-109.3" font-family="Times,serif" font-size="14.00">config</text>
</a>
</g>
</g>
<!-- mbf\nmodescan\ncapture&#45;&gt;mbf\nsystem\nconfig -->
<g id="edge2" class="edge"><title>mbf\nmodescan\ncapture&#45;&gt;mbf\nsystem\nconfig</title>
<path fill="none" stroke="black" d="M172,-180.445C172,-178.91 172,-177.363 172,-175.811"/>
<polygon fill="black" stroke="black" points="175.5,-175.583 172,-165.583 168.5,-175.583 175.5,-175.583"/>
</g>
<!-- save\nto\narchive -->
<g id="node4" class="node"><title>save\nto\narchive</title>
<g id="a_node4"><a xlink:href="http://www.cs.diamond.ac.uk/diagnostics_docs/diagnostics_rep_scan/html_code/Root&gt;rep4&gt;Multi-bunch-feedback-applications&gt;Common.html#save_to_archive" xlink:title="save\nto\narchive" target="_top">
<ellipse fill="#dcaa3f" stroke="black" cx="263" cy="-128" rx="38.3379" ry="37.4533"/>
<text text-anchor="middle" x="263" y="-139.3" font-family="Times,serif" font-size="14.00">save</text>
<text text-anchor="middle" x="263" y="-124.3" font-family="Times,serif" font-size="14.00">to</text>
<text text-anchor="middle" x="263" y="-109.3" font-family="Times,serif" font-size="14.00">archive</text>
</a>
</g>
</g>
<!-- mbf\nmodescan\ncapture&#45;&gt;save\nto\narchive -->
<g id="edge3" class="edge"><title>mbf\nmodescan\ncapture&#45;&gt;save\nto\narchive</title>
<path fill="none" stroke="black" d="M202.049,-187.942C210.623,-179.65 220.029,-170.555 228.83,-162.044"/>
<polygon fill="black" stroke="black" points="231.294,-164.53 236.049,-155.062 226.427,-159.498 231.294,-164.53"/>
</g>
<!-- construct\ndatastamped\nfilename -->
<g id="node5" class="node"><title>construct\ndatastamped\nfilename</title>
<g id="a_node5"><a xlink:href="http://www.cs.diamond.ac.uk/diagnostics_docs/diagnostics_rep_scan/html_code/Root&gt;rep4&gt;Multi-bunch-feedback-applications&gt;Common.html#construct_datastamped_filename" xlink:title="construct\ndatastamped\nfilename" target="_top">
<ellipse fill="#dcaa3f" stroke="black" cx="213" cy="-38" rx="60.1562" ry="37.4533"/>
<text text-anchor="middle" x="213" y="-49.3" font-family="Times,serif" font-size="14.00">construct</text>
<text text-anchor="middle" x="213" y="-34.3" font-family="Times,serif" font-size="14.00">datastamped</text>
<text text-anchor="middle" x="213" y="-19.3" font-family="Times,serif" font-size="14.00">filename</text>
</a>
</g>
</g>
<!-- save\nto\narchive&#45;&gt;construct\ndatastamped\nfilename -->
<g id="edge4" class="edge"><title>save\nto\narchive&#45;&gt;construct\ndatastamped\nfilename</title>
<path fill="none" stroke="black" d="M244.666,-94.7317C242.41,-90.7615 240.076,-86.6538 237.745,-82.5513"/>
<polygon fill="black" stroke="black" points="240.662,-80.5994 232.678,-73.6339 234.575,-84.0575 240.662,-80.5994"/>
</g>
<!-- tree\ngen -->
<g id="node6" class="node"><title>tree\ngen</title>
<g id="a_node6"><a xlink:href="http://www.cs.diamond.ac.uk/diagnostics_docs/diagnostics_rep_scan/html_code/Root&gt;rep4&gt;Multi-bunch-feedback-applications&gt;Common.html#tree_gen" xlink:title="tree\ngen" target="_top">
<ellipse fill="#dcaa3f" stroke="black" cx="314" cy="-38" rx="27" ry="26.7407"/>
<text text-anchor="middle" x="314" y="-41.8" font-family="Times,serif" font-size="14.00">tree</text>
<text text-anchor="middle" x="314" y="-26.8" font-family="Times,serif" font-size="14.00">gen</text>
</a>
</g>
</g>
<!-- save\nto\narchive&#45;&gt;tree\ngen -->
<g id="edge5" class="edge"><title>save\nto\narchive&#45;&gt;tree\ngen</title>
<path fill="none" stroke="black" d="M281.701,-94.7317C286.278,-86.8342 291.17,-78.3927 295.727,-70.5302"/>
<polygon fill="black" stroke="black" points="298.897,-72.0406 300.883,-61.6336 292.84,-68.5306 298.897,-72.0406"/>
</g>
<!-- Multi&#45;bunch&#45;feedback&#45;applications/Common -->
<g id="node7" class="node"><title>Multi&#45;bunch&#45;feedback&#45;applications/Common</title>
<polygon fill="#dcaa3f" stroke="black" points="583,-236 321,-236 321,-200 583,-200 583,-236"/>
<text text-anchor="middle" x="452" y="-214.3" font-family="Times,serif" font-size="14.00">Multi&#45;bunch&#45;feedback&#45;applications/Common</text>
</g>
<!-- Multi&#45;bunch&#45;feedback&#45;applications/Modescan -->
<g id="node8" class="node"><title>Multi&#45;bunch&#45;feedback&#45;applications/Modescan</title>
<polygon fill="#e1c74f" stroke="black" points="585.25,-146 318.75,-146 318.75,-110 585.25,-110 585.25,-146"/>
<text text-anchor="middle" x="452" y="-124.3" font-family="Times,serif" font-size="14.00">Multi&#45;bunch&#45;feedback&#45;applications/Modescan</text>
</g>
<!-- Multi&#45;bunch&#45;feedback&#45;applications/Common&#45;&gt;Multi&#45;bunch&#45;feedback&#45;applications/Modescan -->
<g id="edge6" class="edge"><title>Multi&#45;bunch&#45;feedback&#45;applications/Common&#45;&gt;Multi&#45;bunch&#45;feedback&#45;applications/Modescan</title>
<path fill="none" stroke="white" d="M452,-189.395C452,-178.857 452,-166.856 452,-156.343"/>
<polygon fill="white" stroke="white" points="448.5,-189.614 452,-199.614 455.5,-189.614 448.5,-189.614"/>
<polygon fill="white" stroke="white" points="455.5,-156.05 452,-146.05 448.5,-156.05 455.5,-156.05"/>
</g>
</g>
</svg>
