<?xml version="1.0" encoding="UTF-8" standalone="no"?>
<!DOCTYPE svg PUBLIC "-//W3C//DTD SVG 1.1//EN"
 "http://www.w3.org/Graphics/SVG/1.1/DTD/svg11.dtd">
<!-- Generated by graphviz version 2.30.1 (20200304.1809)
 -->
<!-- Title: mbf\nemittance\ncontrol Pages: 1 -->
<svg width="573pt" height="413pt"
 viewBox="0.00 0.00 573.00 413.00" xmlns="http://www.w3.org/2000/svg" xmlns:xlink="http://www.w3.org/1999/xlink">
<g id="graph0" class="graph" transform="scale(1 1) rotate(0) translate(4 409)">
<title>mbf\nemittance\ncontrol</title>
<polygon fill="white" stroke="white" points="-4,5 -4,-409 570,-409 570,5 -4,5"/>
<g id="clust1" class="cluster"><title>cluster_0</title>
<polygon fill="none" stroke="black" points="219,-232 219,-397 557,-397 557,-232 219,-232"/>
<text text-anchor="middle" x="388" y="-381.8" font-family="Times,serif" font-size="14.00">Colour codes</text>
</g>
<!-- mbf\nemittance\ncontrol -->
<g id="node1" class="node"><title>mbf\nemittance\ncontrol</title>
<g id="a_node1"><a xlink:href="http://www.cs.diamond.ac.uk/diagnostics_docs/diagnostics_rep_scan/html_code/Root&gt;rep4&gt;Multi-bunch-feedback-applications&gt;Emittance_feedback.html#mbf_emittance_control" xlink:title="mbf\nemittance\ncontrol" target="_top">
<ellipse fill="#ddbce6" stroke="black" cx="105" cy="-348" rx="49.2462" ry="37.4533"/>
<text text-anchor="middle" x="105" y="-359.3" font-family="Times,serif" font-size="14.00">mbf</text>
<text text-anchor="middle" x="105" y="-344.3" font-family="Times,serif" font-size="14.00">emittance</text>
<text text-anchor="middle" x="105" y="-329.3" font-family="Times,serif" font-size="14.00">control</text>
</a>
</g>
</g>
<!-- emittance\ncontrol\nloop -->
<g id="node2" class="node"><title>emittance\ncontrol\nloop</title>
<g id="a_node2"><a xlink:href="http://www.cs.diamond.ac.uk/diagnostics_docs/diagnostics_rep_scan/html_code/Root&gt;rep4&gt;Multi-bunch-feedback-applications&gt;Emittance_feedback.html#emittance_control_loop" xlink:title="emittance\ncontrol\nloop" target="_top">
<ellipse fill="#ddbce6" stroke="black" cx="49" cy="-258" rx="49.2462" ry="37.4533"/>
<text text-anchor="middle" x="49" y="-269.3" font-family="Times,serif" font-size="14.00">emittance</text>
<text text-anchor="middle" x="49" y="-254.3" font-family="Times,serif" font-size="14.00">control</text>
<text text-anchor="middle" x="49" y="-239.3" font-family="Times,serif" font-size="14.00">loop</text>
</a>
</g>
</g>
<!-- mbf\nemittance\ncontrol&#45;&gt;emittance\ncontrol\nloop -->
<g id="edge1" class="edge"><title>mbf\nemittance\ncontrol&#45;&gt;emittance\ncontrol\nloop</title>
<path fill="none" stroke="black" d="M83.9883,-313.982C81.2271,-309.643 78.3691,-305.151 75.5312,-300.692"/>
<polygon fill="black" stroke="black" points="78.451,-298.761 70.1294,-292.203 72.5454,-302.519 78.451,-298.761"/>
</g>
<!-- mbf\nemittance\nsetup -->
<g id="node3" class="node"><title>mbf\nemittance\nsetup</title>
<g id="a_node3"><a xlink:href="http://www.cs.diamond.ac.uk/diagnostics_docs/diagnostics_rep_scan/html_code/Root&gt;rep4&gt;Multi-bunch-feedback-applications&gt;Emittance_feedback.html#mbf_emittance_setup" xlink:title="mbf\nemittance\nsetup" target="_top">
<ellipse fill="#ddbce6" stroke="black" cx="162" cy="-258" rx="49.2462" ry="37.4533"/>
<text text-anchor="middle" x="162" y="-269.3" font-family="Times,serif" font-size="14.00">mbf</text>
<text text-anchor="middle" x="162" y="-254.3" font-family="Times,serif" font-size="14.00">emittance</text>
<text text-anchor="middle" x="162" y="-239.3" font-family="Times,serif" font-size="14.00">setup</text>
</a>
</g>
</g>
<!-- mbf\nemittance\ncontrol&#45;&gt;mbf\nemittance\nsetup -->
<g id="edge2" class="edge"><title>mbf\nemittance\ncontrol&#45;&gt;mbf\nemittance\nsetup</title>
<path fill="none" stroke="black" d="M126.387,-313.982C129.236,-309.583 132.186,-305.028 135.114,-300.509"/>
<polygon fill="black" stroke="black" points="138.184,-302.207 140.683,-291.911 132.309,-298.401 138.184,-302.207"/>
</g>
<!-- get\nall\ntunes -->
<g id="node4" class="node"><title>get\nall\ntunes</title>
<g id="a_node4"><a xlink:href="http://www.cs.diamond.ac.uk/diagnostics_docs/diagnostics_rep_scan/html_code/Root&gt;rep4&gt;Multi-bunch-feedback-applications&gt;Common.html#get_all_tunes" xlink:title="get\nall\ntunes" target="_top">
<ellipse fill="#dcaa3f" stroke="black" cx="83" cy="-158" rx="31.233" ry="37.4533"/>
<text text-anchor="middle" x="83" y="-169.3" font-family="Times,serif" font-size="14.00">get</text>
<text text-anchor="middle" x="83" y="-154.3" font-family="Times,serif" font-size="14.00">all</text>
<text text-anchor="middle" x="83" y="-139.3" font-family="Times,serif" font-size="14.00">tunes</text>
</a>
</g>
</g>
<!-- mbf\nemittance\nsetup&#45;&gt;get\nall\ntunes -->
<g id="edge3" class="edge"><title>mbf\nemittance\nsetup&#45;&gt;get\nall\ntunes</title>
<path fill="none" stroke="black" d="M136.787,-225.723C128.51,-215.456 119.267,-203.99 110.81,-193.498"/>
<polygon fill="black" stroke="black" points="113.525,-191.29 104.524,-185.701 108.075,-195.683 113.525,-191.29"/>
</g>
<!-- mbf\naxis\nto\nname -->
<g id="node5" class="node"><title>mbf\naxis\nto\nname</title>
<g id="a_node5"><a xlink:href="http://www.cs.diamond.ac.uk/diagnostics_docs/diagnostics_rep_scan/html_code/Root&gt;rep4&gt;Multi-bunch-feedback-applications&gt;Emittance_feedback.html#mbf_axis_to_name" xlink:title="mbf\naxis\nto\nname" target="_top">
<ellipse fill="#ddbce6" stroke="black" cx="162" cy="-158" rx="33.3519" ry="48.1667"/>
<text text-anchor="middle" x="162" y="-176.8" font-family="Times,serif" font-size="14.00">mbf</text>
<text text-anchor="middle" x="162" y="-161.8" font-family="Times,serif" font-size="14.00">axis</text>
<text text-anchor="middle" x="162" y="-146.8" font-family="Times,serif" font-size="14.00">to</text>
<text text-anchor="middle" x="162" y="-131.8" font-family="Times,serif" font-size="14.00">name</text>
</a>
</g>
</g>
<!-- mbf\nemittance\nsetup&#45;&gt;mbf\naxis\nto\nname -->
<g id="edge4" class="edge"><title>mbf\nemittance\nsetup&#45;&gt;mbf\naxis\nto\nname</title>
<path fill="none" stroke="black" d="M162,-220.508C162,-219.192 162,-217.863 162,-216.525"/>
<polygon fill="black" stroke="black" points="165.5,-216.166 162,-206.166 158.5,-216.166 165.5,-216.166"/>
</g>
<!-- mbf\nfll\nstart -->
<g id="node6" class="node"><title>mbf\nfll\nstart</title>
<g id="a_node6"><a xlink:href="http://www.cs.diamond.ac.uk/diagnostics_docs/diagnostics_rep_scan/html_code/Root&gt;rep4&gt;Multi-bunch-feedback-applications&gt;Emittance_feedback.html#mbf_fll_start" xlink:title="mbf\nfll\nstart" target="_top">
<ellipse fill="#ddbce6" stroke="black" cx="238" cy="-158" rx="27.9291" ry="37.4533"/>
<text text-anchor="middle" x="238" y="-169.3" font-family="Times,serif" font-size="14.00">mbf</text>
<text text-anchor="middle" x="238" y="-154.3" font-family="Times,serif" font-size="14.00">fll</text>
<text text-anchor="middle" x="238" y="-139.3" font-family="Times,serif" font-size="14.00">start</text>
</a>
</g>
</g>
<!-- mbf\nemittance\nsetup&#45;&gt;mbf\nfll\nstart -->
<g id="edge5" class="edge"><title>mbf\nemittance\nsetup&#45;&gt;mbf\nfll\nstart</title>
<path fill="none" stroke="black" d="M186.808,-225.486C191.849,-219.05 197.106,-212.315 202,-206 205.223,-201.842 208.597,-197.467 211.931,-193.129"/>
<polygon fill="black" stroke="black" points="214.936,-194.963 218.247,-184.899 209.383,-190.701 214.936,-194.963"/>
</g>
<!-- fll\ninitialisation -->
<g id="node7" class="node"><title>fll\ninitialisation</title>
<g id="a_node7"><a xlink:href="http://www.cs.diamond.ac.uk/diagnostics_docs/diagnostics_rep_scan/html_code/Root&gt;rep4&gt;Multi-bunch-feedback-applications&gt;Emittance_feedback.html#fll_initialisation" xlink:title="fll\ninitialisation" target="_top">
<ellipse fill="#ddbce6" stroke="black" cx="89" cy="-48" rx="59.096" ry="26.7407"/>
<text text-anchor="middle" x="89" y="-51.8" font-family="Times,serif" font-size="14.00">fll</text>
<text text-anchor="middle" x="89" y="-36.8" font-family="Times,serif" font-size="14.00">initialisation</text>
</a>
</g>
</g>
<!-- mbf\nfll\nstart&#45;&gt;fll\ninitialisation -->
<g id="edge6" class="edge"><title>mbf\nfll\nstart&#45;&gt;fll\ninitialisation</title>
<path fill="none" stroke="black" d="M220.333,-128.005C215.128,-121.323 208.94,-114.782 202,-110 184.052,-97.6332 174.586,-105.562 155,-96 144.838,-91.0389 134.55,-84.5589 125.217,-78.0031"/>
<polygon fill="black" stroke="black" points="127.095,-75.0416 116.945,-72.0026 122.984,-80.7077 127.095,-75.0416"/>
</g>
<!-- mbf\nfll\nbank\nsetup -->
<g id="node8" class="node"><title>mbf\nfll\nbank\nsetup</title>
<g id="a_node8"><a xlink:href="http://www.cs.diamond.ac.uk/diagnostics_docs/diagnostics_rep_scan/html_code/Root&gt;rep4&gt;Multi-bunch-feedback-applications&gt;Emittance_feedback.html#mbf_fll_bank_setup" xlink:title="mbf\nfll\nbank\nsetup" target="_top">
<ellipse fill="#ddbce6" stroke="black" cx="194" cy="-48" rx="31.233" ry="48.1667"/>
<text text-anchor="middle" x="194" y="-66.8" font-family="Times,serif" font-size="14.00">mbf</text>
<text text-anchor="middle" x="194" y="-51.8" font-family="Times,serif" font-size="14.00">fll</text>
<text text-anchor="middle" x="194" y="-36.8" font-family="Times,serif" font-size="14.00">bank</text>
<text text-anchor="middle" x="194" y="-21.8" font-family="Times,serif" font-size="14.00">setup</text>
</a>
</g>
</g>
<!-- mbf\nfll\nstart&#45;&gt;mbf\nfll\nbank\nsetup -->
<g id="edge7" class="edge"><title>mbf\nfll\nstart&#45;&gt;mbf\nfll\nbank\nsetup</title>
<path fill="none" stroke="black" d="M224.799,-124.596C221.49,-116.474 217.863,-107.572 214.296,-98.8173"/>
<polygon fill="black" stroke="black" points="217.481,-97.3596 210.467,-89.4192 210.999,-100.001 217.481,-97.3596"/>
</g>
<!-- mbf\nfll\ndetector\nsetup -->
<g id="node9" class="node"><title>mbf\nfll\ndetector\nsetup</title>
<g id="a_node9"><a xlink:href="http://www.cs.diamond.ac.uk/diagnostics_docs/diagnostics_rep_scan/html_code/Root&gt;rep4&gt;Multi-bunch-feedback-applications&gt;Emittance_feedback.html#mbf_fll_detector_setup" xlink:title="mbf\nfll\ndetector\nsetup" target="_top">
<ellipse fill="#ddbce6" stroke="black" cx="282" cy="-48" rx="42.1401" ry="48.1667"/>
<text text-anchor="middle" x="282" y="-66.8" font-family="Times,serif" font-size="14.00">mbf</text>
<text text-anchor="middle" x="282" y="-51.8" font-family="Times,serif" font-size="14.00">fll</text>
<text text-anchor="middle" x="282" y="-36.8" font-family="Times,serif" font-size="14.00">detector</text>
<text text-anchor="middle" x="282" y="-21.8" font-family="Times,serif" font-size="14.00">setup</text>
</a>
</g>
</g>
<!-- mbf\nfll\nstart&#45;&gt;mbf\nfll\ndetector\nsetup -->
<g id="edge8" class="edge"><title>mbf\nfll\nstart&#45;&gt;mbf\nfll\ndetector\nsetup</title>
<path fill="none" stroke="black" d="M251.201,-124.596C254.153,-117.352 257.357,-109.487 260.546,-101.659"/>
<polygon fill="black" stroke="black" points="263.879,-102.756 264.41,-92.1743 257.396,-100.115 263.879,-102.756"/>
</g>
<!-- mbf\nsystem\nconfig -->
<g id="node10" class="node"><title>mbf\nsystem\nconfig</title>
<g id="a_node10"><a xlink:href="http://www.cs.diamond.ac.uk/diagnostics_docs/diagnostics_rep_scan/html_code/Root&gt;rep4&gt;Multi-bunch-feedback-applications&gt;Common.html#mbf_system_config" xlink:title="mbf\nsystem\nconfig" target="_top">
<ellipse fill="#dcaa3f" stroke="black" cx="377" cy="-48" rx="38.2761" ry="37.4533"/>
<text text-anchor="middle" x="377" y="-59.3" font-family="Times,serif" font-size="14.00">mbf</text>
<text text-anchor="middle" x="377" y="-44.3" font-family="Times,serif" font-size="14.00">system</text>
<text text-anchor="middle" x="377" y="-29.3" font-family="Times,serif" font-size="14.00">config</text>
</a>
</g>
</g>
<!-- mbf\nfll\nstart&#45;&gt;mbf\nsystem\nconfig -->
<g id="edge9" class="edge"><title>mbf\nfll\nstart&#45;&gt;mbf\nsystem\nconfig</title>
<path fill="none" stroke="black" d="M263.899,-142.09C283.156,-130.519 309.675,-113.541 331,-96 335.519,-92.2828 340.072,-88.1703 344.465,-83.9697"/>
<polygon fill="black" stroke="black" points="347.003,-86.3824 351.672,-76.8715 342.091,-81.3953 347.003,-86.3824"/>
</g>
<!-- Multi&#45;bunch&#45;feedback&#45;applications/Common -->
<g id="node11" class="node"><title>Multi&#45;bunch&#45;feedback&#45;applications/Common</title>
<polygon fill="#dcaa3f" stroke="black" points="519,-366 257,-366 257,-330 519,-330 519,-366"/>
<text text-anchor="middle" x="388" y="-344.3" font-family="Times,serif" font-size="14.00">Multi&#45;bunch&#45;feedback&#45;applications/Common</text>
</g>
<!-- Multi&#45;bunch&#45;feedback&#45;applications/Emittance_feedback -->
<g id="node12" class="node"><title>Multi&#45;bunch&#45;feedback&#45;applications/Emittance_feedback</title>
<polygon fill="#ddbce6" stroke="black" points="548.25,-276 227.75,-276 227.75,-240 548.25,-240 548.25,-276"/>
<text text-anchor="middle" x="388" y="-254.3" font-family="Times,serif" font-size="14.00">Multi&#45;bunch&#45;feedback&#45;applications/Emittance_feedback</text>
</g>
<!-- Multi&#45;bunch&#45;feedback&#45;applications/Common&#45;&gt;Multi&#45;bunch&#45;feedback&#45;applications/Emittance_feedback -->
<g id="edge10" class="edge"><title>Multi&#45;bunch&#45;feedback&#45;applications/Common&#45;&gt;Multi&#45;bunch&#45;feedback&#45;applications/Emittance_feedback</title>
<path fill="none" stroke="white" d="M388,-319.395C388,-308.857 388,-296.856 388,-286.343"/>
<polygon fill="white" stroke="white" points="384.5,-319.614 388,-329.614 391.5,-319.614 384.5,-319.614"/>
<polygon fill="white" stroke="white" points="391.5,-286.05 388,-276.05 384.5,-286.05 391.5,-286.05"/>
</g>
</g>
</svg>
