<?xml version="1.0" encoding="UTF-8" standalone="no"?>
<!DOCTYPE svg PUBLIC "-//W3C//DTD SVG 1.1//EN"
 "http://www.w3.org/Graphics/SVG/1.1/DTD/svg11.dtd">
<!-- Generated by graphviz version 2.30.1 (20200304.1809)
 -->
<!-- Title: mbf\ntransverse\ndamping\ncapture Pages: 1 -->
<svg width="712pt" height="423pt"
 viewBox="0.00 0.00 712.00 423.00" xmlns="http://www.w3.org/2000/svg" xmlns:xlink="http://www.w3.org/1999/xlink">
<g id="graph0" class="graph" transform="scale(1 1) rotate(0) translate(4 419)">
<title>mbf\ntransverse\ndamping\ncapture</title>
<polygon fill="white" stroke="white" points="-4,5 -4,-419 709,-419 709,5 -4,5"/>
<g id="clust1" class="cluster"><title>cluster_0</title>
<polygon fill="none" stroke="black" points="392,-112 392,-407 696,-407 696,-112 392,-112"/>
<text text-anchor="middle" x="544" y="-391.8" font-family="Times,serif" font-size="14.00">Colour codes</text>
</g>
<!-- mbf\ntransverse\ndamping\ncapture -->
<g id="node1" class="node"><title>mbf\ntransverse\ndamping\ncapture</title>
<g id="a_node1"><a xlink:href="http://www.cs.diamond.ac.uk/diagnostics_docs/diagnostics_rep_scan/html_code/Root&gt;rep4&gt;Multi-bunch-feedback-applications&gt;Growdamp.html#mbf_transverse_damping_capture" xlink:title="mbf\ntransverse\ndamping\ncapture" target="_top">
<ellipse fill="#dec2cf" stroke="black" cx="144" cy="-358" rx="50.3073" ry="48.1667"/>
<text text-anchor="middle" x="144" y="-376.8" font-family="Times,serif" font-size="14.00">mbf</text>
<text text-anchor="middle" x="144" y="-361.8" font-family="Times,serif" font-size="14.00">transverse</text>
<text text-anchor="middle" x="144" y="-346.8" font-family="Times,serif" font-size="14.00">damping</text>
<text text-anchor="middle" x="144" y="-331.8" font-family="Times,serif" font-size="14.00">capture</text>
</a>
</g>
</g>
<!-- get\nPinhole\nimage -->
<g id="node2" class="node"><title>get\nPinhole\nimage</title>
<g id="a_node2"><a xlink:href="http://www.cs.diamond.ac.uk/diagnostics_docs/diagnostics_rep_scan/html_code/Root&gt;rep4&gt;Multi-bunch-feedback-applications&gt;other_systems.html#get_Pinhole_image" xlink:title="get\nPinhole\nimage" target="_top">
<ellipse fill="#e6465a" stroke="black" cx="41" cy="-248" rx="41.0183" ry="37.4533"/>
<text text-anchor="middle" x="41" y="-259.3" font-family="Times,serif" font-size="14.00">get</text>
<text text-anchor="middle" x="41" y="-244.3" font-family="Times,serif" font-size="14.00">Pinhole</text>
<text text-anchor="middle" x="41" y="-229.3" font-family="Times,serif" font-size="14.00">image</text>
</a>
</g>
</g>
<!-- mbf\ntransverse\ndamping\ncapture&#45;&gt;get\nPinhole\nimage -->
<g id="edge1" class="edge"><title>mbf\ntransverse\ndamping\ncapture&#45;&gt;get\nPinhole\nimage</title>
<path fill="none" stroke="black" d="M110.559,-321.935C98.9814,-309.796 86.0098,-296.195 74.433,-284.056"/>
<polygon fill="black" stroke="black" points="76.8644,-281.534 67.4299,-276.713 71.7987,-286.365 76.8644,-281.534"/>
</g>
<!-- get\nbeamsize\nfrom\nimage -->
<g id="node3" class="node"><title>get\nbeamsize\nfrom\nimage</title>
<g id="a_node3"><a xlink:href="http://www.cs.diamond.ac.uk/diagnostics_docs/diagnostics_rep_scan/html_code/Root&gt;rep4&gt;Multi-bunch-feedback-applications&gt;other_systems.html#get_beamsize_from_image" xlink:title="get\nbeamsize\nfrom\nimage" target="_top">
<ellipse fill="#e6465a" stroke="black" cx="144" cy="-248" rx="48.125" ry="48.1667"/>
<text text-anchor="middle" x="144" y="-266.8" font-family="Times,serif" font-size="14.00">get</text>
<text text-anchor="middle" x="144" y="-251.8" font-family="Times,serif" font-size="14.00">beamsize</text>
<text text-anchor="middle" x="144" y="-236.8" font-family="Times,serif" font-size="14.00">from</text>
<text text-anchor="middle" x="144" y="-221.8" font-family="Times,serif" font-size="14.00">image</text>
</a>
</g>
</g>
<!-- mbf\ntransverse\ndamping\ncapture&#45;&gt;get\nbeamsize\nfrom\nimage -->
<g id="edge2" class="edge"><title>mbf\ntransverse\ndamping\ncapture&#45;&gt;get\nbeamsize\nfrom\nimage</title>
<path fill="none" stroke="black" d="M144,-309.63C144,-308.663 144,-307.693 144,-306.721"/>
<polygon fill="black" stroke="black" points="147.5,-306.308 144,-296.308 140.5,-306.308 147.5,-306.308"/>
</g>
<!-- mbf\ngrowdamp\ncapture -->
<g id="node4" class="node"><title>mbf\ngrowdamp\ncapture</title>
<g id="a_node4"><a xlink:href="http://www.cs.diamond.ac.uk/diagnostics_docs/diagnostics_rep_scan/html_code/Root&gt;rep4&gt;Multi-bunch-feedback-applications&gt;Growdamp.html#mbf_growdamp_capture" xlink:title="mbf\ngrowdamp\ncapture" target="_top">
<ellipse fill="#dec2cf" stroke="black" cx="258" cy="-248" rx="51.99" ry="37.4533"/>
<text text-anchor="middle" x="258" y="-259.3" font-family="Times,serif" font-size="14.00">mbf</text>
<text text-anchor="middle" x="258" y="-244.3" font-family="Times,serif" font-size="14.00">growdamp</text>
<text text-anchor="middle" x="258" y="-229.3" font-family="Times,serif" font-size="14.00">capture</text>
</a>
</g>
</g>
<!-- mbf\ntransverse\ndamping\ncapture&#45;&gt;mbf\ngrowdamp\ncapture -->
<g id="edge3" class="edge"><title>mbf\ntransverse\ndamping\ncapture&#45;&gt;mbf\ngrowdamp\ncapture</title>
<path fill="none" stroke="black" d="M179.134,-323.715C191.931,-311.592 206.461,-297.826 219.533,-285.443"/>
<polygon fill="black" stroke="black" points="222.184,-287.753 227.036,-278.334 217.369,-282.671 222.184,-287.753"/>
</g>
<!-- machine\nenvironment -->
<g id="node5" class="node"><title>machine\nenvironment</title>
<g id="a_node5"><a xlink:href="http://www.cs.diamond.ac.uk/diagnostics_docs/diagnostics_rep_scan/html_code/Root&gt;rep4&gt;Multi-bunch-feedback-applications&gt;Common.html#machine_environment" xlink:title="machine\nenvironment" target="_top">
<ellipse fill="#dcaa3f" stroke="black" cx="131" cy="-138" rx="60.1562" ry="26.7407"/>
<text text-anchor="middle" x="131" y="-141.8" font-family="Times,serif" font-size="14.00">machine</text>
<text text-anchor="middle" x="131" y="-126.8" font-family="Times,serif" font-size="14.00">environment</text>
</a>
</g>
</g>
<!-- mbf\ngrowdamp\ncapture&#45;&gt;machine\nenvironment -->
<g id="edge4" class="edge"><title>mbf\ngrowdamp\ncapture&#45;&gt;machine\nenvironment</title>
<path fill="none" stroke="black" d="M224.964,-218.906C206.829,-203.484 184.35,-184.368 165.925,-168.7"/>
<polygon fill="black" stroke="black" points="168.187,-166.029 158.302,-162.217 163.653,-171.362 168.187,-166.029"/>
</g>
<!-- mbf\nget\nthen\nput -->
<g id="node6" class="node"><title>mbf\nget\nthen\nput</title>
<g id="a_node6"><a xlink:href="http://www.cs.diamond.ac.uk/diagnostics_docs/diagnostics_rep_scan/html_code/Root&gt;rep4&gt;Multi-bunch-feedback-applications&gt;Common.html#mbf_get_then_put" xlink:title="mbf\nget\nthen\nput" target="_top">
<ellipse fill="#dcaa3f" stroke="black" cx="233" cy="-138" rx="27.9291" ry="48.1667"/>
<text text-anchor="middle" x="233" y="-156.8" font-family="Times,serif" font-size="14.00">mbf</text>
<text text-anchor="middle" x="233" y="-141.8" font-family="Times,serif" font-size="14.00">get</text>
<text text-anchor="middle" x="233" y="-126.8" font-family="Times,serif" font-size="14.00">then</text>
<text text-anchor="middle" x="233" y="-111.8" font-family="Times,serif" font-size="14.00">put</text>
</a>
</g>
</g>
<!-- mbf\ngrowdamp\ncapture&#45;&gt;mbf\nget\nthen\nput -->
<g id="edge5" class="edge"><title>mbf\ngrowdamp\ncapture&#45;&gt;mbf\nget\nthen\nput</title>
<path fill="none" stroke="black" d="M249.606,-210.737C248.279,-205.006 246.883,-198.974 245.487,-192.944"/>
<polygon fill="black" stroke="black" points="248.815,-191.802 243.15,-182.849 241.996,-193.38 248.815,-191.802"/>
</g>
<!-- mbf\nsystem\nconfig -->
<g id="node7" class="node"><title>mbf\nsystem\nconfig</title>
<g id="a_node7"><a xlink:href="http://www.cs.diamond.ac.uk/diagnostics_docs/diagnostics_rep_scan/html_code/Root&gt;rep4&gt;Multi-bunch-feedback-applications&gt;Common.html#mbf_system_config" xlink:title="mbf\nsystem\nconfig" target="_top">
<ellipse fill="#dcaa3f" stroke="black" cx="233" cy="-38" rx="38.2761" ry="37.4533"/>
<text text-anchor="middle" x="233" y="-49.3" font-family="Times,serif" font-size="14.00">mbf</text>
<text text-anchor="middle" x="233" y="-34.3" font-family="Times,serif" font-size="14.00">system</text>
<text text-anchor="middle" x="233" y="-19.3" font-family="Times,serif" font-size="14.00">config</text>
</a>
</g>
</g>
<!-- mbf\ngrowdamp\ncapture&#45;&gt;mbf\nsystem\nconfig -->
<g id="edge7" class="edge"><title>mbf\ngrowdamp\ncapture&#45;&gt;mbf\nsystem\nconfig</title>
<path fill="none" stroke="black" d="M267.498,-210.906C274.349,-178.512 280.419,-130.043 268,-90 266.546,-85.3108 264.495,-80.6698 262.106,-76.2095"/>
<polygon fill="black" stroke="black" points="264.947,-74.1395 256.813,-67.3501 258.937,-77.7298 264.947,-74.1395"/>
</g>
<!-- save\nto\narchive -->
<g id="node8" class="node"><title>save\nto\narchive</title>
<g id="a_node8"><a xlink:href="http://www.cs.diamond.ac.uk/diagnostics_docs/diagnostics_rep_scan/html_code/Root&gt;rep4&gt;Multi-bunch-feedback-applications&gt;Common.html#save_to_archive" xlink:title="save\nto\narchive" target="_top">
<ellipse fill="#dcaa3f" stroke="black" cx="345" cy="-138" rx="38.3379" ry="37.4533"/>
<text text-anchor="middle" x="345" y="-149.3" font-family="Times,serif" font-size="14.00">save</text>
<text text-anchor="middle" x="345" y="-134.3" font-family="Times,serif" font-size="14.00">to</text>
<text text-anchor="middle" x="345" y="-119.3" font-family="Times,serif" font-size="14.00">archive</text>
</a>
</g>
</g>
<!-- mbf\ngrowdamp\ncapture&#45;&gt;save\nto\narchive -->
<g id="edge8" class="edge"><title>mbf\ngrowdamp\ncapture&#45;&gt;save\nto\narchive</title>
<path fill="none" stroke="black" d="M283.632,-215.181C293.5,-202.931 304.853,-188.838 315.089,-176.13"/>
<polygon fill="black" stroke="black" points="318.081,-177.996 321.628,-168.013 312.629,-173.605 318.081,-177.996"/>
</g>
<!-- mbf\nget\nthen\nput&#45;&gt;mbf\nsystem\nconfig -->
<g id="edge6" class="edge"><title>mbf\nget\nthen\nput&#45;&gt;mbf\nsystem\nconfig</title>
<path fill="none" stroke="black" d="M233,-89.7223C233,-88.4008 233,-87.0776 233,-85.7565"/>
<polygon fill="black" stroke="black" points="236.5,-85.7355 233,-75.7355 229.5,-85.7356 236.5,-85.7355"/>
</g>
<!-- construct\ndatastamped\nfilename -->
<g id="node9" class="node"><title>construct\ndatastamped\nfilename</title>
<g id="a_node9"><a xlink:href="http://www.cs.diamond.ac.uk/diagnostics_docs/diagnostics_rep_scan/html_code/Root&gt;rep4&gt;Multi-bunch-feedback-applications&gt;Common.html#construct_datastamped_filename" xlink:title="construct\ndatastamped\nfilename" target="_top">
<ellipse fill="#dcaa3f" stroke="black" cx="345" cy="-38" rx="60.1562" ry="37.4533"/>
<text text-anchor="middle" x="345" y="-49.3" font-family="Times,serif" font-size="14.00">construct</text>
<text text-anchor="middle" x="345" y="-34.3" font-family="Times,serif" font-size="14.00">datastamped</text>
<text text-anchor="middle" x="345" y="-19.3" font-family="Times,serif" font-size="14.00">filename</text>
</a>
</g>
</g>
<!-- save\nto\narchive&#45;&gt;construct\ndatastamped\nfilename -->
<g id="edge9" class="edge"><title>save\nto\narchive&#45;&gt;construct\ndatastamped\nfilename</title>
<path fill="none" stroke="black" d="M345,-100.508C345,-95.6617 345,-90.64 345,-85.6508"/>
<polygon fill="black" stroke="black" points="348.5,-85.522 345,-75.5221 341.5,-85.5221 348.5,-85.522"/>
</g>
<!-- tree\ngen -->
<g id="node10" class="node"><title>tree\ngen</title>
<g id="a_node10"><a xlink:href="http://www.cs.diamond.ac.uk/diagnostics_docs/diagnostics_rep_scan/html_code/Root&gt;rep4&gt;Multi-bunch-feedback-applications&gt;Common.html#tree_gen" xlink:title="tree\ngen" target="_top">
<ellipse fill="#dcaa3f" stroke="black" cx="446" cy="-38" rx="27" ry="26.7407"/>
<text text-anchor="middle" x="446" y="-41.8" font-family="Times,serif" font-size="14.00">tree</text>
<text text-anchor="middle" x="446" y="-26.8" font-family="Times,serif" font-size="14.00">gen</text>
</a>
</g>
</g>
<!-- save\nto\narchive&#45;&gt;tree\ngen -->
<g id="edge10" class="edge"><title>save\nto\narchive&#45;&gt;tree\ngen</title>
<path fill="none" stroke="black" d="M369.423,-108.407C375.508,-102.011 382.235,-95.4995 389,-90 398.286,-82.4513 402.749,-83.5917 412,-76 415.509,-73.1205 418.996,-69.883 422.325,-66.552"/>
<polygon fill="black" stroke="black" points="424.95,-68.8705 429.308,-59.2134 419.879,-64.0451 424.95,-68.8705"/>
</g>
<!-- Multi&#45;bunch&#45;feedback&#45;applications/Common -->
<g id="node11" class="node"><title>Multi&#45;bunch&#45;feedback&#45;applications/Common</title>
<polygon fill="#dcaa3f" stroke="black" points="675,-376 413,-376 413,-340 675,-340 675,-376"/>
<text text-anchor="middle" x="544" y="-354.3" font-family="Times,serif" font-size="14.00">Multi&#45;bunch&#45;feedback&#45;applications/Common</text>
</g>
<!-- Multi&#45;bunch&#45;feedback&#45;applications/Growdamp -->
<g id="node12" class="node"><title>Multi&#45;bunch&#45;feedback&#45;applications/Growdamp</title>
<polygon fill="#dec2cf" stroke="black" points="679.25,-266 408.75,-266 408.75,-230 679.25,-230 679.25,-266"/>
<text text-anchor="middle" x="544" y="-244.3" font-family="Times,serif" font-size="14.00">Multi&#45;bunch&#45;feedback&#45;applications/Growdamp</text>
</g>
<!-- Multi&#45;bunch&#45;feedback&#45;applications/Common&#45;&gt;Multi&#45;bunch&#45;feedback&#45;applications/Growdamp -->
<g id="edge11" class="edge"><title>Multi&#45;bunch&#45;feedback&#45;applications/Common&#45;&gt;Multi&#45;bunch&#45;feedback&#45;applications/Growdamp</title>
<path fill="none" stroke="white" d="M544,-329.63C544,-313.301 544,-292.638 544,-276.317"/>
<polygon fill="white" stroke="white" points="540.5,-329.648 544,-339.648 547.5,-329.648 540.5,-329.648"/>
<polygon fill="white" stroke="white" points="547.5,-276.309 544,-266.309 540.5,-276.309 547.5,-276.309"/>
</g>
<!-- Multi&#45;bunch&#45;feedback&#45;applications/other_systems -->
<g id="node13" class="node"><title>Multi&#45;bunch&#45;feedback&#45;applications/other_systems</title>
<polygon fill="#e6465a" stroke="black" points="687.25,-156 400.75,-156 400.75,-120 687.25,-120 687.25,-156"/>
<text text-anchor="middle" x="544" y="-134.3" font-family="Times,serif" font-size="14.00">Multi&#45;bunch&#45;feedback&#45;applications/other_systems</text>
</g>
<!-- Multi&#45;bunch&#45;feedback&#45;applications/Growdamp&#45;&gt;Multi&#45;bunch&#45;feedback&#45;applications/other_systems -->
<g id="edge12" class="edge"><title>Multi&#45;bunch&#45;feedback&#45;applications/Growdamp&#45;&gt;Multi&#45;bunch&#45;feedback&#45;applications/other_systems</title>
<path fill="none" stroke="white" d="M544,-219.63C544,-203.301 544,-182.638 544,-166.317"/>
<polygon fill="white" stroke="white" points="540.5,-219.648 544,-229.648 547.5,-219.648 540.5,-219.648"/>
<polygon fill="white" stroke="white" points="547.5,-166.309 544,-156.309 540.5,-166.309 547.5,-166.309"/>
</g>
</g>
</svg>
