<?xml version="1.0" encoding="UTF-8" standalone="no"?>
<!DOCTYPE svg PUBLIC "-//W3C//DTD SVG 1.1//EN"
 "http://www.w3.org/Graphics/SVG/1.1/DTD/svg11.dtd">
<!-- Generated by graphviz version 2.30.1 (20200304.1809)
 -->
<!-- Title: mbf\nbunch\nmotion\ncapture Pages: 1 -->
<svg width="789pt" height="313pt"
 viewBox="0.00 0.00 789.00 313.00" xmlns="http://www.w3.org/2000/svg" xmlns:xlink="http://www.w3.org/1999/xlink">
<g id="graph0" class="graph" transform="scale(1 1) rotate(0) translate(4 309)">
<title>mbf\nbunch\nmotion\ncapture</title>
<polygon fill="white" stroke="white" points="-4,5 -4,-309 786,-309 786,5 -4,5"/>
<g id="clust1" class="cluster"><title>cluster_0</title>
<polygon fill="none" stroke="black" points="465,-112 465,-297 773,-297 773,-112 465,-112"/>
<text text-anchor="middle" x="619" y="-281.8" font-family="Times,serif" font-size="14.00">Colour codes</text>
</g>
<!-- mbf\nbunch\nmotion\ncapture -->
<g id="node1" class="node"><title>mbf\nbunch\nmotion\ncapture</title>
<g id="a_node1"><a xlink:href="http://www.cs.diamond.ac.uk/diagnostics_docs/diagnostics_rep_scan/html_code/Root&gt;rep4&gt;Multi-bunch-feedback-applications&gt;Bunch_motion.html#mbf_bunch_motion_capture" xlink:title="mbf\nbunch\nmotion\ncapture" target="_top">
<ellipse fill="#cba373" stroke="black" cx="281" cy="-248" rx="39.3965" ry="48.1667"/>
<text text-anchor="middle" x="281" y="-266.8" font-family="Times,serif" font-size="14.00">mbf</text>
<text text-anchor="middle" x="281" y="-251.8" font-family="Times,serif" font-size="14.00">bunch</text>
<text text-anchor="middle" x="281" y="-236.8" font-family="Times,serif" font-size="14.00">motion</text>
<text text-anchor="middle" x="281" y="-221.8" font-family="Times,serif" font-size="14.00">capture</text>
</a>
</g>
</g>
<!-- machine\nenvironment -->
<g id="node2" class="node"><title>machine\nenvironment</title>
<g id="a_node2"><a xlink:href="http://www.cs.diamond.ac.uk/diagnostics_docs/diagnostics_rep_scan/html_code/Root&gt;rep4&gt;Multi-bunch-feedback-applications&gt;Common.html#machine_environment" xlink:title="machine\nenvironment" target="_top">
<ellipse fill="#dcaa3f" stroke="black" cx="60" cy="-138" rx="60.1562" ry="26.7407"/>
<text text-anchor="middle" x="60" y="-141.8" font-family="Times,serif" font-size="14.00">machine</text>
<text text-anchor="middle" x="60" y="-126.8" font-family="Times,serif" font-size="14.00">environment</text>
</a>
</g>
</g>
<!-- mbf\nbunch\nmotion\ncapture&#45;&gt;machine\nenvironment -->
<g id="edge1" class="edge"><title>mbf\nbunch\nmotion\ncapture&#45;&gt;machine\nenvironment</title>
<path fill="none" stroke="black" d="M243.186,-234.814C211.315,-223.894 164.97,-206.469 127,-186 117.041,-180.631 106.796,-174.055 97.4056,-167.543"/>
<polygon fill="black" stroke="black" points="99.2354,-164.549 89.0548,-161.616 95.1839,-170.258 99.2354,-164.549"/>
</g>
<!-- mbf\nbunch\nmotion\nconfig -->
<g id="node3" class="node"><title>mbf\nbunch\nmotion\nconfig</title>
<g id="a_node3"><a xlink:href="http://www.cs.diamond.ac.uk/diagnostics_docs/diagnostics_rep_scan/html_code/Root&gt;rep4&gt;Multi-bunch-feedback-applications&gt;Bunch_motion.html#mbf_bunch_motion_config" xlink:title="mbf\nbunch\nmotion\nconfig" target="_top">
<ellipse fill="#cba373" stroke="black" cx="174" cy="-138" rx="39.3965" ry="48.1667"/>
<text text-anchor="middle" x="174" y="-156.8" font-family="Times,serif" font-size="14.00">mbf</text>
<text text-anchor="middle" x="174" y="-141.8" font-family="Times,serif" font-size="14.00">bunch</text>
<text text-anchor="middle" x="174" y="-126.8" font-family="Times,serif" font-size="14.00">motion</text>
<text text-anchor="middle" x="174" y="-111.8" font-family="Times,serif" font-size="14.00">config</text>
</a>
</g>
</g>
<!-- mbf\nbunch\nmotion\ncapture&#45;&gt;mbf\nbunch\nmotion\nconfig -->
<g id="edge2" class="edge"><title>mbf\nbunch\nmotion\ncapture&#45;&gt;mbf\nbunch\nmotion\nconfig</title>
<path fill="none" stroke="black" d="M250.91,-216.629C238.715,-204.32 224.5,-189.972 211.631,-176.983"/>
<polygon fill="black" stroke="black" points="213.76,-174.158 204.235,-169.518 208.787,-179.085 213.76,-174.158"/>
</g>
<!-- mbf\nget\nthen\nput -->
<g id="node4" class="node"><title>mbf\nget\nthen\nput</title>
<g id="a_node4"><a xlink:href="http://www.cs.diamond.ac.uk/diagnostics_docs/diagnostics_rep_scan/html_code/Root&gt;rep4&gt;Multi-bunch-feedback-applications&gt;Common.html#mbf_get_then_put" xlink:title="mbf\nget\nthen\nput" target="_top">
<ellipse fill="#dcaa3f" stroke="black" cx="256" cy="-138" rx="27.9291" ry="48.1667"/>
<text text-anchor="middle" x="256" y="-156.8" font-family="Times,serif" font-size="14.00">mbf</text>
<text text-anchor="middle" x="256" y="-141.8" font-family="Times,serif" font-size="14.00">get</text>
<text text-anchor="middle" x="256" y="-126.8" font-family="Times,serif" font-size="14.00">then</text>
<text text-anchor="middle" x="256" y="-111.8" font-family="Times,serif" font-size="14.00">put</text>
</a>
</g>
</g>
<!-- mbf\nbunch\nmotion\ncapture&#45;&gt;mbf\nget\nthen\nput -->
<g id="edge3" class="edge"><title>mbf\nbunch\nmotion\ncapture&#45;&gt;mbf\nget\nthen\nput</title>
<path fill="none" stroke="black" d="M270.47,-201.511C269.807,-198.647 269.137,-195.75 268.466,-192.853"/>
<polygon fill="black" stroke="black" points="271.863,-192.009 266.198,-183.056 265.043,-193.587 271.863,-192.009"/>
</g>
<!-- mbf\nsystem\nconfig -->
<g id="node5" class="node"><title>mbf\nsystem\nconfig</title>
<g id="a_node5"><a xlink:href="http://www.cs.diamond.ac.uk/diagnostics_docs/diagnostics_rep_scan/html_code/Root&gt;rep4&gt;Multi-bunch-feedback-applications&gt;Common.html#mbf_system_config" xlink:title="mbf\nsystem\nconfig" target="_top">
<ellipse fill="#dcaa3f" stroke="black" cx="256" cy="-38" rx="38.2761" ry="37.4533"/>
<text text-anchor="middle" x="256" y="-49.3" font-family="Times,serif" font-size="14.00">mbf</text>
<text text-anchor="middle" x="256" y="-34.3" font-family="Times,serif" font-size="14.00">system</text>
<text text-anchor="middle" x="256" y="-19.3" font-family="Times,serif" font-size="14.00">config</text>
</a>
</g>
</g>
<!-- mbf\nbunch\nmotion\ncapture&#45;&gt;mbf\nsystem\nconfig -->
<g id="edge5" class="edge"><title>mbf\nbunch\nmotion\ncapture&#45;&gt;mbf\nsystem\nconfig</title>
<path fill="none" stroke="black" d="M292.34,-201.66C298.303,-169.741 302.286,-126.391 291,-90 289.546,-85.3108 287.495,-80.6698 285.106,-76.2095"/>
<polygon fill="black" stroke="black" points="287.947,-74.1395 279.813,-67.3501 281.937,-77.7298 287.947,-74.1395"/>
</g>
<!-- save\nto\narchive -->
<g id="node6" class="node"><title>save\nto\narchive</title>
<g id="a_node6"><a xlink:href="http://www.cs.diamond.ac.uk/diagnostics_docs/diagnostics_rep_scan/html_code/Root&gt;rep4&gt;Multi-bunch-feedback-applications&gt;Common.html#save_to_archive" xlink:title="save\nto\narchive" target="_top">
<ellipse fill="#dcaa3f" stroke="black" cx="368" cy="-138" rx="38.3379" ry="37.4533"/>
<text text-anchor="middle" x="368" y="-149.3" font-family="Times,serif" font-size="14.00">save</text>
<text text-anchor="middle" x="368" y="-134.3" font-family="Times,serif" font-size="14.00">to</text>
<text text-anchor="middle" x="368" y="-119.3" font-family="Times,serif" font-size="14.00">archive</text>
</a>
</g>
</g>
<!-- mbf\nbunch\nmotion\ncapture&#45;&gt;save\nto\narchive -->
<g id="edge6" class="edge"><title>mbf\nbunch\nmotion\ncapture&#45;&gt;save\nto\narchive</title>
<path fill="none" stroke="black" d="M308.289,-213.124C317.763,-201.363 328.435,-188.115 338.108,-176.107"/>
<polygon fill="black" stroke="black" points="341.071,-178.008 344.619,-168.025 335.62,-173.617 341.071,-178.008"/>
</g>
<!-- tree\ngen -->
<g id="node8" class="node"><title>tree\ngen</title>
<g id="a_node8"><a xlink:href="http://www.cs.diamond.ac.uk/diagnostics_docs/diagnostics_rep_scan/html_code/Root&gt;rep4&gt;Multi-bunch-feedback-applications&gt;Common.html#tree_gen" xlink:title="tree\ngen" target="_top">
<ellipse fill="#dcaa3f" stroke="black" cx="469" cy="-38" rx="27" ry="26.7407"/>
<text text-anchor="middle" x="469" y="-41.8" font-family="Times,serif" font-size="14.00">tree</text>
<text text-anchor="middle" x="469" y="-26.8" font-family="Times,serif" font-size="14.00">gen</text>
</a>
</g>
</g>
<!-- mbf\nbunch\nmotion\ncapture&#45;&gt;tree\ngen -->
<g id="edge9" class="edge"><title>mbf\nbunch\nmotion\ncapture&#45;&gt;tree\ngen</title>
<path fill="none" stroke="black" d="M319.54,-237.725C348.723,-228.886 387.937,-212.853 413,-186 442.005,-154.924 456.442,-107.293 463.302,-74.7271"/>
<polygon fill="black" stroke="black" points="466.774,-75.2112 465.273,-64.7233 459.906,-73.8585 466.774,-75.2112"/>
</g>
<!-- mbf\nget\nthen\nput&#45;&gt;mbf\nsystem\nconfig -->
<g id="edge4" class="edge"><title>mbf\nget\nthen\nput&#45;&gt;mbf\nsystem\nconfig</title>
<path fill="none" stroke="black" d="M256,-89.7223C256,-88.4008 256,-87.0776 256,-85.7565"/>
<polygon fill="black" stroke="black" points="259.5,-85.7355 256,-75.7355 252.5,-85.7356 259.5,-85.7355"/>
</g>
<!-- construct\ndatastamped\nfilename -->
<g id="node7" class="node"><title>construct\ndatastamped\nfilename</title>
<g id="a_node7"><a xlink:href="http://www.cs.diamond.ac.uk/diagnostics_docs/diagnostics_rep_scan/html_code/Root&gt;rep4&gt;Multi-bunch-feedback-applications&gt;Common.html#construct_datastamped_filename" xlink:title="construct\ndatastamped\nfilename" target="_top">
<ellipse fill="#dcaa3f" stroke="black" cx="368" cy="-38" rx="60.1562" ry="37.4533"/>
<text text-anchor="middle" x="368" y="-49.3" font-family="Times,serif" font-size="14.00">construct</text>
<text text-anchor="middle" x="368" y="-34.3" font-family="Times,serif" font-size="14.00">datastamped</text>
<text text-anchor="middle" x="368" y="-19.3" font-family="Times,serif" font-size="14.00">filename</text>
</a>
</g>
</g>
<!-- save\nto\narchive&#45;&gt;construct\ndatastamped\nfilename -->
<g id="edge7" class="edge"><title>save\nto\narchive&#45;&gt;construct\ndatastamped\nfilename</title>
<path fill="none" stroke="black" d="M368,-100.508C368,-95.6617 368,-90.64 368,-85.6508"/>
<polygon fill="black" stroke="black" points="371.5,-85.522 368,-75.5221 364.5,-85.5221 371.5,-85.522"/>
</g>
<!-- save\nto\narchive&#45;&gt;tree\ngen -->
<g id="edge8" class="edge"><title>save\nto\narchive&#45;&gt;tree\ngen</title>
<path fill="none" stroke="black" d="M396.224,-112.315C408.385,-101.423 422.625,-88.3184 435,-76 438.061,-72.9535 441.209,-69.7019 444.296,-66.4382"/>
<polygon fill="black" stroke="black" points="447.069,-68.5966 451.32,-58.8923 441.945,-63.8272 447.069,-68.5966"/>
</g>
<!-- Multi&#45;bunch&#45;feedback&#45;applications/Bunch_motion -->
<g id="node9" class="node"><title>Multi&#45;bunch&#45;feedback&#45;applications/Bunch_motion</title>
<polygon fill="#cba373" stroke="black" points="765,-266 473,-266 473,-230 765,-230 765,-266"/>
<text text-anchor="middle" x="619" y="-244.3" font-family="Times,serif" font-size="14.00">Multi&#45;bunch&#45;feedback&#45;applications/Bunch_motion</text>
</g>
<!-- Multi&#45;bunch&#45;feedback&#45;applications/Common -->
<g id="node10" class="node"><title>Multi&#45;bunch&#45;feedback&#45;applications/Common</title>
<polygon fill="#dcaa3f" stroke="black" points="750,-156 488,-156 488,-120 750,-120 750,-156"/>
<text text-anchor="middle" x="619" y="-134.3" font-family="Times,serif" font-size="14.00">Multi&#45;bunch&#45;feedback&#45;applications/Common</text>
</g>
<!-- Multi&#45;bunch&#45;feedback&#45;applications/Bunch_motion&#45;&gt;Multi&#45;bunch&#45;feedback&#45;applications/Common -->
<g id="edge10" class="edge"><title>Multi&#45;bunch&#45;feedback&#45;applications/Bunch_motion&#45;&gt;Multi&#45;bunch&#45;feedback&#45;applications/Common</title>
<path fill="none" stroke="white" d="M619,-219.63C619,-203.301 619,-182.638 619,-166.317"/>
<polygon fill="white" stroke="white" points="615.5,-219.648 619,-229.648 622.5,-219.648 615.5,-219.648"/>
<polygon fill="white" stroke="white" points="622.5,-166.309 619,-156.309 615.5,-166.309 622.5,-166.309"/>
</g>
</g>
</svg>
