<?xml version="1.0" encoding="UTF-8" standalone="no"?>
<!DOCTYPE svg PUBLIC "-//W3C//DTD SVG 1.1//EN"
 "http://www.w3.org/Graphics/SVG/1.1/DTD/svg11.dtd">
<!-- Generated by graphviz version 2.30.1 (20200304.1809)
 -->
<!-- Title: modscan\nall Pages: 1 -->
<svg width="842pt" height="382pt"
 viewBox="0.00 0.00 842.00 382.00" xmlns="http://www.w3.org/2000/svg" xmlns:xlink="http://www.w3.org/1999/xlink">
<g id="graph0" class="graph" transform="scale(1 1) rotate(0) translate(4 378)">
<title>modscan\nall</title>
<polygon fill="white" stroke="white" points="-4,5 -4,-378 839,-378 839,5 -4,5"/>
<g id="clust1" class="cluster"><title>cluster_0</title>
<polygon fill="none" stroke="black" points="542,-212 542,-366 826,-366 826,-212 542,-212"/>
<text text-anchor="middle" x="684" y="-350.8" font-family="Times,serif" font-size="14.00">Colour codes</text>
</g>
<!-- modscan\nall -->
<g id="node1" class="node"><title>modscan\nall</title>
<g id="a_node1"><a xlink:href="http://www.cs.diamond.ac.uk/diagnostics_docs/diagnostics_rep_scan/html_code/Root&gt;rep4&gt;Multi-bunch-feedback-applications&gt;Modescan.html#modscan_all" xlink:title="modscan\nall" target="_top">
<ellipse fill="#e1c74f" stroke="black" cx="304" cy="-317" rx="45.4433" ry="26.7407"/>
<text text-anchor="middle" x="304" y="-320.8" font-family="Times,serif" font-size="14.00">modscan</text>
<text text-anchor="middle" x="304" y="-305.8" font-family="Times,serif" font-size="14.00">all</text>
</a>
</g>
</g>
<!-- mbf\nmodescan\ncapture -->
<g id="node2" class="node"><title>mbf\nmodescan\ncapture</title>
<g id="a_node2"><a xlink:href="http://www.cs.diamond.ac.uk/diagnostics_docs/diagnostics_rep_scan/html_code/Root&gt;rep4&gt;Multi-bunch-feedback-applications&gt;Modescan.html#mbf_modescan_capture" xlink:title="mbf\nmodescan\ncapture" target="_top">
<ellipse fill="#e1c74f" stroke="black" cx="133" cy="-238" rx="50.3073" ry="37.4533"/>
<text text-anchor="middle" x="133" y="-249.3" font-family="Times,serif" font-size="14.00">mbf</text>
<text text-anchor="middle" x="133" y="-234.3" font-family="Times,serif" font-size="14.00">modescan</text>
<text text-anchor="middle" x="133" y="-219.3" font-family="Times,serif" font-size="14.00">capture</text>
</a>
</g>
</g>
<!-- modscan\nall&#45;&gt;mbf\nmodescan\ncapture -->
<g id="edge1" class="edge"><title>modscan\nall&#45;&gt;mbf\nmodescan\ncapture</title>
<path fill="none" stroke="black" d="M263.749,-304.462C241.485,-297.446 213.626,-287.606 190,-276 185.96,-274.015 181.857,-271.8 177.801,-269.467"/>
<polygon fill="black" stroke="black" points="179.415,-266.354 169.038,-264.217 175.817,-272.359 179.415,-266.354"/>
</g>
<!-- mbf\nmodescan\nplotting -->
<g id="node8" class="node"><title>mbf\nmodescan\nplotting</title>
<g id="a_node8"><a xlink:href="http://www.cs.diamond.ac.uk/diagnostics_docs/diagnostics_rep_scan/html_code/Root&gt;rep4&gt;Multi-bunch-feedback-applications&gt;Modescan.html#mbf_modescan_plotting" xlink:title="mbf\nmodescan\nplotting" target="_top">
<ellipse fill="#e1c74f" stroke="black" cx="247" cy="-238" rx="50.3073" ry="37.4533"/>
<text text-anchor="middle" x="247" y="-249.3" font-family="Times,serif" font-size="14.00">mbf</text>
<text text-anchor="middle" x="247" y="-234.3" font-family="Times,serif" font-size="14.00">modescan</text>
<text text-anchor="middle" x="247" y="-219.3" font-family="Times,serif" font-size="14.00">plotting</text>
</a>
</g>
</g>
<!-- modscan\nall&#45;&gt;mbf\nmodescan\nplotting -->
<g id="edge7" class="edge"><title>modscan\nall&#45;&gt;mbf\nmodescan\nplotting</title>
<path fill="none" stroke="black" d="M286.277,-292.059C283.29,-288.023 280.118,-283.738 276.921,-279.42"/>
<polygon fill="black" stroke="black" points="279.55,-277.089 270.787,-271.134 273.924,-281.254 279.55,-277.089"/>
</g>
<!-- mbf\nmodescan\nsetup -->
<g id="node9" class="node"><title>mbf\nmodescan\nsetup</title>
<g id="a_node9"><a xlink:href="http://www.cs.diamond.ac.uk/diagnostics_docs/diagnostics_rep_scan/html_code/Root&gt;rep4&gt;Multi-bunch-feedback-applications&gt;Modescan.html#mbf_modescan_setup" xlink:title="mbf\nmodescan\nsetup" target="_top">
<ellipse fill="#e1c74f" stroke="black" cx="361" cy="-238" rx="50.3073" ry="37.4533"/>
<text text-anchor="middle" x="361" y="-249.3" font-family="Times,serif" font-size="14.00">mbf</text>
<text text-anchor="middle" x="361" y="-234.3" font-family="Times,serif" font-size="14.00">modescan</text>
<text text-anchor="middle" x="361" y="-219.3" font-family="Times,serif" font-size="14.00">setup</text>
</a>
</g>
</g>
<!-- modscan\nall&#45;&gt;mbf\nmodescan\nsetup -->
<g id="edge8" class="edge"><title>modscan\nall&#45;&gt;mbf\nmodescan\nsetup</title>
<path fill="none" stroke="black" d="M321.723,-292.059C324.71,-288.023 327.882,-283.738 331.079,-279.42"/>
<polygon fill="black" stroke="black" points="334.076,-281.254 337.213,-271.134 328.45,-277.089 334.076,-281.254"/>
</g>
<!-- setup\noperational\nmode -->
<g id="node11" class="node"><title>setup\noperational\nmode</title>
<g id="a_node11"><a xlink:href="http://www.cs.diamond.ac.uk/diagnostics_docs/diagnostics_rep_scan/html_code/Root&gt;rep4&gt;Multi-bunch-feedback-applications&gt;Common.html#setup_operational_mode" xlink:title="setup\noperational\nmode" target="_top">
<ellipse fill="#dcaa3f" stroke="black" cx="480" cy="-238" rx="54.1711" ry="37.4533"/>
<text text-anchor="middle" x="480" y="-249.3" font-family="Times,serif" font-size="14.00">setup</text>
<text text-anchor="middle" x="480" y="-234.3" font-family="Times,serif" font-size="14.00">operational</text>
<text text-anchor="middle" x="480" y="-219.3" font-family="Times,serif" font-size="14.00">mode</text>
</a>
</g>
</g>
<!-- modscan\nall&#45;&gt;setup\noperational\nmode -->
<g id="edge12" class="edge"><title>modscan\nall&#45;&gt;setup\noperational\nmode</title>
<path fill="none" stroke="black" d="M344.084,-304.113C366.296,-296.99 394.159,-287.158 418,-276 422.566,-273.863 427.228,-271.484 431.842,-268.992"/>
<polygon fill="black" stroke="black" points="433.593,-272.024 440.62,-264.095 430.182,-265.911 433.593,-272.024"/>
</g>
<!-- machine\nenvironment -->
<g id="node3" class="node"><title>machine\nenvironment</title>
<g id="a_node3"><a xlink:href="http://www.cs.diamond.ac.uk/diagnostics_docs/diagnostics_rep_scan/html_code/Root&gt;rep4&gt;Multi-bunch-feedback-applications&gt;Common.html#machine_environment" xlink:title="machine\nenvironment" target="_top">
<ellipse fill="#dcaa3f" stroke="black" cx="60" cy="-138" rx="60.1562" ry="26.7407"/>
<text text-anchor="middle" x="60" y="-141.8" font-family="Times,serif" font-size="14.00">machine</text>
<text text-anchor="middle" x="60" y="-126.8" font-family="Times,serif" font-size="14.00">environment</text>
</a>
</g>
</g>
<!-- mbf\nmodescan\ncapture&#45;&gt;machine\nenvironment -->
<g id="edge2" class="edge"><title>mbf\nmodescan\ncapture&#45;&gt;machine\nenvironment</title>
<path fill="none" stroke="black" d="M109.097,-204.911C101.223,-194.34 92.4564,-182.572 84.5354,-171.938"/>
<polygon fill="black" stroke="black" points="87.1781,-169.627 78.3974,-163.698 81.5644,-173.808 87.1781,-169.627"/>
</g>
<!-- mbf\nsystem\nconfig -->
<g id="node4" class="node"><title>mbf\nsystem\nconfig</title>
<g id="a_node4"><a xlink:href="http://www.cs.diamond.ac.uk/diagnostics_docs/diagnostics_rep_scan/html_code/Root&gt;rep4&gt;Multi-bunch-feedback-applications&gt;Common.html#mbf_system_config" xlink:title="mbf\nsystem\nconfig" target="_top">
<ellipse fill="#dcaa3f" stroke="black" cx="361" cy="-38" rx="38.2761" ry="37.4533"/>
<text text-anchor="middle" x="361" y="-49.3" font-family="Times,serif" font-size="14.00">mbf</text>
<text text-anchor="middle" x="361" y="-34.3" font-family="Times,serif" font-size="14.00">system</text>
<text text-anchor="middle" x="361" y="-19.3" font-family="Times,serif" font-size="14.00">config</text>
</a>
</g>
</g>
<!-- mbf\nmodescan\ncapture&#45;&gt;mbf\nsystem\nconfig -->
<g id="edge3" class="edge"><title>mbf\nmodescan\ncapture&#45;&gt;mbf\nsystem\nconfig</title>
<path fill="none" stroke="black" d="M169.517,-211.924C176.206,-207.728 183.218,-203.58 190,-200 252.19,-167.167 303.144,-201.178 336,-139"/>
<path fill="none" stroke="black" d="M336,-137C340.922,-127.686 346.722,-105.571 351.497,-84.7032"/>
<polygon fill="black" stroke="black" points="354.914,-85.4608 353.68,-74.938 348.082,-83.9333 354.914,-85.4608"/>
</g>
<!-- save\nto\narchive -->
<g id="node5" class="node"><title>save\nto\narchive</title>
<g id="a_node5"><a xlink:href="http://www.cs.diamond.ac.uk/diagnostics_docs/diagnostics_rep_scan/html_code/Root&gt;rep4&gt;Multi-bunch-feedback-applications&gt;Common.html#save_to_archive" xlink:title="save\nto\narchive" target="_top">
<ellipse fill="#dcaa3f" stroke="black" cx="173" cy="-138" rx="38.3379" ry="37.4533"/>
<text text-anchor="middle" x="173" y="-149.3" font-family="Times,serif" font-size="14.00">save</text>
<text text-anchor="middle" x="173" y="-134.3" font-family="Times,serif" font-size="14.00">to</text>
<text text-anchor="middle" x="173" y="-119.3" font-family="Times,serif" font-size="14.00">archive</text>
</a>
</g>
</g>
<!-- mbf\nmodescan\ncapture&#45;&gt;save\nto\narchive -->
<g id="edge4" class="edge"><title>mbf\nmodescan\ncapture&#45;&gt;save\nto\narchive</title>
<path fill="none" stroke="black" d="M147.328,-201.897C149.888,-195.623 152.584,-189.019 155.227,-182.543"/>
<polygon fill="black" stroke="black" points="158.502,-183.783 159.04,-173.201 152.021,-181.137 158.502,-183.783"/>
</g>
<!-- construct\ndatastamped\nfilename -->
<g id="node6" class="node"><title>construct\ndatastamped\nfilename</title>
<g id="a_node6"><a xlink:href="http://www.cs.diamond.ac.uk/diagnostics_docs/diagnostics_rep_scan/html_code/Root&gt;rep4&gt;Multi-bunch-feedback-applications&gt;Common.html#construct_datastamped_filename" xlink:title="construct\ndatastamped\nfilename" target="_top">
<ellipse fill="#dcaa3f" stroke="black" cx="141" cy="-38" rx="60.1562" ry="37.4533"/>
<text text-anchor="middle" x="141" y="-49.3" font-family="Times,serif" font-size="14.00">construct</text>
<text text-anchor="middle" x="141" y="-34.3" font-family="Times,serif" font-size="14.00">datastamped</text>
<text text-anchor="middle" x="141" y="-19.3" font-family="Times,serif" font-size="14.00">filename</text>
</a>
</g>
</g>
<!-- save\nto\narchive&#45;&gt;construct\ndatastamped\nfilename -->
<g id="edge5" class="edge"><title>save\nto\narchive&#45;&gt;construct\ndatastamped\nfilename</title>
<path fill="none" stroke="black" d="M161.628,-102.173C159.787,-96.5338 157.856,-90.6207 155.945,-84.7693"/>
<polygon fill="black" stroke="black" points="159.199,-83.459 152.768,-75.0393 152.545,-85.6318 159.199,-83.459"/>
</g>
<!-- tree\ngen -->
<g id="node7" class="node"><title>tree\ngen</title>
<g id="a_node7"><a xlink:href="http://www.cs.diamond.ac.uk/diagnostics_docs/diagnostics_rep_scan/html_code/Root&gt;rep4&gt;Multi-bunch-feedback-applications&gt;Common.html#tree_gen" xlink:title="tree\ngen" target="_top">
<ellipse fill="#dcaa3f" stroke="black" cx="242" cy="-38" rx="27" ry="26.7407"/>
<text text-anchor="middle" x="242" y="-41.8" font-family="Times,serif" font-size="14.00">tree</text>
<text text-anchor="middle" x="242" y="-26.8" font-family="Times,serif" font-size="14.00">gen</text>
</a>
</g>
</g>
<!-- save\nto\narchive&#45;&gt;tree\ngen -->
<g id="edge6" class="edge"><title>save\nto\narchive&#45;&gt;tree\ngen</title>
<path fill="none" stroke="black" d="M194.454,-106.529C202.922,-94.5026 212.619,-80.7292 221.038,-68.7716"/>
<polygon fill="black" stroke="black" points="224.012,-70.6281 226.907,-60.4365 218.288,-66.5981 224.012,-70.6281"/>
</g>
<!-- mbf\nget\nthen\nput -->
<g id="node10" class="node"><title>mbf\nget\nthen\nput</title>
<g id="a_node10"><a xlink:href="http://www.cs.diamond.ac.uk/diagnostics_docs/diagnostics_rep_scan/html_code/Root&gt;rep4&gt;Multi-bunch-feedback-applications&gt;Common.html#mbf_get_then_put" xlink:title="mbf\nget\nthen\nput" target="_top">
<ellipse fill="#dcaa3f" stroke="black" cx="386" cy="-138" rx="27.9291" ry="48.1667"/>
<text text-anchor="middle" x="386" y="-156.8" font-family="Times,serif" font-size="14.00">mbf</text>
<text text-anchor="middle" x="386" y="-141.8" font-family="Times,serif" font-size="14.00">get</text>
<text text-anchor="middle" x="386" y="-126.8" font-family="Times,serif" font-size="14.00">then</text>
<text text-anchor="middle" x="386" y="-111.8" font-family="Times,serif" font-size="14.00">put</text>
</a>
</g>
</g>
<!-- mbf\nmodescan\nsetup&#45;&gt;mbf\nget\nthen\nput -->
<g id="edge9" class="edge"><title>mbf\nmodescan\nsetup&#45;&gt;mbf\nget\nthen\nput</title>
<path fill="none" stroke="black" d="M370.167,-201.065C370.923,-198.101 371.697,-195.069 372.476,-192.016"/>
<polygon fill="black" stroke="black" points="375.886,-192.807 374.966,-182.252 369.103,-191.076 375.886,-192.807"/>
</g>
<!-- mbf\nmodescan\nsetup&#45;&gt;mbf\nsystem\nconfig -->
<g id="edge11" class="edge"><title>mbf\nmodescan\nsetup&#45;&gt;mbf\nsystem\nconfig</title>
<path fill="none" stroke="black" d="M340.833,-203.361C331.848,-183.755 325.418,-159.027 336,-139"/>
</g>
<!-- mbf\nget\nthen\nput&#45;&gt;mbf\nsystem\nconfig -->
<g id="edge10" class="edge"><title>mbf\nget\nthen\nput&#45;&gt;mbf\nsystem\nconfig</title>
<path fill="none" stroke="black" d="M374.962,-93.7305C374.176,-90.6508 373.383,-87.5405 372.594,-84.4491"/>
<polygon fill="black" stroke="black" points="375.971,-83.5253 370.107,-74.7008 369.188,-85.2557 375.971,-83.5253"/>
</g>
<!-- Multi&#45;bunch&#45;feedback&#45;applications/Common -->
<g id="node12" class="node"><title>Multi&#45;bunch&#45;feedback&#45;applications/Common</title>
<polygon fill="#dcaa3f" stroke="black" points="815,-335 553,-335 553,-299 815,-299 815,-335"/>
<text text-anchor="middle" x="684" y="-313.3" font-family="Times,serif" font-size="14.00">Multi&#45;bunch&#45;feedback&#45;applications/Common</text>
</g>
<!-- Multi&#45;bunch&#45;feedback&#45;applications/Modescan -->
<g id="node13" class="node"><title>Multi&#45;bunch&#45;feedback&#45;applications/Modescan</title>
<polygon fill="#e1c74f" stroke="black" points="817.25,-256 550.75,-256 550.75,-220 817.25,-220 817.25,-256"/>
<text text-anchor="middle" x="684" y="-234.3" font-family="Times,serif" font-size="14.00">Multi&#45;bunch&#45;feedback&#45;applications/Modescan</text>
</g>
<!-- Multi&#45;bunch&#45;feedback&#45;applications/Common&#45;&gt;Multi&#45;bunch&#45;feedback&#45;applications/Modescan -->
<g id="edge13" class="edge"><title>Multi&#45;bunch&#45;feedback&#45;applications/Common&#45;&gt;Multi&#45;bunch&#45;feedback&#45;applications/Modescan</title>
<path fill="none" stroke="white" d="M684,-288.622C684,-281.323 684,-273.441 684,-266.154"/>
<polygon fill="white" stroke="white" points="680.5,-288.911 684,-298.911 687.5,-288.911 680.5,-288.911"/>
<polygon fill="white" stroke="white" points="687.5,-266.041 684,-256.041 680.5,-266.041 687.5,-266.041"/>
</g>
</g>
</svg>
